<svg xmlns="http://www.w3.org/2000/svg" width="47.877" height="47.876" viewBox="0 0 47.877 47.876"><defs><style>.a{fill:#fff;}</style></defs><g transform="translate(0)"><path class="a" d="M278.346,415.579a.687.687,0,0,0-.549-.291h-13.29a.688.688,0,0,0-.548.294l7.191,5.032Z" transform="translate(-247.215 -397.03)"/><path class="a" d="M271.17,422.409a.962.962,0,0,1-.556-.175l-6.779-4.746V425.6a.7.7,0,0,0,.693.692h13.292a.7.7,0,0,0,.692-.693v-8.109l-6.787,4.749A.965.965,0,0,1,271.17,422.409Z" transform="translate(-247.235 -396.671)"/><path class="a" d="M273.506,399.6a23.938,23.938,0,1,0,23.938,23.938A23.938,23.938,0,0,0,273.506,399.6Zm9.279,28.925a2.643,2.643,0,0,1-2.63,2.632h-13.3a2.642,2.642,0,0,1-2.631-2.63v-9.976c0-.047.012-.09.014-.135,0-.029,0-.057.008-.086a2.636,2.636,0,0,1,2.605-2.412h13.3a2.646,2.646,0,0,1,2.632,2.631Z" transform="translate(-249.568 -399.596)"/></g></svg>