<svg xmlns="http://www.w3.org/2000/svg" width="47.876" height="47.876" viewBox="0 0 47.876 47.876"><defs><style>.a{fill:#fff;}</style></defs><path class="a" d="M213.171,417.487v2.493a.97.97,0,0,1-.969.97h-1.524v1.386H212.2a.97.97,0,0,1,.969.97v5.677h1.386v-5.677a.97.97,0,0,1,.97-.97h1.736l.346-1.386h-2.082a.97.97,0,0,1-.97-.97v-2.493a1.8,1.8,0,0,1,1.8-1.8h1.523V414.3h-1.523A3.19,3.19,0,0,0,213.171,417.487Z" transform="translate(-191.374 -397.575)"/><path class="a" d="M218.025,399.926a23.938,23.938,0,1,0,23.937,23.938A23.938,23.938,0,0,0,218.025,399.926Zm4.509,19.082a.969.969,0,0,1-.969.969H219.21v1.385h2.355a.97.97,0,0,1,.94,1.205l-.831,3.324a.968.968,0,0,1-.94.735H219.21V432.3a.97.97,0,0,1-.969.97h-3.325a.971.971,0,0,1-.97-.97v-5.678h-1.523a.97.97,0,0,1-.97-.969v-3.326a.97.97,0,0,1,.97-.969h1.523v-1.524a5.132,5.132,0,0,1,5.126-5.124h2.493a.97.97,0,0,1,.969.97Z" transform="translate(-194.087 -399.926)"/></svg>