<svg xmlns="http://www.w3.org/2000/svg" width="47.877" height="47.876" viewBox="0 0 47.877 47.876"><defs><style>.a{fill:#fff;}</style></defs><path class="a" d="M383.184,412.648H375.22a4.12,4.12,0,0,0-4.115,4.114v7.964a4.12,4.12,0,0,0,4.115,4.114h7.963a4.12,4.12,0,0,0,4.115-4.114v-7.964A4.12,4.12,0,0,0,383.184,412.648Zm-3.9,13.008a4.912,4.912,0,1,1,4.911-4.912A4.918,4.918,0,0,1,379.285,425.656Zm5.2-8.985a1.169,1.169,0,1,1,1.169-1.169A1.169,1.169,0,0,1,384.483,416.671Z" transform="translate(-355.264 -396.805)"/><path class="a" d="M378.577,416.9a3.147,3.147,0,1,0,3.146,3.146A3.15,3.15,0,0,0,378.577,416.9Z" transform="translate(-354.556 -396.11)"/><path class="a" d="M381.428,399.032a23.938,23.938,0,1,0,23.938,23.94A23.939,23.939,0,0,0,381.428,399.032Zm9.974,27.921a6,6,0,0,1-5.992,5.991h-7.963a6,6,0,0,1-5.992-5.991v-7.964A6,6,0,0,1,377.447,413h7.963a6,6,0,0,1,5.992,5.991Z" transform="translate(-357.49 -399.032)"/></svg>