<svg xmlns="http://www.w3.org/2000/svg" width="123.591" height="29.822" viewBox="0 0 123.591 29.822"><defs><style>.a{fill:#e7561e;}</style></defs><g transform="translate(-454.27 -790.872)"><g transform="translate(454.27 790.872)"><path class="a" d="M475.314,803.661c0,6.136-4.484,9.872-10.03,9.872h-3.147v7.788H454.27V793.788h11.014C470.83,793.788,475.314,797.525,475.314,803.661Zm-7.867,0a2.107,2.107,0,0,0-2.164-2.242h-3.147V805.9h3.147A2.107,2.107,0,0,0,467.448,803.661Z" transform="translate(-454.27 -792.136)"/><path class="a" d="M494.192,794.884a4.032,4.032,0,1,1,4.051,4.012A4.089,4.089,0,0,1,494.192,794.884Zm.393,5.507h7.277v19.667h-7.277Z" transform="translate(-471.574 -790.872)"/><path class="a" d="M543.769,814.962V826.92h-7.278V815.945c0-1.338-.629-2.242-2.006-2.242-1.692,0-2.321,1.338-2.321,2.911V826.92h-7.277V815.945c0-1.338-.629-2.242-2.006-2.242-1.691,0-2.321,1.338-2.321,2.911V826.92h-7.277V807.253h7.277V809.1a6.65,6.65,0,0,1,5.35-2.4,5.416,5.416,0,0,1,4.917,2.438,7.048,7.048,0,0,1,5.664-2.438C541.015,806.7,543.769,809.613,543.769,814.962Z" transform="translate(-479.849 -797.733)"/><path class="a" d="M593.853,811.488c0,5.939-3.658,10.385-9.008,10.385a6.433,6.433,0,0,1-5.271-2.321v1.77H572.3V793.788h7.277v9.637a6.433,6.433,0,0,1,5.271-2.321C590.2,801.1,593.853,805.549,593.853,811.488Zm-7.277,0a3.506,3.506,0,1,0-3.5,3.7A3.461,3.461,0,0,0,586.576,811.488Z" transform="translate(-505.428 -792.136)"/><path class="a" d="M634.4,807.253V826.92h-7.276v-1.77a6.433,6.433,0,0,1-5.271,2.321c-5.349,0-9.008-4.445-9.008-10.384S616.5,806.7,621.851,806.7a6.434,6.434,0,0,1,5.271,2.321v-1.77Zm-7.276,9.833a3.506,3.506,0,1,0-3.5,3.7A3.462,3.462,0,0,0,627.122,817.086Z" transform="translate(-523.002 -797.733)"/><path class="a" d="M656.444,801.655v-7.867h9.047v7.867l-1.377,9.44h-6.293Z" transform="translate(-541.9 -792.136)"/></g><path class="a" d="M658.742,828.663c1.889-1.866,8.886,1.775,5.911,5.524s-8.569,3.332-7.152.094S656.853,830.529,658.742,828.663Z" transform="translate(-87.991 -16.162)"/></g></svg>