<svg id="Grupo_11" data-name="Grupo 11" xmlns="http://www.w3.org/2000/svg" width="188" height="45.295" viewBox="0 0 188 45.295">
  <path id="Trazado_1" data-name="Trazado 1" d="M143.582,299.169c0,9.334-6.821,15.018-15.259,15.018h-4.787v11.847H111.57V284.15h16.753C136.76,284.15,143.582,289.835,143.582,299.169Zm-11.967,0a3.2,3.2,0,0,0-3.291-3.411h-4.787v6.821h4.787A3.2,3.2,0,0,0,131.614,299.169Z" transform="translate(-111.57 -281.637)" fill="#949494"/>
  <path id="Trazado_2" data-name="Trazado 2" d="M151.491,287.337a6.133,6.133,0,1,1,6.162,6.1A6.221,6.221,0,0,1,151.491,287.337Zm.6,8.377h11.069v29.917H152.089Z" transform="translate(-117.086 -281.234)" fill="#949494"/>
  <path id="Trazado_3" data-name="Trazado 3" d="M216.954,309.629v18.19H205.886V311.125c0-2.035-.958-3.411-3.052-3.411-2.573,0-3.53,2.034-3.53,4.428v15.677h-11.07V311.125c0-2.035-.957-3.411-3.052-3.411-2.573,0-3.53,2.034-3.53,4.428v15.677H170.584V297.9h11.068v2.812a10.116,10.116,0,0,1,8.138-3.65c3.41,0,5.923,1.257,7.479,3.709a10.724,10.724,0,0,1,8.617-3.709C212.767,297.064,216.954,301.492,216.954,309.629Z" transform="translate(-119.724 -283.421)" fill="#949494"/>
  <path id="Trazado_4" data-name="Trazado 4" d="M262.387,311.076c0,9.034-5.565,15.8-13.7,15.8a9.789,9.789,0,0,1-8.018-3.53v2.692H229.6V284.15h11.069v14.66a9.789,9.789,0,0,1,8.018-3.53C256.822,295.28,262.387,302.041,262.387,311.076Zm-11.069,0c0-3.172-2.094-5.624-5.325-5.624s-5.326,2.453-5.326,5.624,2.1,5.624,5.326,5.624S251.318,314.247,251.318,311.076Z" transform="translate(-127.879 -281.637)" fill="#949494"/>
  <path id="Trazado_5" data-name="Trazado 5" d="M302.932,297.9v29.917H291.863v-2.692a9.787,9.787,0,0,1-8.018,3.53c-8.138,0-13.7-6.762-13.7-15.8s5.564-15.8,13.7-15.8a9.787,9.787,0,0,1,8.018,3.53V297.9ZM291.863,312.86c0-3.172-2.094-5.624-5.325-5.624s-5.325,2.453-5.325,5.624,2.094,5.624,5.325,5.624S291.863,316.031,291.863,312.86Z" transform="translate(-133.481 -283.421)" fill="#949494"/>
  <path id="Trazado_6" data-name="Trazado 6" d="M313.744,296.117V284.15h13.762v11.967l-2.094,14.36h-9.573Zm0,23.934a6.881,6.881,0,1,1,6.881,6.881A6.844,6.844,0,0,1,313.744,320.051Z" transform="translate(-139.506 -281.637)" fill="#949494"/>
</svg>
