<svg xmlns="http://www.w3.org/2000/svg" width="187.715" height="45.295" viewBox="0 0 187.715 45.295"><defs><style>.a{fill:#fff;}</style></defs><g transform="translate(-454.27 -790.872)"><g transform="translate(454.27 790.872)"><path class="a" d="M486.233,808.784c0,9.319-6.811,14.995-15.235,14.995h-4.779v11.829H454.27v-41.82H471C479.422,793.788,486.233,799.464,486.233,808.784Zm-11.948,0A3.2,3.2,0,0,0,471,805.378h-4.779v6.811H471A3.2,3.2,0,0,0,474.285,808.784Z" transform="translate(-454.27 -791.279)"/><path class="a" d="M494.192,796.966a6.124,6.124,0,1,1,6.153,6.093A6.211,6.211,0,0,1,494.192,796.966Zm.6,8.364h11.052V835.2H494.789Z" transform="translate(-459.838 -790.872)"/><path class="a" d="M559.586,819.247V837.41H548.532V820.741c0-2.032-.956-3.406-3.046-3.406-2.57,0-3.525,2.032-3.525,4.421V837.41H530.908V820.741c0-2.032-.955-3.406-3.047-3.406-2.569,0-3.525,2.032-3.525,4.421V837.41H513.284V807.538h11.052v2.807a10.1,10.1,0,0,1,8.126-3.643c3.405,0,5.914,1.255,7.468,3.7a10.7,10.7,0,0,1,8.6-3.7C555.4,806.7,559.586,811.123,559.586,819.247Z" transform="translate(-462.501 -793.08)"/><path class="a" d="M605.037,820.672c0,9.021-5.556,15.772-13.681,15.772a9.771,9.771,0,0,1-8.005-3.525v2.688H572.3v-41.82h11.053v14.637a9.771,9.771,0,0,1,8.005-3.525C599.481,804.9,605.037,811.651,605.037,820.672Zm-11.052,0c0-3.167-2.091-5.615-5.317-5.615s-5.317,2.448-5.317,5.615,2.091,5.616,5.317,5.616S593.985,823.839,593.985,820.672Z" transform="translate(-470.733 -791.279)"/><path class="a" d="M645.582,807.538V837.41H634.531v-2.688a9.771,9.771,0,0,1-8.006,3.525c-8.125,0-13.681-6.752-13.681-15.772S618.4,806.7,626.524,806.7a9.771,9.771,0,0,1,8.006,3.525v-2.688Zm-11.052,14.935c0-3.167-2.092-5.615-5.318-5.615s-5.317,2.448-5.317,5.615,2.091,5.616,5.317,5.616S634.531,825.64,634.531,822.474Z" transform="translate(-476.388 -793.08)"/><path class="a" d="M656.444,805.737V793.788h13.741v11.949l-2.091,14.338h-9.559Z" transform="translate(-482.47 -791.279)"/></g><path class="a" d="M659.5,828.925c2.87-2.834,13.5,2.7,8.979,8.39s-13.015,5.061-10.863.143S656.634,831.759,659.5,828.925Z" transform="translate(-28.316 -5.201)"/></g></svg>