<svg xmlns="http://www.w3.org/2000/svg" width="241" height="48" viewBox="0 0 241 48">
  <g id="Grupo_25" data-name="Grupo 25" transform="translate(-143 -5970)">
    <g id="Circle_Button_" data-name="Circle Button " transform="translate(336 5970)" opacity="0.55">
      <g id="Area_SIZE:MEDIUM_STATE:DEFAULT_STYLE:STYLE2_" data-name="Area [SIZE:MEDIUM][STATE:DEFAULT][STYLE:STYLE2]" fill="#fff" stroke="#3e3e3e" stroke-width="2">
        <rect width="48" height="48" rx="24" stroke="none"/>
        <rect x="1" y="1" width="46" height="46" rx="23" fill="none"/>
      </g>
      <g id="Icon_" data-name="Icon " transform="translate(14 14)">
        <rect id="Area_ICON:feather_instagram_SIZE:MEDIUM_STATE:DEFAULT_STYLE:STYLE2_" data-name="Area [ICON:feather/instagram][SIZE:MEDIUM][STATE:DEFAULT][STYLE:STYLE2]" width="20" height="20" fill="rgba(253,73,198,0.35)" opacity="0"/>
        <g id="Icon" transform="translate(1.667 1.667)">
          <rect id="Rect" width="16.667" height="16.667" rx="5" transform="translate(0 0)" fill="none" stroke="#3e3e3e" stroke-linecap="round" stroke-linejoin="round" stroke-width="1.667"/>
          <path id="Path" d="M13.333,9.475a3.333,3.333,0,1,1-2.808-2.808A3.333,3.333,0,0,1,13.333,9.475Z" transform="translate(-1.667 -1.667)" fill="none" stroke="#3e3e3e" stroke-linecap="round" stroke-linejoin="round" stroke-width="1.667"/>
          <line id="Line" x2="0.008" transform="translate(12.917 3.75)" fill="none" stroke="#3e3e3e" stroke-linecap="round" stroke-linejoin="round" stroke-width="1.667"/>
        </g>
      </g>
    </g>
    <g id="Circle_Button_2" data-name="Circle Button " transform="translate(272 5970)" opacity="0.55">
      <g id="Area_SIZE:MEDIUM_STATE:DEFAULT_STYLE:STYLE2_2" data-name="Area [SIZE:MEDIUM][STATE:DEFAULT][STYLE:STYLE2]" fill="#fff" stroke="#3e3e3e" stroke-width="2">
        <rect width="48" height="48" rx="24" stroke="none"/>
        <rect x="1" y="1" width="46" height="46" rx="23" fill="none"/>
      </g>
      <g id="Icon_2" data-name="Icon " transform="translate(14 14)">
        <rect id="Area_ICON:feather_twitter_SIZE:MEDIUM_STATE:DEFAULT_STYLE:STYLE2_" data-name="Area [ICON:feather/twitter][SIZE:MEDIUM][STATE:DEFAULT][STYLE:STYLE2]" width="20" height="20" fill="rgba(253,73,198,0.35)" opacity="0"/>
        <g id="Icon-2" data-name="Icon" transform="translate(0.833 2.491)">
          <path id="Path-2" data-name="Path" d="M19.167,2.5A9.094,9.094,0,0,1,16.55,3.775,3.733,3.733,0,0,0,10,6.275v.833A8.884,8.884,0,0,1,2.5,3.333s-3.333,7.5,4.167,10.834A9.7,9.7,0,0,1,.833,15.833C8.333,20,17.5,15.833,17.5,6.25a3.739,3.739,0,0,0-.067-.692A6.427,6.427,0,0,0,19.167,2.5Z" transform="translate(-0.833 -2.491)" fill="none" stroke="#3e3e3e" stroke-linecap="round" stroke-linejoin="round" stroke-width="1.667"/>
        </g>
      </g>
    </g>
    <g id="Circle_Button_3" data-name="Circle Button " transform="translate(143 5970)" opacity="0.55">
      <g id="Area_SIZE:MEDIUM_STATE:DEFAULT_STYLE:STYLE2_3" data-name="Area [SIZE:MEDIUM][STATE:DEFAULT][STYLE:STYLE2]" fill="#fff" stroke="#3e3e3e" stroke-width="2">
        <rect width="48" height="48" rx="24" stroke="none"/>
        <rect x="1" y="1" width="46" height="46" rx="23" fill="none"/>
      </g>
      <g id="Icon_3" data-name="Icon " transform="translate(14 14)">
        <rect id="Area_ICON:feather_facebook_SIZE:MEDIUM_STATE:DEFAULT_STYLE:STYLE2_" data-name="Area [ICON:feather/facebook][SIZE:MEDIUM][STATE:DEFAULT][STYLE:STYLE2]" width="20" height="20" fill="rgba(253,73,198,0.35)" opacity="0"/>
        <g id="Icon-3" data-name="Icon" transform="translate(5.833 1.667)">
          <path id="Path-3" data-name="Path" d="M15,1.667H12.5A4.167,4.167,0,0,0,8.333,5.833v2.5h-2.5v3.334h2.5v6.666h3.334V11.667h2.5L15,8.333H11.667v-2.5A.833.833,0,0,1,12.5,5H15Z" transform="translate(-5.833 -1.667)" fill="none" stroke="#3e3e3e" stroke-linecap="round" stroke-linejoin="round" stroke-width="1.667"/>
        </g>
      </g>
    </g>
    <g id="Circle_Button_4" data-name="Circle Button " transform="translate(207.077 5970)" opacity="0.55">
      <g id="Area_SIZE:MEDIUM_STATE:DEFAULT_STYLE:STYLE2_4" data-name="Area [SIZE:MEDIUM][STATE:DEFAULT][STYLE:STYLE2]" fill="#fff" stroke="#3e3e3e" stroke-width="2">
        <rect width="48" height="48" rx="24" stroke="none"/>
        <rect x="1" y="1" width="46" height="46" rx="23" fill="none"/>
      </g>
      <g id="Icon_4" data-name="Icon " transform="translate(14 14)">
        <rect id="Area_ICON:feather_mail_SIZE:MEDIUM_STATE:DEFAULT_STYLE:STYLE2_" data-name="Area [ICON:feather/mail][SIZE:MEDIUM][STATE:DEFAULT][STYLE:STYLE2]" width="20" height="20" fill="rgba(253,73,198,0.35)" opacity="0"/>
        <g id="Icon-4" data-name="Icon" transform="translate(1.667 3.333)">
          <path id="Path-4" data-name="Path" d="M3.333,3.333H16.667A1.671,1.671,0,0,1,18.333,5V15a1.671,1.671,0,0,1-1.666,1.667H3.333A1.671,1.671,0,0,1,1.667,15V5A1.671,1.671,0,0,1,3.333,3.333Z" transform="translate(-1.667 -3.333)" fill="none" stroke="#3e3e3e" stroke-linecap="round" stroke-linejoin="round" stroke-width="1.667"/>
          <path id="Path-5" data-name="Path" d="M18.333,5,10,10.833,1.667,5" transform="translate(-1.667 -3.333)" fill="none" stroke="#3e3e3e" stroke-linecap="round" stroke-linejoin="round" stroke-width="1.667"/>
        </g>
      </g>
    </g>
  </g>
</svg>
