<svg xmlns="http://www.w3.org/2000/svg" width="47.877" height="47.877" viewBox="0 0 47.877 47.877"><defs><style>.a{fill:#fff;}</style></defs><path class="a" d="M330.048,416.579a2.753,2.753,0,0,0-4.833,1.843v.844a.969.969,0,0,1-.946.969,9.786,9.786,0,0,1-7.094-2.766,6.639,6.639,0,0,0,4.139,7.952.969.969,0,0,1,.15,1.688,10.591,10.591,0,0,1-2.56,1.269,10.013,10.013,0,0,0,7.2-1.1,9.9,9.9,0,0,0,4.649-8.873,2.779,2.779,0,0,0-.049-.51.97.97,0,0,1,.272-.871c.063-.061.123-.125.183-.188l-.1.031A.967.967,0,0,1,330.048,416.579Z" transform="translate(-300.308 -397.358)"/><path class="a" d="M326.591,399.926a23.938,23.938,0,1,0,23.938,23.938A23.938,23.938,0,0,0,326.591,399.926Zm10.085,17.542a7.378,7.378,0,0,1-1.649,3.151c.009.12.014.24.014.358,0,4.606-2.042,8.449-5.6,10.546a11.686,11.686,0,0,1-5.951,1.6,13.429,13.429,0,0,1-6.51-1.742.97.97,0,0,1,.511-1.817,8.749,8.749,0,0,0,3.749-.688,8.04,8.04,0,0,1-3.824-6.61,11.184,11.184,0,0,1,.812-4.594.971.971,0,0,1,1.68-.164,7.871,7.871,0,0,0,5.718,3.322,4.695,4.695,0,0,1,7.761-3.432,8.2,8.2,0,0,0,1.794-.954.97.97,0,0,1,1.5,1.022Z" transform="translate(-302.653 -399.926)"/></svg>