<svg xmlns="http://www.w3.org/2000/svg" xmlns:xlink="http://www.w3.org/1999/xlink" width="110" height="115.296" viewBox="0 0 110 115.296"><defs><style>.a{opacity:0.8;mix-blend-mode:multiply;isolation:isolate;fill:url(#a);}.b{fill:#2e8c54;}.c,.d{fill:#fff;}.d{fill-rule:evenodd;}</style><radialGradient id="a" cx="0.5" cy="0.5" r="0.5" gradientUnits="objectBoundingBox"><stop offset="0" stop-color="#000056"/><stop offset="0.386" stop-color="#7373a2" stop-opacity="0.549"/><stop offset="0.784" stop-color="#d8d8e5" stop-opacity="0.149"/><stop offset="1" stop-color="#fff" stop-opacity="0"/></radialGradient></defs><circle class="a" cx="50.018" cy="50.018" r="50.018" transform="translate(9.964 15.261)"/><circle class="b" cx="34.825" cy="34.825" r="34.825" transform="translate(0 26.893) rotate(-22.713)"/><path class="c" d="M301.156,148.478l2.906-10.832a20.05,20.05,0,1,1,7.984,7.915Zm11.433-6.976.686.41a16.277,16.277,0,1,0-5.569-5.519l.419.691-1.62,6.047Z" transform="translate(-274.401 -83.2)"/><path class="d" d="M322.774,124.462a3.36,3.36,0,0,0-2.865-.645c-.743.3-1.219,1.467-1.7,2.063a.716.716,0,0,1-.924.2,12.965,12.965,0,0,1-6.474-5.547.793.793,0,0,1,.1-1.084,4.384,4.384,0,0,0,1.177-1.91,4.183,4.183,0,0,0-.526-2.26,5.358,5.358,0,0,0-1.67-2.515,2.286,2.286,0,0,0-2.482.369,5.045,5.045,0,0,0-1.748,3.994,5.642,5.642,0,0,0,.157,1.267,10.53,10.53,0,0,0,1.215,2.8,22.653,22.653,0,0,0,1.27,1.929,19.6,19.6,0,0,0,5.507,5.111,16.621,16.621,0,0,0,3.432,1.634,7.665,7.665,0,0,0,4,.631,4.843,4.843,0,0,0,3.623-2.7,2.343,2.343,0,0,0,.169-1.377C324.822,125.484,323.538,124.92,322.774,124.462Z" transform="translate(-268.178 -76.898)"/></svg>