<svg xmlns="http://www.w3.org/2000/svg" width="135" height="132.567" viewBox="0 0 135 132.567"><defs><style>.a{fill:#2b3268;}.b{fill:#e7561e;}.c{fill:#eea705;}.d{fill:#fff;}.e,.f{stroke:none;}.f{fill:#707070;}</style></defs><g transform="translate(-120.284 -1355.271)"><path class="a" d="M4.545,66.167c5.895,4.5,14.523,3.158,24.729-3.107,5.552-3.408,12.536-3.319,19.362-.859,9.395,3.385,18.793,3,24.312-4.43s8.795-22.793-12.311-29.677c-7.674-2.5-15.438-9.487-19.6-17.782C36.613,1.512,30.622-.367,24.27.055,20.551.3,11.544,3.1,9.423,11.841,6.962,21.989,13.473,29.775,6.01,41.475-1.083,52.594-2.307,60.931,4.545,66.167Z" transform="matrix(0.788, -0.616, 0.616, 0.788, 152.175, 1433.605)"/><path class="b" d="M6.378,37.276c6.339,10.311,6.087,16.5,4.87,26.688S12.081,78.6,16.12,81.078c5.232,3.206,12.919,1.426,17.249-6.587s6.765-14.939,19.888-11.273,23.664.083,28.669-8.882,5.443-24.88-5.13-31.592S56.773,22.2,40.674,9.163,11.034-1.143,4.688,5.9C-.8,11.992-2.888,22.2,6.378,37.276Z" transform="matrix(0.788, -0.616, 0.616, 0.788, 120.284, 1407.81)"/><path class="c" d="M35.734,72.887C49.814,69.859,52.988,57.146,49.6,48.4s-3.717-17.2,2.535-28.318S49.7-4.912,30.146,1.727.669,26.728.056,38.989C-1.286,65.9,21.653,75.915,35.734,72.887Z" transform="matrix(0.788, -0.616, 0.616, 0.788, 164.461, 1390.226)"/><g transform="translate(142.345 1384.486)"><g class="d" transform="translate(0 0.872)"><path class="e" d="M 6.049219608306885 79.15027618408203 L 8.469707489013672 63.24787139892578 L 8.503779411315918 63.02411270141602 L 8.358121871948242 62.85087203979492 C 5.860350608825684 59.87989807128906 3.916693449020386 56.58010101318359 2.581164836883545 53.04312896728516 C 1.200207829475403 49.38588333129883 0.5000078082084656 45.54909896850586 0.5000078082084656 41.63934326171875 C 0.5000078082084656 36.97319793701172 1.487722039222717 32.44651412963867 3.435736417770386 28.18502807617188 C 5.318650722503662 24.06591415405273 8.015036582946777 20.36581420898438 11.44997882843018 17.18754196166992 C 14.88769340515137 14.0067138671875 18.89149284362793 11.50914192199707 23.35019302368164 9.764199256896973 C 27.9685230255127 7.956785202026367 32.87502288818359 7.040356636047363 37.93342208862305 7.040356636047363 C 42.21368026733398 7.040356636047363 46.41143798828125 7.702728271484375 50.41007995605469 9.009085655212402 C 54.27309417724609 10.27112770080566 57.87010955810547 12.10569953918457 61.1012077331543 14.46181392669678 L 61.58684921264648 14.81594276428223 L 61.8466796875 14.27395629882813 C 63.79970932006836 10.19999980926514 66.79640960693359 6.758956432342529 70.51280975341797 4.322827816009521 C 74.32804870605469 1.821913719177246 78.74243927001953 0.499999463558197 83.27873992919922 0.499999463558197 C 86.50546264648438 0.499999463558197 89.63558197021484 1.154499411582947 92.58216857910156 2.445313692092896 C 95.42964935302734 3.692728042602539 97.98736572265625 5.4789137840271 100.1842346191406 7.754242420196533 C 102.3823089599609 10.03079986572266 104.1081390380859 12.68202781677246 105.3137969970703 15.63428497314453 C 106.5623931884766 18.69169998168945 107.1954803466797 21.93989944458008 107.1954803466797 25.28867149353027 C 107.1954803466797 33.59220123291016 103.2119674682617 41.30540084838867 96.53956604003906 45.92150115966797 L 96.21026611328125 46.14931488037109 L 96.36061859130859 46.52042770385742 L 100.8763580322266 57.66676712036133 L 89.53889465332031 49.41316986083984 L 89.34769439697266 49.27397155761719 L 89.11878204345703 49.33349990844727 C 87.21971893310547 49.82732772827148 85.25485229492188 50.07772827148438 83.27873992919922 50.07772827148438 C 80.49923706054688 50.07772827148438 77.77589416503906 49.58806991577148 75.18439483642578 48.62235641479492 L 74.65212249755859 48.42401504516602 L 74.52291107177734 48.97714233398438 C 73.62683868408203 52.81261444091797 72.03804016113281 56.45426940917969 69.80065155029297 59.80097198486328 C 67.60390472412109 63.08685684204102 64.84666442871094 65.99444580078125 61.60553741455078 68.44297027587891 C 58.33482360839844 70.91384124755859 54.67262268066406 72.83984375 50.72066497802734 74.16745758056641 C 46.62943649291992 75.54185485839844 42.32719421386719 76.23873901367188 37.93342208862305 76.23873901367188 C 34.59373474121094 76.23873901367188 31.28187942504883 75.83205413818359 28.08983612060547 75.02996826171875 C 24.99510765075684 74.25234222412109 22.01460838317871 73.10418701171875 19.23112297058105 71.61740112304688 L 18.98280715942383 71.48475646972656 L 18.74062156677246 71.6282958984375 L 6.049219608306885 79.15027618408203 Z"/><path class="f" d="M 6.702373504638672 78.18193817138672 L 18.48569297790527 71.19817352294922 L 18.97006416320801 70.91110229492188 L 19.46669387817383 71.17636871337891 C 22.21423721313477 72.64397430419922 25.15646553039551 73.77735900878906 28.21167945861816 74.54505920410156 C 31.36392211914063 75.33712768554688 34.63478088378906 75.73873901367188 37.93342208862305 75.73873901367188 C 42.27294921875 75.73873901367188 46.52162170410156 75.05061340332031 50.56143569946289 73.6934814453125 C 54.46216583251953 72.38307189941406 58.0765380859375 70.48231506347656 61.30414962768555 68.04401397705078 C 64.50057983398438 65.62925720214844 67.21936798095703 62.76239776611328 69.38497924804688 59.52308654785156 C 71.58883666992188 56.22654342651367 73.15367889404297 52.64011383056641 74.03601837158203 48.86338424682617 L 74.29446411132813 47.75714111328125 L 75.35897827148438 48.15382766723633 C 77.89444732666016 49.09865570068359 80.55903625488281 49.57772827148438 83.27873992919922 49.57772827148438 C 85.21240997314453 49.57772827148438 87.13494873046875 49.33274078369141 88.99295043945313 48.84958648681641 L 89.45075225830078 48.73054122924805 L 89.83317565917969 49.00894165039063 L 99.75585174560547 56.23257446289063 L 95.89720916748047 46.70817184448242 L 95.59650421142578 45.96592712402344 L 96.25509643554688 45.51029968261719 C 102.7925338745117 40.98758697509766 106.6954803466797 33.42808532714844 106.6954803466797 25.28867149353027 C 106.6954803466797 22.00504302978516 106.0748825073242 18.8204288482666 104.8508911132813 15.82332801818848 C 103.6693801879883 12.93015670776367 101.9782638549805 10.33218479156494 99.82453918457031 8.101542472839355 C 97.67317962646484 5.873356819152832 95.16899108886719 4.124413967132568 92.38152313232422 2.903299570083618 C 89.49859619140625 1.640356659889221 86.43598175048828 0.999999463558197 83.27873992919922 0.999999463558197 C 78.84008026123047 0.999999463558197 74.52047729492188 2.29361367225647 70.78691864013672 4.74098539352417 C 67.14675140380859 7.127142429351807 64.21116638183594 10.49832820892334 62.29755020141602 14.49009990692139 L 61.77789306640625 15.57407093048096 L 60.80662155151367 14.86581420898438 C 57.61799240112305 12.54067134857178 54.06785202026367 10.7300853729248 50.25480651855469 9.484371185302734 C 46.30636596679688 8.194414138793945 42.16086578369141 7.540356636047363 37.93342208862305 7.540356636047363 C 32.93763732910156 7.540356636047363 28.09243583679199 8.445213317871094 23.53242301940918 10.22981357574463 C 19.13210868835449 11.95189952850342 15.18123626708984 14.41629981994629 11.78955078125 17.55454254150391 C 8.403393745422363 20.68768501281738 5.74576473236084 24.334228515625 3.890465021133423 28.39289855957031 C 1.972493529319763 32.58868408203125 1.000007748603821 37.04544067382813 1.000007748603821 41.63934326171875 C 1.000007748603821 45.48854064941406 1.689364910125732 49.26591491699219 3.048922061920166 52.86650085449219 C 4.36446475982666 56.35049819946289 6.27949333190918 59.60147094726563 8.740836143493652 62.52911376953125 L 9.032135963439941 62.8755989074707 L 8.964021682739258 63.32310104370117 L 6.702373504638672 78.18193817138672 M 5.396079063415527 80.11859893798828 L 7.975407600402832 63.17262649536133 C 2.977236270904541 57.22756958007813 7.787213689880446e-06 49.75444412231445 7.787213689880446e-06 41.63934326171875 C 7.787213689880446e-06 22.2545280456543 16.9832649230957 6.540356636047363 37.93342208862305 6.540356636047363 C 46.79096603393555 6.540356636047363 54.94022369384766 9.35041332244873 61.39580917358398 14.05781364440918 C 65.38979339599609 5.726485252380371 73.68855285644531 -5.310058668328566e-07 83.27873992919922 -5.310058668328566e-07 C 96.76361846923828 -5.310058668328566e-07 107.6954803466797 11.32229900360107 107.6954803466797 25.28867149353027 C 107.6954803466797 34.06564331054688 103.3788681030273 41.79792785644531 96.82403564453125 46.33268356323242 L 101.9968643188477 59.1009407043457 L 89.24462127685547 49.81739807128906 C 87.33564758300781 50.31381225585938 85.33636474609375 50.57772827148438 83.27873992919922 50.57772827148438 C 80.37683868408203 50.57772827148438 77.59188079833984 50.05308532714844 75.00979614257813 49.09088516235352 C 71.31719207763672 64.89649963378906 56.12020874023438 76.73873901367188 37.93342208862305 76.73873901367188 C 31.0363655090332 76.73873901367188 24.56860733032227 75.03527069091797 18.99555015563965 72.05842590332031 L 5.396079063415527 80.11859893798828 Z"/></g><g transform="translate(0 0)"><path d="M46.26,1044.459a34.006,34.006,0,0,1-4.758,6.622c-12.076,12.688-29.356,16.024-45.291,8.99a4.272,4.272,0,0,0-3.091.081c-3.824,1.646-7.56,3.508-11.344,5.255-1.963.907-2.832.28-2.623-1.929.3-3.177.842-6.337,1-9.519.159-3.142,1.254-6.152-.635-9.454-6.568-11.481-6.191-23.235.6-34.395a38.143,38.143,0,0,1,45.3-15.7c2.954,1.1,5.8,2.508,8.8,3.819.307-.445.688-.956,1.028-1.494a25.058,25.058,0,0,1,18.1-11.854c10.486-1.61,21.659,4.366,26.268,13.935,5.172,10.739,3.271,23.328-4.8,31.305a2.228,2.228,0,0,0-.649,2.787q1.987,5.255,3.713,10.612a6.818,6.818,0,0,1-.13,2.363,6.476,6.476,0,0,1-2.278-.442c-3.774-2.4-7.469-4.921-11.227-7.345a4.724,4.724,0,0,0-2.287-.855c-4.1-.084-8.211-.04-12.474-.04A73.241,73.241,0,0,1,46.26,1044.459Zm-54.113,13.057a5.547,5.547,0,0,1,5.342-.026c11.6,5.125,23.01,4.518,34.077-1.708,12.9-7.255,19.406-22.8,15.027-36.711-3.864-12.269-12.51-19.734-24.407-22.747-13.6-3.444-25.765-.252-35.911,10.073-9.352,9.516-11.441,25.439-4.456,36.888,1.776,2.912,1.7,5.645,1.346,8.669-.383,3.3-.72,6.61-1.118,10.3C-14.349,1060.585-11.036,1059.184-7.853,1057.517Zm58.17-23.548a21.954,21.954,0,0,0,11.276.578,4.843,4.843,0,0,1,3.089.624c3.116,1.9,6.121,3.992,9.663,6.341-1.193-3.425-2.12-6.286-3.195-9.087a2.653,2.653,0,0,1,.756-3.258c10.522-10.276,10.642-25.333.324-35.653-10.378-10.379-29.507-6.969-35.484,5.915l8.044,8.181-.366.6c.244-.382.5-.754.73-1.148,2.241-3.9,5.985-4.932,9.972-2.879a2.924,2.924,0,0,0,2.387.073c2.99-1.636,5.847-1.69,8.424.646,2.6,2.36,3.026,5.469,2.094,8.773-1.256,4.454-4.457,7.3-7.979,9.8-3.762,2.669-3.84,2.627-7.554-.106-.721-.531-1.426-1.086-2.182-1.664Zm-1.864-18.535a12.92,12.92,0,0,0,2.892,3.413c5.717,4.76,4.261,4.892,10.218-.148,2.346-1.985,4.283-4.449,4.2-7.921a4.612,4.612,0,0,0-2.321-4.33,4.028,4.028,0,0,0-4.916.543c-1.565,1.44-2.728,1.4-4.308-.024a4,4,0,0,0-4.91-.53c-1.65.944-2.326,2.436-2.634,4.451A30.964,30.964,0,0,0,48.454,1015.434Z" transform="translate(25.196 -984.62)"/></g><path d="M322.032,571.368c2.786,4.408,5.8,8.3,10.685,10.7.66-.741,1.337-1.489,2-2.249a1.731,1.731,0,0,1,2.548-.356q5.1,3.263,10.258,6.444a1.691,1.691,0,0,1,.779,2.332c-2.362,6.417-7.747,9.122-14.57,7.295a30.831,30.831,0,0,1-11.891-6.67c-5.436-4.6-9.96-9.923-12.587-16.637a14.659,14.659,0,0,1-.926-9.252c1.086-4.11,4.085-6.218,7.928-7.318a1.947,1.947,0,0,1,1.639.754c2.257,3.548,4.41,7.16,6.6,10.749a1.562,1.562,0,0,1-.272,2.157C323.525,569.979,322.815,570.635,322.032,571.368Zm-6.059-12.445c-3.655,1.326-5.656,4.485-4.931,8.086a25.426,25.426,0,0,0,2.075,6.429,41.079,41.079,0,0,0,15.291,16.437,21.361,21.361,0,0,0,8.3,3.169,7.594,7.594,0,0,0,8.343-5.138l-8.956-5.595a16.011,16.011,0,0,1-1.221,1.6c-1.724,1.769-1.774,1.764-3.988.616-5.417-2.809-8.958-7.417-11.9-12.557a2.329,2.329,0,0,1,.277-1.893,15.28,15.28,0,0,1,1.639-1.736,1.057,1.057,0,0,0,.173-.939C319.41,564.575,317.7,561.781,315.973,558.923Z" transform="translate(-289.62 -532.583)"/></g></g></svg>