<svg xmlns="http://www.w3.org/2000/svg" width="112.273" height="105.449" viewBox="0 0 112.273 105.449">
  <g id="Grupo_3125" data-name="Grupo 3125" transform="translate(-580.196 -286.878)">
    <g id="Grupo_3117" data-name="Grupo 3117" transform="translate(580.196 286.878)">
      <path id="Trazado_3490" data-name="Trazado 3490" d="M581.767,359.841c-3.323,6.509-1.238,15.472,4.967,19.333,5.023,3.127,11.46,2.693,17.239,1.43s11.534-3.256,17.44-2.9c8.593.513,16.486,5.956,25.087,5.585,4.809-.208,9.345-2.233,13.588-4.507,6.947-3.723,13.606-8.321,18.335-14.627s7.33-14.537,5.563-22.218-8.517-14.352-16.391-14.678c-9.052-.375-16.322,6.824-23.612,12.2a68.317,68.317,0,0,1-33.51,13.066C599.832,353.537,588.433,346.779,581.767,359.841Z" transform="translate(-580.196 -278.153)" fill="#e2561e"/>
      <path id="Trazado_3491" data-name="Trazado 3491" d="M646.84,322.357c.587,3.556,2.412,6.763,4,10,3.7,7.544,6.247,16.292,3.718,24.3s-11.826,14.208-19.531,10.861c-4.824-2.1-7.7-7.083-11.971-10.152-6.1-4.379-14.239-4.381-21.246-7.073a24.067,24.067,0,0,1-13-11.294,18.039,18.039,0,0,1,.2-16.9c4.108-7,12.919-9.87,17.878-16.293,4.069-5.271,5.389-12.723,10.807-16.594,5.322-3.8,12.986-2.616,18.385,1.075,4.434,3.033,10.825,9.493,12.436,14.861C650.209,310.775,645.855,316.392,646.84,322.357Z" transform="translate(-578.766 -286.878)" fill="#2b3268"/>
      <path id="Trazado_3492" data-name="Trazado 3492" d="M676.73,321.18c-2.981,4.257-9.7,2.858-14.286,5.307-2.969,1.586-4.775,4.651-6.8,7.337s-4.833,5.294-8.2,5.2a9.39,9.39,0,0,1-5.884-2.834,19.519,19.519,0,0,1-5.065-20.245c3.046-8.773,16.5-20.389,26.445-18.964C670.569,298.076,681.642,314.167,676.73,321.18Z" transform="translate(-568.243 -284.72)" fill="#e9a205"/>
    </g>
    <g id="Grupo_3118" data-name="Grupo 3118" transform="translate(604.355 294.38)">
      <path id="Trazado_3493" data-name="Trazado 3493" d="M663.437,363.859l1.925,1.919,3.033-3.323c.353.3.511.414.648.551q8.583,8.581,17.156,17.171a6.242,6.242,0,1,1-8.648,9c-1.378-1.312-2.7-2.683-4.047-4.029q-6.491-6.492-12.978-12.985c-.236-.236-.457-.485-.794-.843l3.233-3.054L661,366.313c-.593.478-1.312.985-1.932,1.593a1.555,1.555,0,0,0-.257,1.012c-.016,4.455-.007,8.908-.011,13.363-.006,5.244-3.447,8.7-8.671,8.7q-20.7.005-41.4,0c-5.229,0-8.67-3.455-8.67-8.7q0-40.243,0-80.484c0-5.312,3.426-8.749,8.722-8.75q20.65,0,41.3,0c5.3,0,8.715,3.438,8.719,8.755,0,4.421.013,8.84-.013,13.261a1.646,1.646,0,0,0,.687,1.448c8.607,7.037,12.768,16.149,12.315,27.238a31.381,31.381,0,0,1-7.443,19.019C664.07,363.111,663.784,363.447,663.437,363.859ZM639.206,371.4A29.381,29.381,0,1,0,609.853,342,29.4,29.4,0,0,0,639.206,371.4Zm16.306-1.043a32.968,32.968,0,0,1-40.9-6.789,32.618,32.618,0,0,1-3.681-37.9A31.55,31.55,0,0,1,630.7,310.515a32.29,32.29,0,0,1,24.762,3.181v-7.539H603.387v71.7h52.126ZM603.4,302.771h52.071c.6-4.263-2.16-6.544-5.826-6.51-13.584.128-27.172.05-40.758.055a8,8,0,0,0-1.621.1C604.449,297,603.037,299.324,603.4,302.771Zm22.281,78.493h-22.3c-.592,4.339,2.23,6.632,5.85,6.5,5.092-.184,10.2-.046,15.293-.046h1.2A5.075,5.075,0,0,1,625.685,381.264Zm7.443,6.457c5.792,0,11.4,0,17.006,0,3.78,0,5.971-2.679,5.287-6.461H633.179A5.079,5.079,0,0,1,633.128,387.721Zm36.255-11.388c3.541,3.558,7.027,7.132,10.618,10.594a3.475,3.475,0,0,0,2.336.656,2.6,2.6,0,0,0,2.359-1.958,2.844,2.844,0,0,0-.76-3.088q-5.068-5.093-10.16-10.161a1.078,1.078,0,0,0-.265-.164Zm-2.418-2.581,4.016-4.023-2.327-2.374-4.1,4.1ZM629.4,386.081a1.626,1.626,0,1,0-1.592-1.632A1.648,1.648,0,0,0,629.4,386.081Z" transform="translate(-600.062 -293.046)"/>
      <path id="Trazado_3494" data-name="Trazado 3494" d="M637.466,367.916a29.381,29.381,0,1,1,29.387-29.261A29.4,29.4,0,0,1,637.466,367.916Zm14.691-14.708h3.2v-6.5h-6.471v-3.318h-3.3v-3.172h-6.408v3.243H642.4v3.245h-3.2v6.553H642.4v3.15h3.184v-6.474h-3.22v-3.258h6.55v3.315h3.269v3.242h-3.212v3.179h3.184ZM635.8,336.863V320.637H619.6v16.226Zm3.37-16.234v16.208h16.185V320.628ZM635.8,340.239H619.614v16.2H635.8Zm19.57,3.145v-3.151h-3.132v3.151Z" transform="translate(-598.321 -289.565)" fill="#fff"/>
      <path id="Trazado_3495" data-name="Trazado 3495" d="M654.922,368.024v7.5H602.8v-71.7h52.078v7.539a32.29,32.29,0,0,0-24.762-3.182,31.55,31.55,0,0,0-19.769,15.153,32.617,32.617,0,0,0,3.681,37.9A32.968,32.968,0,0,0,654.922,368.024Z" transform="translate(-599.47 -290.716)" fill="#fff"/>
      <path id="Trazado_3496" data-name="Trazado 3496" d="M602.82,302.2c-.367-3.448,1.045-5.767,3.865-6.352a8,8,0,0,1,1.621-.1c13.586,0,27.174.073,40.758-.055,3.667-.034,6.43,2.247,5.827,6.51Zm27.652-3.222a1.623,1.623,0,0,0-3.246.063,1.623,1.623,0,0,0,3.246-.063Z" transform="translate(-599.478 -292.475)" fill="#fff"/>
      <path id="Trazado_3497" data-name="Trazado 3497" d="M625.108,365.585a5.075,5.075,0,0,0,.047,6.457h-1.2c-5.1,0-10.2-.137-15.293.046-3.619.129-6.442-2.163-5.85-6.5Z" transform="translate(-599.485 -277.367)" fill="#fff"/>
      <path id="Trazado_3498" data-name="Trazado 3498" d="M627.251,372.043a5.079,5.079,0,0,0,.051-6.463h22.241c.685,3.782-1.507,6.459-5.287,6.461C638.65,372.045,633.043,372.043,627.251,372.043Z" transform="translate(-594.184 -277.368)" fill="#fff"/>
      <path id="Trazado_3499" data-name="Trazado 3499" d="M657.062,362.263l4.129-4.122a1.078,1.078,0,0,1,.265.164q5.084,5.075,10.16,10.161a2.844,2.844,0,0,1,.76,3.088,2.6,2.6,0,0,1-2.359,1.958,3.475,3.475,0,0,1-2.336-.656C664.089,369.394,660.6,365.821,657.062,362.263Z" transform="translate(-587.741 -278.976)" fill="#fff"/>
      <path id="Trazado_3500" data-name="Trazado 3500" d="M655.5,360.545l-2.412-2.295,4.1-4.1,2.327,2.374Z" transform="translate(-588.599 -279.839)" fill="#fff"/>
      <path id="Trazado_3501" data-name="Trazado 3501" d="M624.468,370.123a1.626,1.626,0,1,1,1.658-1.569A1.64,1.64,0,0,1,624.468,370.123Z" transform="translate(-595.13 -277.089)" fill="#fff"/>
      <path id="Trazado_3502" data-name="Trazado 3502" d="M633.761,334.822h-16.2V318.6h16.2Zm-3.3-3.247v-9.7h-9.627v9.7Z" transform="translate(-596.279 -287.524)"/>
      <path id="Trazado_3503" data-name="Trazado 3503" d="M633.652,318.589h16.185V334.8H633.652Zm12.911,12.987v-9.7h-9.627v9.7Z" transform="translate(-592.801 -287.525)"/>
      <path id="Trazado_3504" data-name="Trazado 3504" d="M633.761,334.714v16.2H617.57v-16.2Zm-12.934,3.237v9.667h9.662v-9.667Z" transform="translate(-596.277 -284.04)"/>
      <path id="Trazado_3505" data-name="Trazado 3505" d="M636.874,341.186v-3.245h-3.219V334.7h6.408v3.172h3.3v3.318l.029-.029h-6.55Z" transform="translate(-592.8 -284.043)"/>
      <path id="Trazado_3506" data-name="Trazado 3506" d="M636.842,340.009v3.258h3.22v6.474h-3.184v-3.15H633.67v-6.553h3.2Z" transform="translate(-592.797 -282.895)"/>
      <path id="Trazado_3507" data-name="Trazado 3507" d="M641.64,340.039h6.471v6.5h-3.2l.028.029v-3.242h-3.269V340.01Z" transform="translate(-591.074 -282.895)"/>
      <path id="Trazado_3508" data-name="Trazado 3508" d="M647.532,337.86H644.4v-3.151h3.132Z" transform="translate(-590.477 -284.041)"/>
      <path id="Trazado_3509" data-name="Trazado 3509" d="M644.895,345.378v3.208h-3.184v-3.179h3.212Z" transform="translate(-591.059 -281.735)"/>
      <path id="Trazado_3510" data-name="Trazado 3510" d="M626.124,298.675a1.623,1.623,0,0,1-3.246.063,1.623,1.623,0,0,1,3.246-.063Z" transform="translate(-595.13 -292.172)"/>
      <path id="Trazado_3511" data-name="Trazado 3511" d="M629.879,330.993h-9.627v-9.7h9.627Zm-6.4-3.313h3.138v-3.141h-3.138Z" transform="translate(-595.697 -286.942)" fill="#fff"/>
      <path id="Trazado_3512" data-name="Trazado 3512" d="M645.979,330.993h-9.627v-9.7h9.627Zm-6.42-3.308h3.168v-3.116h-3.168Z" transform="translate(-592.217 -286.942)" fill="#fff"/>
      <path id="Trazado_3513" data-name="Trazado 3513" d="M620.248,337.376h9.662v9.667h-9.662Zm3.247,3.268v3.151h3.132v-3.151Z" transform="translate(-595.698 -283.465)" fill="#fff"/>
      <path id="Trazado_3514" data-name="Trazado 3514" d="M622.909,327.1v-3.141h3.138V327.1Z" transform="translate(-595.123 -286.364)"/>
      <path id="Trazado_3515" data-name="Trazado 3515" d="M638.989,327.1v-3.116h3.168V327.1Z" transform="translate(-591.647 -286.359)"/>
      <path id="Trazado_3516" data-name="Trazado 3516" d="M622.918,340.063h3.132v3.151h-3.132Z" transform="translate(-595.121 -282.884)"/>
    </g>
  </g>
</svg>
