<svg xmlns="http://www.w3.org/2000/svg" xmlns:xlink="http://www.w3.org/1999/xlink" width="768" height="432.345" viewBox="0 0 768 432.345">
  <defs>
    <clipPath id="clip-path">
      <rect id="Rectángulo_106" data-name="Rectángulo 106" width="627.925" height="432.053" transform="translate(-75 0)" fill="#fff" stroke="#707070" stroke-width="1"/>
    </clipPath>
  </defs>
  <g id="Grupo_2951" data-name="Grupo 2951" transform="translate(-20 -1708)">
    <rect id="Background_STYLE:STYLE3_" data-name="Background [STYLE:STYLE3]" width="768" height="432.053" transform="translate(20 1708.292)" fill="#90b8db"/>
    <g id="Enmascarar_grupo_4" data-name="Enmascarar grupo 4" transform="translate(235.075 1708)" clip-path="url(#clip-path)">
      <g id="Grupo_2949" data-name="Grupo 2949" transform="translate(-32.575 132.931) rotate(-17)" opacity="0.08" style="isolation: isolate">
        <path id="Trazado_1_1_" d="M295.439,138.624c0,86.132-62.934,138.624-140.8,138.624H110.465V386.58H0V0H154.594C232.458,0,295.439,52.445,295.439,138.624Zm-110.465,0a29.564,29.564,0,0,0-27.593-31.42,27.438,27.438,0,0,0-2.788-.047H110.418v62.934h44.177a29.573,29.573,0,0,0,30.427-28.727A17.7,17.7,0,0,0,184.974,138.624Z" fill="#fff"/>
        <path id="Trazado_6_1_" d="M0,110.465V0H126.954V110.465L107.63,242.994H19.277ZM0,331.347a63.5,63.5,0,1,1,63.5,63.5h0A63.165,63.165,0,0,1,0,332.009Z" transform="translate(327.662 0)" fill="#fff"/>
      </g>
      <g id="Grupo_2950" data-name="Grupo 2950" transform="matrix(0.602, -0.799, 0.799, 0.602, 236.585, 461.239)">
        <path id="Trazado_25" data-name="Trazado 25" d="M9.126,135.091C-2.143,117.286-3.362,113.955,7.635,96.655,28.054,64.54,52.213,35.294,78.991,8.249c9.217-9.31,13.4-10.768,24.235-4.227C110.48,8.4,118.646,8.172,125.742,11.8a106.281,106.281,0,0,1,42.7,39.024c5.5,8.858,4.483,13.616-2.469,21.872-7.6,9.03-17.052,15.951-26.443,22.834-27.221,19.95-55.047,38.984-86.079,52.723-5.8,2.569-11.892,3.934-18.233,1.735,9.406-4.664,18.965-9.048,28.188-14.051,19.187-10.408,37.238-22.7,54.992-35.305,12.9-9.162,25.631-18.763,35.982-31.033a14.467,14.467,0,0,0,3.866-9.1c.16-8.1-9.6-21.7-18.383-25.354a54.413,54.413,0,0,0,2.4,5.136c6.437,10.568,4.229,17.1-3.653,25.285A167.807,167.807,0,0,1,119.232,82.2c-22.12,16.873-45,32.6-69.867,45.28C36.629,133.967,24.311,141.883,9.126,135.091Zm.16-14.485c2.024,8.608,8.127,12.519,17.22,9.851,13.812-4.051,26.053-11.58,38.321-18.893a564.968,564.968,0,0,0,47.335-31.948c8.964-6.654,17.928-13.442,24.89-22.466,2.534-3.285,3.261-6.42,1.606-9.947-6-12.79-16.61-21.739-27.055-30.5-3.42-2.869-7.409-6.827-12.934-6.521-3.8-4.917-7.83-3.9-11.738-.278-16.637,15.419-31.2,32.709-45.185,50.5C29.431,76.077,16.8,91.548,8.068,109.692,6.144,113.691,5.416,117.351,9.286,120.607Z" transform="translate(198.247 85.973)" fill="#e76227"/>
        <path id="Trazado_26" data-name="Trazado 26" d="M22.581,160.622C5.549,154.978-.694,149.1.06,132.982c1.032-22.1,5.009-43.716,9.6-65.254,3.6-16.9,8.1-33.561,12.983-50.148C25.816,6.822,31.17.069,43.172.544c2.645.1,5.3-1.279,7.956.007,11.745,2.455,23.471,5.083,34.54,9.8,10.353,4.415,21.005,11.769,18.188,23.277A123.432,123.432,0,0,1,97.7,53.406a457.379,457.379,0,0,1-35.666,66.152C51.607,135.7,43.279,154.2,22.581,160.622Zm-9.608-12.231c3.455,3.2,7.527,5.775,12.135,3.84,4.468-1.875,8.9-4.2,12.089-8.336,5.206-6.749,10.08-13.679,14.71-20.857,18.014-27.93,34.855-56.351,44.981-88.348,1.966-6.211.124-9.5-4.155-12.465C77.029,11.354,59.326,7.31,40.467,7.488c-5.369-.545-8.348,2.043-9.813,7.078-2.565,8.821-5.729,17.485-7.93,26.391-4.1,16.579-8.323,33.17-11.29,49.969C8.7,106.417,5.649,121.977,6.323,137.909,6.532,142.874,8.019,146.629,12.973,148.391Z" transform="translate(117.136 2.178)" fill="#e76227"/>
        <path id="Trazado_27" data-name="Trazado 27" d="M28.114,163.052c-12.2-3.138-17.8-11.043-20.224-23.481C.648,102.425-.272,64.959.056,27.349.225,8.019,4.017,6.245,21.469,2.364A91.959,91.959,0,0,1,50.356.393c6.074,1.3,12.2,2.409,18.205,3.951,9.6,2.463,14.477,8.562,14.211,18.538a208.6,208.6,0,0,1-3.542,31.959,567.271,567.271,0,0,1-22.248,83.276C50.792,156.058,43.236,162.467,28.114,163.052ZM13.529,12.464c-3.234-.577-4.906.666-5.8,3.964A61.713,61.713,0,0,0,5.99,30.454c-.871,23.466.823,46.86,2.732,70.19,1.26,15.4,2.865,30.906,7.692,45.791.939,2.9,1.793,5.68,5.484,5.951,9.08,6.514,17.307,4.806,23.134-4.626,5.1-8.258,8.055-17.417,10.833-26.557,4.782-15.735,9.564-31.517,13.2-47.538,3.159-13.924,4.413-28.268,7.1-42.313C78.783,17.7,76.179,12.4,62.765,9.6,49.005,6.722,34.993,8.047,21.1,8.971,18.547,9.141,15,9.08,13.529,12.464Z" transform="translate(0 0)" fill="#e76227"/>
        <path id="Trazado_28" data-name="Trazado 28" d="M0,160.925c20.7-6.418,29.026-24.917,39.455-41.064A457.3,457.3,0,0,0,75.121,53.709a123.431,123.431,0,0,0,6.154-19.776c2.818-11.509-7.835-18.862-18.188-23.277-11.069-4.719-22.8-7.347-34.54-9.8a48.87,48.87,0,0,1,19.053.17C60.955,4.488,74.387,7.591,86.561,14.615c8.948,5.162,11.632,14.091,8.405,23.966-5.734,17.55-13.973,33.859-22.74,49.947-11.45,21.014-23.354,41.739-37.908,60.87-4.528,5.952-10.376,10.266-15.435,15.509C12.189,165.468,5.209,167.4,0,160.925Z" transform="translate(139.717 1.875)" fill="#ebc209"/>
        <path id="Trazado_29" data-name="Trazado 29" d="M0,99.949c15.185,6.792,27.5-1.124,40.239-7.614,24.872-12.675,47.747-28.406,69.867-45.28a167.79,167.79,0,0,0,19.38-16.635c7.882-8.189,10.089-14.717,3.653-25.285A54.559,54.559,0,0,1,130.742,0c8.779,3.65,18.543,17.256,18.383,25.354a14.472,14.472,0,0,1-3.866,9.1c-10.352,12.269-23.082,21.871-35.982,31.033-17.754,12.609-35.8,24.9-54.992,35.305-9.223,5-18.782,9.387-28.188,14.05-2.479.048-4.955.129-7.433.137C7.238,115.018,3.08,111.662,0,99.949Z" transform="translate(207.373 121.115)" fill="#ebc209"/>
        <path id="Trazado_30" data-name="Trazado 30" d="M26.1.333C36.53-1.029,46.018,1.853,54.41,7.7c3.429,2.389,3.5,7.088,3.555,11.23.213,15.2-2.355,30.062-5.334,44.889a549.716,549.716,0,0,1-21.816,78.594c-2.713,7.51-5.6,15.117-11.912,20.772-5.662,5.077-11.527,7.873-18.9,3.779,10.126-6.717,15-17.168,18.69-27.98,7.079-20.716,12.749-41.861,17.8-63.18A420.03,420.03,0,0,0,44.56,30.14C46.764,12.218,43.874,7.3,27.431.549A5.814,5.814,0,0,0,26.1.333Z" transform="translate(50.344 1.305)" fill="#f35f25"/>
        <path id="Trazado_31" data-name="Trazado 31" d="M0,163.885c5.06-5.243,10.908-9.557,15.436-15.509,14.554-19.131,26.459-39.856,37.909-60.87,8.767-16.088,17.006-32.4,22.74-49.947,3.227-9.875.543-18.805-8.4-23.967C55.505,6.568,42.073,3.464,28.719,0,47.643.574,65.588,4.916,81.86,14.771c10.18,6.165,12.259,12.466,7.123,25.653A460.523,460.523,0,0,1,24.427,154.643c-5.246,6.812-12.6,11.556-22.1,10.518C1.517,165.071.775,164.325,0,163.885Z" transform="translate(158.599 2.898)" fill="#e76227"/>
        <path id="Trazado_32" data-name="Trazado 32" d="M48.332,1.543a5.822,5.822,0,0,1,1.329.216C66.1,8.512,68.994,13.428,66.79,31.35a420.03,420.03,0,0,1-8.067,45.668C53.668,98.336,48,119.481,40.92,140.2c-3.694,10.813-8.564,21.263-18.69,27.98-8.371,2.349-15.577-.259-22.23-5.22,15.122-.586,22.678-6.994,28.869-24.935A567.3,567.3,0,0,0,51.117,54.746a208.6,208.6,0,0,0,3.542-31.959c.266-9.976-4.608-16.074-14.211-18.538C34.437,2.707,28.315,1.6,22.242.3,30.963.2,39.729-.813,48.332,1.543Z" transform="translate(28.114 0.095)" fill="#ebc209"/>
        <path id="Trazado_33" data-name="Trazado 33" d="M89.384.017C94.909-.29,98.9,3.668,102.318,6.537c10.445,8.76,21.051,17.709,27.056,30.5,1.655,3.527.928,6.662-1.607,9.947C120.8,56.009,111.84,62.8,102.877,69.45A565.03,565.03,0,0,1,55.542,101.4c-12.268,7.313-24.509,14.843-38.321,18.893C8.127,122.96,2.024,119.049,0,110.439c2.284-3.867,4.5-7.779,6.861-11.594C21.2,75.731,38.347,54.73,56.093,34.223,66.508,22.189,76.51,9.687,89.384.017Z" transform="translate(207.533 96.139)" fill="#ebc209"/>
        <path id="Trazado_34" data-name="Trazado 34" d="M27.511.006C46.368-.172,64.072,3.872,79.776,14.743,84.054,17.7,85.9,21,83.931,27.207,73.8,59.2,56.964,87.626,38.949,115.556c-4.63,7.178-9.5,14.109-14.71,20.857-3.191,4.135-7.621,6.461-12.089,8.336-4.607,1.934-8.68-.643-12.135-3.84C-.28,119.18,3.689,98,7.727,76.764,12.677,50.732,18.934,25.082,27.511.006Z" transform="translate(130.093 9.66)" fill="#ebc209"/>
        <path id="Trazado_35" data-name="Trazado 35" d="M1.7,4.616C3.176,1.232,6.72,1.293,9.277,1.123c13.889-.924,27.9-2.249,41.662.625,13.413,2.8,16.018,8.1,13.4,21.755-2.688,14.045-3.942,28.389-7.1,42.313-3.637,16.021-8.42,31.8-13.2,47.538-2.778,9.14-5.731,18.3-10.833,26.557-5.826,9.432-14.054,11.139-23.134,4.624C2.927,111.089.344,77.185.273,43.072.248,30.251-.9,17.352,1.7,4.616Z" transform="translate(11.827 7.848)" fill="#ebc209"/>
      </g>
    </g>
  </g>
</svg>
