<svg xmlns="http://www.w3.org/2000/svg" xmlns:xlink="http://www.w3.org/1999/xlink" width="393" height="405" viewBox="0 0 393 405"><defs><style>.a,.c{fill:#90b8db;}.a{stroke:#707070;}.b{clip-path:url(#a);}.d{opacity:0.08;isolation:isolate;}.e{fill:#fff;}.f{fill:#e76227;}.g{fill:#ebc209;}.h{fill:#f35f25;}</style><clipPath id="a"><rect class="a" width="393" height="405" transform="translate(0 5745)"/></clipPath></defs><g class="b" transform="translate(0 -5745)"><g transform="translate(-6 9.149)"><rect class="c" width="393" height="405.196" transform="translate(6 5735.655)"/><g class="d" transform="matrix(0.966, -0.259, 0.259, 0.966, -87.542, 5858.555)"><path class="e" d="M227.235,106.622c0,66.248-48.405,106.622-108.294,106.622H84.963v84.091H0V0H118.905C178.794,0,227.235,40.338,227.235,106.622Zm-84.963,0a22.739,22.739,0,0,0-21.223-24.166,21.1,21.1,0,0,0-2.144-.036H84.927v48.405h33.978a22.746,22.746,0,0,0,23.4-22.095A13.613,13.613,0,0,0,142.272,106.622Z"/><path class="e" d="M0,84.963V0H97.646V84.963L82.783,186.9H14.827Zm0,169.89a48.841,48.841,0,1,1,48.841,48.841h0A48.583,48.583,0,0,1,0,255.362Z" transform="translate(252.019 0)"/></g></g><g transform="matrix(0.602, -0.799, 0.799, 0.602, 170.734, 6168.831)"><path class="f" d="M5.815,86.078c-7.18-11.345-7.957-13.468-.95-24.491A338.113,338.113,0,0,1,50.332,5.256C56.2-.676,58.873-1.605,65.774,2.563,70.4,5.355,75.6,5.207,80.121,7.518a67.721,67.721,0,0,1,27.21,24.865c3.506,5.644,2.857,8.676-1.573,13.937-4.845,5.754-10.865,10.164-16.849,14.549C71.564,73.581,53.834,85.709,34.061,94.463c-3.7,1.637-7.578,2.507-11.618,1.106C28.436,92.6,34.527,89.8,40.4,86.616c12.226-6.632,23.728-14.462,35.04-22.5,8.22-5.838,16.332-11.956,22.927-19.774a9.218,9.218,0,0,0,2.463-5.8c.1-5.16-6.119-13.829-11.713-16.155a34.672,34.672,0,0,0,1.528,3.272c4.1,6.734,2.694,10.893-2.327,16.111a106.924,106.924,0,0,1-12.349,10.6C61.878,63.127,47.3,73.15,31.455,81.227,23.339,85.362,15.49,90.406,5.815,86.078Zm.1-9.229c1.29,5.485,5.178,7.977,10.973,6.277,8.8-2.581,16.6-7.379,24.418-12.039A359.99,359.99,0,0,0,71.468,50.73c5.712-4.24,11.423-8.565,15.86-14.315,1.615-2.093,2.078-4.091,1.023-6.338-3.826-8.15-10.584-13.852-17.239-19.434-2.179-1.828-4.721-4.35-8.241-4.155C60.451,3.355,57.882,4,55.391,6.311,44.79,16.136,35.508,27.153,26.6,38.489c-7.847,9.987-15.9,19.844-21.46,31.406C3.915,72.442,3.451,74.775,5.917,76.849Z" transform="translate(126.32 54.781)"/><path class="f" d="M14.388,102.346C3.536,98.75-.442,95,.039,84.734.7,70.651,3.23,56.879,6.157,43.156c2.3-10.767,5.159-21.385,8.273-31.954C16.45,4.347,19.861.044,27.509.347c1.686.067,3.377-.815,5.069,0C40.062,1.915,47.534,3.59,54.587,6.6c6.6,2.813,13.384,7.5,11.589,14.832a78.649,78.649,0,0,1-3.921,12.6A291.436,291.436,0,0,1,39.528,76.181C32.883,86.469,27.577,98.257,14.388,102.346ZM8.266,94.553c2.2,2.037,4.8,3.679,7.732,2.447,2.847-1.195,5.67-2.677,7.7-5.311,3.317-4.3,6.423-8.716,9.373-13.29C44.553,60.6,55.284,42.492,61.736,22.1c1.252-3.958.079-6.056-2.647-7.942-10.006-6.927-21.287-9.5-33.3-9.39-3.421-.347-5.319,1.3-6.253,4.51C17.9,14.9,15.882,20.423,14.48,26.1c-2.611,10.564-5.3,21.136-7.194,31.84C5.542,67.807,3.6,77.722,4.029,87.874,4.162,91.037,5.11,93.43,8.266,94.553Z" transform="translate(74.637 1.388)"/><path class="f" d="M17.914,103.895c-7.776-2-11.341-7.037-12.887-14.962C.413,65.264-.173,41.391.036,17.426.144,5.11,2.56,3.979,13.68,1.506A58.6,58.6,0,0,1,32.086.25c3.87.83,7.77,1.535,11.6,2.518,6.119,1.57,9.224,5.456,9.055,11.812a132.917,132.917,0,0,1-2.257,20.364A361.457,361.457,0,0,1,36.309,88.006C32.364,99.438,27.549,103.521,17.914,103.895ZM8.62,7.942c-2.06-.367-3.126.424-3.694,2.526A39.323,39.323,0,0,0,3.816,19.4c-.555,14.952.525,29.859,1.741,44.724.8,9.815,1.825,19.693,4.9,29.177.6,1.845,1.143,3.619,3.495,3.792,5.786,4.151,11.028,3.062,14.74-2.947,3.251-5.262,5.133-11.1,6.9-16.922,3.047-10.026,6.094-20.082,8.412-30.291,2.013-8.872,2.812-18.012,4.525-26.961,1.666-8.7.007-12.077-8.54-13.862-8.768-1.832-17.7-.987-26.546-.4C11.818,5.824,9.56,5.785,8.62,7.942Z" transform="translate(0 0)"/><path class="g" d="M0,102.539C13.189,98.45,18.495,86.662,25.14,76.374A291.386,291.386,0,0,0,47.866,34.223a78.649,78.649,0,0,0,3.921-12.6C53.583,14.289,46.8,9.6,40.2,6.79,33.146,3.782,25.673,2.108,18.19.544A31.139,31.139,0,0,1,30.33.652C38.84,2.859,47.4,4.837,55.156,9.313c5.7,3.289,7.412,8.979,5.356,15.271-3.654,11.183-8.9,21.575-14.49,31.826-7.3,13.39-14.881,26.6-24.155,38.785-2.885,3.793-6.611,6.541-9.835,9.882C7.767,105.434,3.319,106.664,0,102.539Z" transform="translate(89.026 1.195)"/><path class="g" d="M0,63.686c9.675,4.328,17.524-.717,25.64-4.852,15.848-8.076,30.424-18.1,44.519-28.852a106.915,106.915,0,0,0,12.349-10.6c5.022-5.218,6.429-9.377,2.328-16.111A34.763,34.763,0,0,1,83.307,0C88.9,2.326,95.122,11,95.02,16.155a9.221,9.221,0,0,1-2.463,5.8c-6.6,7.818-14.708,13.936-22.927,19.773-11.313,8.034-22.814,15.864-35.04,22.5-5.877,3.188-11.968,5.981-17.961,8.953-1.579.03-3.158.082-4.736.087C4.612,73.288,1.963,71.15,0,63.686Z" transform="translate(132.135 77.173)"/><path class="h" d="M16.632.212a25.151,25.151,0,0,1,18.038,4.7c2.185,1.522,2.229,4.516,2.265,7.156.136,9.687-1.5,19.155-3.4,28.6a350.271,350.271,0,0,1-13.9,50.079c-1.729,4.785-3.571,9.632-7.59,13.236C8.438,107.217,4.7,109,0,106.389c6.452-4.28,9.555-10.939,11.909-17.829,4.51-13.2,8.123-26.673,11.344-40.257a267.637,267.637,0,0,0,5.14-29.1C29.8,7.785,27.956,4.653,17.479.35A3.7,3.7,0,0,0,16.632.212Z" transform="translate(32.079 0.831)"/><path class="f" d="M0,104.425c3.224-3.341,6.95-6.089,9.835-9.882,9.274-12.19,16.859-25.4,24.155-38.785,5.586-10.251,10.836-20.643,14.49-31.826,2.056-6.292.346-11.982-5.355-15.271C35.367,4.185,26.808,2.207,18.3,0,30.357.366,41.792,3.132,52.16,9.412c6.487,3.928,7.811,7.943,4.539,16.346A293.438,293.438,0,0,1,15.564,98.536c-3.343,4.341-8.026,7.363-14.079,6.7C.967,105.181.494,104.706,0,104.425Z" transform="translate(101.057 1.847)"/><path class="g" d="M30.8.983a3.71,3.71,0,0,1,.847.137c10.477,4.3,12.318,7.435,10.914,18.855a267.638,267.638,0,0,1-5.14,29.1C34.2,62.658,30.584,76.132,26.074,89.332c-2.354,6.89-5.457,13.549-11.909,17.829C8.831,108.657,4.24,107,0,103.834c9.636-.373,14.45-4.457,18.395-15.888A361.475,361.475,0,0,0,32.571,34.884,132.915,132.915,0,0,0,34.828,14.52C35,8.164,31.891,4.277,25.773,2.708c-3.83-.983-7.731-1.688-11.6-2.518C19.729.13,25.315-.518,30.8.983Z" transform="translate(17.914 0.06)"/><path class="g" d="M56.954.011c3.521-.2,6.062,2.327,8.241,4.155C71.851,9.747,78.609,15.449,82.435,23.6c1.054,2.247.591,4.245-1.024,6.338-4.436,5.75-10.148,10.076-15.86,14.315A360.028,360.028,0,0,1,35.39,64.61c-7.817,4.66-15.617,9.458-24.417,12.039C5.178,78.348,1.29,75.856,0,70.37c1.456-2.464,2.865-4.957,4.372-7.388,9.137-14.728,20.062-28.11,31.369-41.176C42.378,14.138,48.751,6.173,56.954.011Z" transform="translate(132.237 61.258)"/><path class="g" d="M17.529,0c12.016-.113,23.3,2.463,33.3,9.39,2.726,1.887,3.9,3.985,2.647,7.942C47.027,37.724,36.3,55.834,24.818,73.63c-2.95,4.574-6.055,8.99-9.373,13.29-2.033,2.635-4.856,4.117-7.7,5.311-2.936,1.233-5.531-.41-7.732-2.447C-.178,75.94,2.351,62.443,4.924,48.913A356.283,356.283,0,0,1,17.529,0Z" transform="translate(82.894 6.155)"/><path class="g" d="M1.084,2.941C2.024.785,4.282.824,5.911.716c8.85-.589,17.779-1.433,26.546.4C41,2.9,42.663,6.275,41,14.976c-1.713,8.949-2.512,18.089-4.525,26.961C34.155,52.146,31.107,62.2,28.06,72.228c-1.77,5.824-3.652,11.66-6.9,16.922-3.712,6.01-8.955,7.1-14.74,2.947C1.865,70.784.219,49.181.174,27.445.158,19.276-.572,11.057,1.084,2.941Z" transform="translate(7.536 5.001)"/></g></g></svg>