<svg xmlns="http://www.w3.org/2000/svg" xmlns:xlink="http://www.w3.org/1999/xlink" width="1366" height="504.34" viewBox="0 0 1366 504.34"><defs><style>.a,.e{fill:#fff;}.a{stroke:#707070;}.b{fill:#e7561e;}.c{clip-path:url(#a);}.d{opacity:0.08;isolation:isolate;}.f{fill:#e76227;}.g{fill:#ebc209;}.h{fill:#f35f25;}</style><clipPath id="a"><rect class="a" width="714" height="504" transform="translate(652 2054)"/></clipPath></defs><g transform="translate(0 -5157.66)"><rect class="b" width="1366" height="504" transform="translate(0 5158)"/><g class="c" transform="translate(0 3103.66)"><g class="d" transform="translate(683 2209.067) rotate(-17)"><path class="e" d="M344.637,161.709c0,100.475-73.414,161.709-164.244,161.709H128.86V450.955H0V0H180.338C271.168,0,344.637,61.178,344.637,161.709Zm-128.86,0a34.487,34.487,0,0,0-32.187-36.652,32.007,32.007,0,0,0-3.252-.055H128.8v73.414h51.533a34.5,34.5,0,0,0,35.494-33.51A20.645,20.645,0,0,0,215.777,161.709Z"/><path class="e" d="M69.35,128.86V0h148.1V128.86L194.9,283.459H91.837Zm0,257.665A74.075,74.075,0,1,1,143.425,460.6h0A73.683,73.683,0,0,1,69.35,387.3Z" transform="translate(312.876)"/></g><g transform="matrix(0.602, -0.799, 0.799, 0.602, 996.982, 2592.046)"><path class="f" d="M10.645,157.587C-2.5,136.817-3.922,132.931,8.906,112.75c23.82-37.463,52-71.579,83.238-103.128C102.9-1.238,107.782-2.939,120.415,4.691c8.463,5.113,17.988,4.842,26.266,9.072A123.979,123.979,0,0,1,196.5,59.285c6.419,10.333,5.23,15.884-2.881,25.514-8.87,10.534-19.892,18.607-30.846,26.636-31.754,23.272-64.213,45.476-100.413,61.5-6.771,3-13.873,4.589-21.269,2.024,10.972-5.44,22.123-10.554,32.882-16.39,22.383-12.142,43.439-26.476,64.15-41.185,15.049-10.687,29.9-21.888,41.974-36.2,2.7-3.192,4.432-6.66,4.51-10.616.187-9.447-11.2-25.318-21.444-29.576a63.474,63.474,0,0,0,2.8,5.991c7.508,12.328,4.933,19.943-4.261,29.5-6.858,7.127-14.716,13.385-22.608,19.4-25.8,19.683-52.488,38.034-81.5,52.82C42.728,156.276,28.359,165.51,10.645,157.587Zm.187-16.9c2.361,10.042,9.48,14.6,20.088,11.491,16.112-4.725,30.391-13.509,44.7-22.04A659.049,659.049,0,0,0,130.84,92.874c10.456-7.762,20.913-15.68,29.035-26.207,2.956-3.833,3.8-7.49,1.874-11.6-7-14.92-19.376-25.359-31.56-35.578-3.989-3.347-8.643-7.964-15.088-7.607-4.43-5.736-9.134-4.548-13.693-.324C82,29.541,65.006,49.71,48.7,70.463c-14.367,18.283-29.106,36.33-39.287,57.5C7.167,132.624,6.317,136.893,10.832,140.691Z" transform="translate(231.26 100.289)"/><path class="f" d="M26.341,187.37C6.473,180.785-.809,173.926.071,155.127c1.2-25.783,5.844-51,11.2-76.12,4.2-19.712,9.445-39.15,15.145-58.5C30.115,7.958,36.361.081,50.362.634c3.086.122,6.182-1.492,9.281.008,13.7,2.864,27.38,5.929,40.292,11.434,12.076,5.151,24.5,13.729,21.216,27.154-1.913,7.815-3.992,15.718-7.179,23.07a533.545,533.545,0,0,1-41.606,77.168C60.2,158.3,50.487,179.883,26.341,187.37ZM15.133,173.1c4.03,3.73,8.78,6.736,14.156,4.48,5.212-2.187,10.38-4.9,14.1-9.724,6.073-7.872,11.759-15.957,17.16-24.331,21.014-32.581,40.659-65.735,52.471-103.061,2.293-7.246.144-11.086-4.847-14.54C89.857,13.244,69.205,8.527,47.206,8.735c-6.263-.636-9.738,2.383-11.447,8.257-2.992,10.29-6.684,20.4-9.25,30.785-4.779,19.34-9.709,38.694-13.17,58.29-3.192,18.071-6.749,36.222-5.963,54.807C7.62,166.666,9.354,171.046,15.133,173.1Z" transform="translate(136.642 2.541)"/><path class="f" d="M32.8,190.2C18.56,186.545,12.034,177.323,9.2,162.814.756,119.482-.317,75.776.066,31.9.263,9.354,4.686,7.284,25.044,2.757a107.272,107.272,0,0,1,33.7-2.3c7.085,1.519,14.226,2.81,21.237,4.609,11.2,2.874,16.887,9.988,16.577,21.625a243.336,243.336,0,0,1-4.131,37.281,661.736,661.736,0,0,1-25.953,97.144C59.25,182.046,50.436,189.521,32.8,190.2ZM15.781,14.54c-3.772-.673-5.723.777-6.763,4.624A71.99,71.99,0,0,0,6.987,35.525C5.971,62.9,7.947,90.189,10.174,117.4c1.47,17.97,3.342,36.053,8.973,53.417,1.1,3.378,2.092,6.625,6.4,6.942,10.592,7.6,20.189,5.606,26.986-5.4,5.951-9.633,9.4-20.318,12.637-30.98,5.578-18.356,11.157-36.765,15.4-55.455,3.685-16.243,5.148-32.975,8.284-49.359,3.051-15.93.013-22.111-15.634-25.378-16.051-3.353-32.4-1.807-48.6-.729C21.635,10.663,17.5,10.592,15.781,14.54Z" transform="translate(0 0)"/><path class="g" d="M0,187.723c24.146-7.486,33.859-29.067,46.025-47.9A533.453,533.453,0,0,0,87.631,62.653C90.817,55.3,92.9,47.4,94.81,39.584c3.287-13.425-9.139-22-21.216-27.154C60.681,6.925,47,3.86,33.3,1a57.008,57.008,0,0,1,22.226.2c15.579,4.041,31.247,7.662,45.449,15.855,10.438,6.021,13.57,16.438,9.8,27.957-6.689,20.473-16.3,39.5-26.527,58.265C70.9,127.784,57.01,151.961,40.033,174.277c-5.282,6.944-12.1,11.976-18.006,18.091C14.219,193.022,6.076,195.274,0,187.723Z" transform="translate(162.983 2.187)"/><path class="g" d="M0,116.593c17.713,7.923,32.083-1.312,46.94-8.882,29.014-14.786,55.7-33.137,81.5-52.82,7.892-6.019,15.749-12.278,22.607-19.4,9.194-9.553,11.77-17.167,4.261-29.5A63.643,63.643,0,0,1,152.513,0c10.241,4.258,21.631,20.13,21.444,29.576-.078,3.956-1.815,7.425-4.51,10.616-12.076,14.313-26.926,25.513-41.974,36.2-20.71,14.708-41.767,29.043-64.15,41.185-10.759,5.836-21.91,10.95-32.882,16.39-2.891.055-5.781.15-8.671.16C8.443,134.172,3.593,130.257,0,116.593Z" transform="translate(241.906 141.284)"/><path class="h" d="M30.448.389C42.613-1.2,53.681,2.161,63.471,8.986c4,2.787,4.081,8.268,4.147,13.1.249,17.734-2.747,35.069-6.222,52.364a641.257,641.257,0,0,1-25.449,91.682c-3.165,8.76-6.537,17.634-13.9,24.231C15.448,196.286,8.6,199.547,0,194.772c11.812-7.836,17.493-20.027,21.8-32.64,8.257-24.166,14.872-48.832,20.767-73.7A489.976,489.976,0,0,0,51.98,35.159C54.551,14.252,51.18,8.518,32,.64A6.782,6.782,0,0,0,30.448.389Z" transform="translate(58.728 1.522)"/><path class="f" d="M0,191.175c5.9-6.116,12.724-11.148,18.006-18.091,16.977-22.316,30.865-46.494,44.221-71.006C72.454,83.311,82.066,64.286,88.754,43.813c3.765-11.52.633-21.937-9.8-27.958C64.748,7.662,49.079,4.041,33.5,0,55.576.669,76.51,5.734,95.492,17.23c11.876,7.192,14.3,14.542,8.309,29.924a537.211,537.211,0,0,1-75.307,133.24c-6.119,7.947-14.694,13.48-25.776,12.27C1.769,192.56.9,191.69,0,191.175Z" transform="translate(185.01 3.381)"/><path class="g" d="M56.38,1.8a6.792,6.792,0,0,1,1.551.252C77.112,9.929,80.483,15.664,77.912,36.57A489.974,489.974,0,0,1,68.5,89.843c-5.9,24.869-12.51,49.535-20.767,73.7-4.309,12.613-9.99,24.8-21.8,32.64-9.765,2.741-18.171-.3-25.932-6.089,17.64-.684,26.454-8.159,33.676-29.087A661.769,661.769,0,0,0,59.629,63.863,243.334,243.334,0,0,0,63.76,26.582c.31-11.637-5.375-18.751-16.577-21.625-7.011-1.8-14.153-3.09-21.237-4.609C36.119.239,46.345-.948,56.38,1.8Z" transform="translate(32.796 0.11)"/><path class="g" d="M104.268.02c6.445-.358,11.1,4.26,15.088,7.606,12.185,10.219,24.557,20.658,31.561,35.578,1.93,4.114,1.082,7.771-1.874,11.6-8.122,10.528-18.578,18.446-29.035,26.207a659.121,659.121,0,0,1-55.217,37.268c-14.311,8.531-28.591,17.314-44.7,22.04C9.48,143.436,2.361,138.874,0,128.83c2.665-4.511,5.244-9.075,8-13.525C24.731,88.342,44.733,63.843,65.433,39.922,77.583,25.884,89.251,11.3,104.268.02Z" transform="translate(242.093 112.148)"/><path class="g" d="M32.092.007c22-.207,42.65,4.51,60.969,17.191,4.991,3.454,7.14,7.295,4.847,14.54C86.095,69.063,66.45,102.217,45.436,134.8c-5.4,8.374-11.086,16.458-17.159,24.331-3.722,4.823-8.89,7.537-14.1,9.724C8.8,171.11,4.049,168.1.018,164.373c-.345-25.347,4.285-50.056,9-74.826C14.788,59.18,22.087,29.258,32.092.007Z" transform="translate(151.757 11.269)"/><path class="g" d="M1.985,5.385c1.72-3.948,5.854-3.877,8.836-4.075,16.2-1.078,32.548-2.624,48.6.729,15.647,3.268,18.685,9.448,15.634,25.378-3.136,16.384-4.6,33.116-8.284,49.359-4.242,18.689-9.822,37.1-15.4,55.455-3.24,10.662-6.686,21.346-12.637,30.98-6.8,11-16.394,12.994-26.986,5.394C3.414,129.588.4,90.038.319,50.244.289,35.289-1.048,20.242,1.985,5.385Z" transform="translate(13.797 9.155)"/></g></g></g></svg>