<svg xmlns="http://www.w3.org/2000/svg" width="122.707" height="131.051" viewBox="0 0 122.707 131.051">
  <g id="Grupo_3135" data-name="Grupo 3135" transform="translate(-1564.646 -729.449)">
    <g id="Grupo_3123" data-name="Grupo 3123" transform="translate(1126.658 447.711)">
      <g id="Grupo_3120" data-name="Grupo 3120" transform="translate(437.988 281.738)">
        <path id="Trazado_3517" data-name="Trazado 3517" d="M452.483,329.649c1.83-4.283,2.07-9.048,2.589-13.678,1.209-10.791,4.506-22.1,12.83-29.071s22.76-7.272,28.834,1.729c3.8,5.637,3.47,13.068,5.995,19.381,3.6,9.01,12.475,14.667,18.243,22.47,4.513,6.1,7.1,13.789,6.32,21.339s-5.2,14.826-11.961,18.28c-9.339,4.771-20.938,1.782-30.8,5.338-8.1,2.919-14.713,10.126-23.307,10.58-8.441.446-15.972-6.169-19.291-13.943-2.727-6.385-5.2-17.867-3.232-24.837C440.766,339.932,449.412,336.835,452.483,329.649Z" transform="translate(-437.988 -281.731)" fill="#e2561e"/>
        <path id="Trazado_3518" data-name="Trazado 3518" d="M505.809,282.141c6.38,2.1,7.156,10.942,11.9,15.7,3.071,3.083,7.537,4.174,11.618,5.682s8.354,4.008,9.493,8.206c.754,2.776-.051,5.753-1.312,8.339a25.231,25.231,0,0,1-23.166,13.819c-11.992-.5-31.386-12.819-33.331-25.653C479.515,298.385,495.3,278.68,505.809,282.141Z" transform="translate(-425.599 -281.738)" fill="#e9a205"/>
        <path id="Trazado_3519" data-name="Trazado 3519" d="M494.6,332.4c4.182-2.054,7.47-5.508,10.884-8.679,7.956-7.39,17.83-13.808,28.688-13.666s21.995,9.335,20.727,20.12c-.794,6.753-5.894,12.169-8.1,18.6-3.147,9.179-.111,19.255-.829,28.931-.562,7.571-3.609,15.086-9.13,20.3s-13.612,7.844-20.99,6.053c-10.191-2.475-17.033-12.308-26.83-16.048-8.04-3.07-17.756-1.923-24.567-7.184-6.688-5.167-8.082-15.1-5.527-23.152,2.1-6.62,7.71-16.938,13.752-20.934C479.011,332.55,487.585,335.843,494.6,332.4Z" transform="translate(-432.29 -273.566)" fill="#2b3268"/>
      </g>
      <g id="Grupo_3121" data-name="Grupo 3121" transform="translate(450.192 299.573)">
        <circle id="Elipse_21" data-name="Elipse 21" cx="48.917" cy="48.917" r="48.917" fill="#fff" stroke="#000" stroke-miterlimit="10" stroke-width="2.5"/>
        <rect id="Rect치ngulo_126" data-name="Rect치ngulo 126" width="65.416" height="65.416" transform="translate(16.898 16.2)" fill="none"/>
        <rect id="Rect치ngulo_127" data-name="Rect치ngulo 127" width="66.934" height="66.934" transform="translate(16.22 15.268)" fill="none"/>
      </g>
      <g id="Grupo_3122" data-name="Grupo 3122" transform="translate(466.138 323.109)">
        <path id="Trazado_3520" data-name="Trazado 3520" d="M492.8,313.851q13.073,0,26.145,0c4.451.009,6.414,2,6.43,6.447.01,2.827-.112,5.66.041,8.479.106,1.921-.789,2.686-2.47,3.028-3.894.8-5.856,3.116-5.742,6.725a6.678,6.678,0,0,0,6.157,6.539c1.5.184,2.049.807,2.03,2.25-.044,3.3.046,6.6-.036,9.894a5.222,5.222,0,0,1-5.482,5.468q-27.2.062-54.412.006a5.234,5.234,0,0,1-5.585-5.365c-.1-3.374-.009-6.753-.036-10.129-.01-1.331.528-1.93,1.91-2.118,3.852-.523,6.223-3.126,6.274-6.668.05-3.58-2.009-5.883-5.952-6.568a2.367,2.367,0,0,1-2.242-2.728c.064-3.139-.017-6.282.028-9.423.052-3.691,2.143-5.812,5.853-5.829C474.745,313.824,483.775,313.852,492.8,313.851Z" transform="translate(-459.832 -313.843)" fill="#010101"/>
        <path id="Trazado_3521" data-name="Trazado 3521" d="M520.4,316.718c1.308,3.576.488,7.289.669,10.935.054,1.072-1.039.975-1.7,1.267-6.746,3-8.392,10.965-3.258,15.759a6.672,6.672,0,0,0,3.207,1.869c1.487.272,1.875.968,1.8,2.385-.115,2.193-.012,4.4-.036,6.6-.035,3.07-.684,3.735-3.787,3.737q-20.977.023-41.951.006c-3.222,0-6.442.032-9.662-.01-2.657-.035-3.352-.736-3.4-3.394-.045-2.434.039-4.872-.032-7.305-.034-1.139.356-1.53,1.479-1.89a9.245,9.245,0,0,0,6.515-8.612,9.512,9.512,0,0,0-6.144-9.149,2.379,2.379,0,0,1-1.861-2.853c.129-2.035.064-4.084.021-6.126a3.889,3.889,0,0,1,1.2-3.17c.659-.8,1.579-.588,2.415-.588q26.037-.021,52.074,0C518.8,316.174,519.71,315.994,520.4,316.718Z" transform="translate(-459.139 -313.176)" fill="#fefefe"/>
        <path id="Trazado_3522" data-name="Trazado 3522" d="M520.127,316.82c-9.174-.443-18.353-.128-27.529-.188-8.709-.058-17.419-.021-26.129,0-1.093,0-2.184.152-3.277.235-.024-1.251.9-1.052,1.651-1.052q26.787-.008,53.576,0C519.166,315.814,520.087,315.588,520.127,316.82Z" transform="translate(-458.863 -313.278)" fill="#262626"/>
        <ellipse id="Elipse_22" data-name="Elipse 22" cx="0.16" cy="6.241" rx="0.16" ry="6.241" transform="translate(62.814 3.563)" fill="#040404"/>
        <path id="Trazado_3523" data-name="Trazado 3523" d="M508.554,349.44V340.8l.236-.005v8.741Z" transform="translate(-445.769 -306.064)" fill="#040404"/>
        <path id="Trazado_3524" data-name="Trazado 3524" d="M500.393,339.773c-.04,3.758-2.42,6.562-5.55,6.535s-5.531-2.872-5.557-6.6c-.027-3.826,2.6-6.85,5.9-6.777C498.193,333,500.433,335.942,500.393,339.773Z" transform="translate(-451.331 -308.332)" fill="#010101"/>
        <path id="Trazado_3525" data-name="Trazado 3525" d="M500,323.474a3.2,3.2,0,0,1-.813,1.876q-7.481,11.225-14.953,22.455c-.608.914-1.2,2.146-2.518,1.357-1.4-.843-.441-1.894.152-2.789q7.4-11.149,14.83-22.282a4.3,4.3,0,0,1,1.412-1.541C499.128,322.047,499.954,322.333,500,323.474Z" transform="translate(-453.725 -311.398)" fill="#010101"/>
        <path id="Trazado_3526" data-name="Trazado 3526" d="M489.78,329.141a13.921,13.921,0,0,1-.214,1.862c-.76,3.075-3.21,5.2-5.7,4.991-2.418-.2-4.581-2.715-4.933-5.835a7.737,7.737,0,0,1,.331-3.242c1-3.178,2.941-4.807,5.648-4.572,2.305.2,4.41,2.553,4.782,5.38a10.985,10.985,0,0,1,.008,1.412Z" transform="translate(-454.334 -311.395)" fill="#010101"/>
        <path id="Trazado_3527" data-name="Trazado 3527" d="M472.634,320.778c0-.543.023-1.086,0-1.628a1.139,1.139,0,0,1,1.036-1.307,1.232,1.232,0,0,1,1.505,1.058,9.347,9.347,0,0,1,.165,3.229c-.055.862-.246,1.817-1.43,1.692-1.063-.112-1.305-.941-1.277-1.883C472.642,321.554,472.633,321.166,472.634,320.778Z" transform="translate(-456.139 -312.695)" fill="#0c0c0c"/>
        <path id="Trazado_3528" data-name="Trazado 3528" d="M475.384,329.059c.014,1.183.094,2.11-.633,2.723a1.2,1.2,0,0,1-1.7-.129c-.535-.516-.635-4.182-.093-4.7a1.155,1.155,0,0,1,1.68-.161A2.681,2.681,0,0,1,475.384,329.059Z" transform="translate(-456.146 -310.191)" fill="#0d0d0d"/>
        <path id="Trazado_3529" data-name="Trazado 3529" d="M475.469,337.748a11.52,11.52,0,0,1-.338,1.768,1.116,1.116,0,0,1-1.472.817c-1.786-.693-.781-2.284-.994-3.474-.147-.817,0-1.62,1.008-1.809a1.218,1.218,0,0,1,1.553,1.017C475.344,336.593,475.384,337.137,475.469,337.748Z" transform="translate(-456.155 -307.731)" fill="#0c0c0c"/>
        <path id="Trazado_3530" data-name="Trazado 3530" d="M472.638,346.147c.026-1.2-.323-2.651,1.242-2.689,1.684-.041,1.491,1.468,1.492,2.621s.115,2.692-1.492,2.665C472.094,348.715,472.8,347.05,472.638,346.147Z" transform="translate(-456.141 -305.294)" fill="#0a0a0a"/>
        <path id="Trazado_3531" data-name="Trazado 3531" d="M491.655,339.821c0-3.079,1.108-4.969,2.441-4.7,2.089.424,2.4,2.195,2.443,3.964.051,2.1-1.244,4.2-2.457,3.9A3.14,3.14,0,0,1,491.655,339.821Z" transform="translate(-450.647 -307.707)" fill="#fcfcfc"/>
        <path id="Trazado_3532" data-name="Trazado 3532" d="M486.276,329.283c-.117,1.26-.562,3.133-2.519,3.138-1.871,0-2.563-1.753-2.687-3.517-.155-2.2.965-4.174,2.39-4.3S486.339,326.635,486.276,329.283Z" transform="translate(-453.706 -310.736)" fill="#fcfcfc"/>
      </g>
    </g>
  </g>
</svg>
