<svg xmlns="http://www.w3.org/2000/svg" width="118.368" height="107.998" viewBox="0 0 118.368 107.998"><defs><style>.a{fill:#e2561e;}.b{fill:#2b3268;}.c{fill:#e9a205;}.d{fill:#fff;}</style></defs><g transform="translate(-515.784 -130.382)"><g transform="translate(515.784 130.382)"><path class="a" d="M609.744,232.478c7.668,1.39,16.179-3.5,18.212-11.021,1.646-6.091-.778-12.529-3.845-18.042s-6.873-10.776-8.33-16.914c-2.119-8.932,1.008-18.665-2.018-27.331-1.691-4.847-5.155-8.855-8.782-12.487-5.939-5.947-12.684-11.333-20.577-14.219s-17.1-3.009-24.4,1.157-12.033,13.113-9.943,21.253c2.4,9.358,11.991,14.566,19.727,20.353a72.869,72.869,0,0,1,23.653,30.193C597.748,215.972,594.357,229.692,609.744,232.478Z" transform="translate(-510.119 -130.382)"/><path class="b" d="M547.538,174.491c3.451-1.693,6.164-4.544,8.981-7.159,6.564-6.1,14.711-11.393,23.669-11.275s18.146,7.7,17.1,16.6c-.655,5.571-4.863,10.04-6.682,15.346-2.6,7.574-.092,15.887-.684,23.87a25.665,25.665,0,0,1-7.533,16.746c-4.554,4.3-11.231,6.473-17.317,4.993-8.408-2.042-14.053-10.153-22.136-13.239-6.634-2.533-14.65-1.586-20.269-5.927-5.519-4.263-6.668-12.455-4.56-19.1,1.732-5.461,6.362-13.975,11.347-17.273C534.678,174.616,541.752,177.333,547.538,174.491Z" transform="translate(-515.561 -126.076)"/><path class="c" d="M536.329,136.3c5.263,1.734,5.9,9.028,9.815,12.953,2.533,2.543,6.218,3.445,9.585,4.688s6.893,3.306,7.834,6.77a10.018,10.018,0,0,1-1.084,6.88,20.814,20.814,0,0,1-19.112,11.4c-9.9-.411-25.9-10.577-27.5-21.165C514.634,149.7,527.656,133.44,536.329,136.3Z" transform="translate(-515.784 -129.446)"/></g><g transform="translate(530.038 139.809)"><path class="d" d="M529.541,202.716l10.235,14.4,6.823-6.444,7.557-1.734,12.912,3.629,10.614,3.033,7.96.379,6.444-4.549,4.549-3.791,7.581-4.928,8.719-5.686,2.654-6.065-4.17-3.791h-6.065l-1.516-2.274-3.412-2.653-8.34,7.2,2.654-4.549-2.654-2.653-5.686,1.516-4.168,3.887-7.583,3.315h-3.791l-4.17-3.033L561,185.658l-6.065-.758-6.444,2.274-5.307,3.033Z" transform="translate(-527.731 -131.111)"/><path d="M596.782,183.769c.687-.439,1.311-.868,1.963-1.249a5.46,5.46,0,0,1,7.165,1.225,5.034,5.034,0,0,1,.526.669c.709,1.191,1.5,1.49,2.982,1.033a6.5,6.5,0,0,1,7.81,3.8,6.809,6.809,0,0,1-2.351,8.439c-5.815,4.15-11.668,8.25-17.5,12.371-2.242,1.583-4.491,3.157-6.725,4.751a16.643,16.643,0,0,1-14.975,2.491c-6.314-1.81-12.639-3.58-18.945-5.418a9.484,9.484,0,0,0-9.3,1.832c-1.562,1.3-3.185,2.533-4.765,3.815-.934.759-1.862.96-2.752,0-.775-.838-.572-1.894.53-2.8,1.825-1.505,3.64-3.027,5.52-4.461a12.046,12.046,0,0,1,11.144-2c6.593,1.867,13.189,3.718,19.775,5.608a12.96,12.96,0,0,0,11.6-1.915q11.944-8.434,23.864-16.9c1.129-.8,2.008-1.8,1.789-3.3-.2-1.343-.858-2.567-2.27-2.763a4.9,4.9,0,0,0-3.065.548c-5.8,3.67-11.515,7.46-17.235,11.249a2.11,2.11,0,0,0-.8,1.21c-.932,4.378-5.075,6.9-9.265,5.343-5.807-2.159-11.531-4.541-17.289-6.831a1.792,1.792,0,0,1-1.246-2.359,1.849,1.849,0,0,1,2.611-.928q8.206,3.176,16.39,6.4c1.4.551,2.72.746,4-.314a3.137,3.137,0,0,0-.036-5,7.566,7.566,0,0,0-1.722-.962c-8.009-3.286-16.041-6.517-24.034-9.839a10.441,10.441,0,0,0-11.4,1.622c-5.856,4.726-11.781,9.365-17.669,14.051-.766.61-1.658,1.03-2.43.355a3.062,3.062,0,0,1-.68-1.962c-.025-.343.458-.8.809-1.08,6.132-4.907,12.228-9.86,18.44-14.664,4.241-3.28,8.988-3.746,13.94-1.752,4.385,1.767,8.745,3.6,13.1,5.445a1.926,1.926,0,0,0,2.067-.2c3.658-2.443,7.358-4.824,11.036-7.237,3.752-2.463,6.063-2.132,8.983,1.3C596.455,183.494,596.57,183.577,596.782,183.769Zm-6.622,13.656,14.467-9.44c-.328-.462-.56-.814-.817-1.146-1.447-1.868-2.17-1.992-4.137-.7q-3.549,2.335-7.093,4.679c-1.869,1.235-3.735,2.476-5.558,3.684Zm-10.723-5.856a11.182,11.182,0,0,1,1.568.655c1.256.8,2.295.492,3.453-.333,2.151-1.534,4.413-2.913,6.623-4.365.847-.557,1.679-1.135,2.52-1.7-1.283-1.742-2.115-2.105-3.362-1.309C586.7,186.772,583.2,189.1,579.437,191.569Z" transform="translate(-527.991 -131.406)"/><path d="M598.384,163.466a24.842,24.842,0,1,1-24.3-25.009A24.868,24.868,0,0,1,598.384,163.466ZM573.623,142.1a21.2,21.2,0,1,0,21.242,21.2A21.194,21.194,0,0,0,573.623,142.1Z" transform="translate(-524.519 -138.455)"/><path class="d" d="M581.682,196.736l-3.139-2.92c1.823-1.209,3.689-2.449,5.558-3.684q3.545-2.344,7.093-4.679c1.968-1.294,2.69-1.17,4.137.7.257.332.489.683.818,1.146Z" transform="translate(-519.513 -130.717)"/><path class="d" d="M572.048,191.048c3.765-2.467,7.261-4.8,10.8-7.056,1.247-.8,2.078-.433,3.362,1.309-.841.57-1.673,1.148-2.52,1.7-2.211,1.451-4.472,2.831-6.623,4.365-1.158.824-2.2,1.136-3.453.333A11.182,11.182,0,0,0,572.048,191.048Z" transform="translate(-520.603 -130.885)"/><path class="d" d="M573.1,141.577a21.2,21.2,0,1,1-21.313,21.109A21.226,21.226,0,0,1,573.1,141.577Zm1.951,31.387a2.812,2.812,0,0,1,.342-.21c.175-.069.355-.126.536-.182a5.513,5.513,0,0,0,4.226-4.642,5.651,5.651,0,0,0-2.86-6.268c-1.517-.849-3.177-1.437-4.742-2.206a9.186,9.186,0,0,1-2.258-1.419,1.473,1.473,0,0,1,.617-2.647,4.938,4.938,0,0,1,1.948-.277c1.736.147,3.466.378,5.189.635,1.415.21,2.337-.209,2.6-1.289s-.383-1.928-1.788-2.244c-1.234-.278-2.484-.482-3.809-.736,0-.476,0-.9,0-1.316-.009-1.924-.593-2.841-1.8-2.824s-1.777.877-1.74,2.871c.017.942-.187,1.413-1.221,1.652a4.921,4.921,0,0,0-4.073,4.029,5,5,0,0,0,2.4,5.473,39.82,39.82,0,0,0,4.154,2.11,12.523,12.523,0,0,1,2.878,1.468,2.37,2.37,0,0,1-.719,4.151,5.093,5.093,0,0,1-2.76.187c-1.712-.3-3.39-.806-5.07-1.265a1.825,1.825,0,0,0-2.458,1.039c-.417.975.141,1.926,1.384,2.374.929.335,1.883.608,2.835.875.773.216,1.842.14,2.263.633.447.525.292,1.568.391,2.386.132,1.1.729,1.791,1.849,1.731a1.7,1.7,0,0,0,1.68-1.9C575.063,174.4,575.055,173.652,575.055,172.964Z" transform="translate(-524 -137.931)"/><path d="M573.228,172.136c0,.688.008,1.439,0,2.188a1.7,1.7,0,0,1-1.68,1.9c-1.12.061-1.717-.632-1.849-1.731-.1-.817.056-1.86-.391-2.386-.421-.493-1.49-.417-2.263-.633-.952-.266-1.906-.539-2.835-.875-1.242-.448-1.8-1.4-1.384-2.374a1.825,1.825,0,0,1,2.458-1.039c1.68.459,3.358.961,5.07,1.265a5.093,5.093,0,0,0,2.76-.187,2.37,2.37,0,0,0,.719-4.151,12.523,12.523,0,0,0-2.878-1.468,39.82,39.82,0,0,1-4.154-2.11,5,5,0,0,1-2.4-5.473,4.921,4.921,0,0,1,4.073-4.029c1.035-.239,1.239-.71,1.221-1.652-.037-1.994.534-2.854,1.74-2.871s1.79.9,1.8,2.824c0,.419,0,.84,0,1.316,1.325.253,2.575.458,3.809.736,1.4.316,2.052,1.168,1.788,2.244s-1.185,1.5-2.6,1.289c-1.724-.257-3.453-.488-5.189-.635a4.938,4.938,0,0,0-1.948.277,1.473,1.473,0,0,0-.617,2.647,9.186,9.186,0,0,0,2.258,1.419c1.565.768,3.225,1.357,4.742,2.206a5.651,5.651,0,0,1,2.86,6.268,5.513,5.513,0,0,1-4.226,4.642c-.181.056-.361.113-.536.182A2.812,2.812,0,0,0,573.228,172.136Z" transform="translate(-522.173 -137.104)"/></g></g></svg>