<svg xmlns="http://www.w3.org/2000/svg" width="98.611" height="116.462" viewBox="0 0 98.611 116.462"><defs><style>.a{fill:#e2561e;}.b{fill:#e9a205;}.c{fill:#2b3268;}.d{fill:#030303;}.e{fill:#050505;}.f{fill:#020202;}.g{fill:#fcfcfc;}.h{fill:#fbfbfb;}.i{fill:#060606;}</style></defs><g transform="translate(-238.232 -122.862)"><g transform="translate(238.232 134.007)"><path class="a" d="M249.88,171.166c1.472-3.443,1.664-7.27,2.08-10.991.972-8.673,3.623-17.758,10.312-23.364s18.29-5.843,23.172,1.391c3.056,4.529,2.788,10.5,4.817,15.575,2.895,7.241,10.026,11.787,14.661,18.057A25,25,0,0,1,310,188.985c-.631,6.068-4.18,11.914-9.613,14.689-7.5,3.834-16.826,1.433-24.755,4.29-6.506,2.345-11.823,8.137-18.729,8.5-6.783.358-12.837-4.958-15.5-11.205-2.191-5.132-4.182-14.358-2.6-19.96C240.465,179.429,247.413,176.941,249.88,171.166Z" transform="translate(-238.232 -132.658)"/><path class="b" d="M297.323,132.985c5.127,1.689,5.751,8.793,9.56,12.617,2.468,2.477,6.057,3.355,9.337,4.567s6.713,3.22,7.63,6.595a9.758,9.758,0,0,1-1.054,6.7,20.275,20.275,0,0,1-18.617,11.105c-9.638-.4-25.224-10.3-26.786-20.615C276.192,146.039,288.876,130.2,297.323,132.985Z" transform="translate(-232.863 -132.661)"/><path class="c" d="M285.836,176.4c3.361-1.65,6-4.427,8.746-6.974,6.394-5.939,14.329-11.1,23.055-10.983s17.675,7.5,16.657,16.169c-.638,5.426-4.737,9.779-6.509,14.947-2.528,7.377-.089,15.474-.665,23.25a25,25,0,0,1-7.337,16.311c-4.436,4.188-10.939,6.3-16.867,4.865-8.19-1.989-13.688-9.891-21.562-12.9-6.461-2.467-14.268-1.545-19.742-5.773-5.375-4.153-6.5-12.13-4.443-18.605,1.687-5.32,6.2-13.611,11.052-16.823C273.309,176.521,280.2,179.167,285.836,176.4Z" transform="translate(-235.762 -129.12)"/></g><g transform="translate(243.264 122.863)"><path class="d" d="M301.046,222.152c-.1-.3-.4-.314-.634-.392a6.032,6.032,0,0,1-4.09-4.46c-2.971-11.08-6-22.146-8.875-33.25a15.427,15.427,0,0,1,2.8-13.845,1.311,1.311,0,0,0,.268-1.093c-.825-5.254-1.55-10.521-1.97-15.826a.93.93,0,0,0-.5-.777,3.286,3.286,0,0,1-1.389-1.984c-.395-1.43-.789-2.861-1.127-4.3a3.239,3.239,0,0,1,2.206-3.993c3.229-.935,6.475-1.819,9.743-2.6,2.163-.521,3.649.52,4.194,2.659.34,1.341.726,2.672,1.1,4a2.885,2.885,0,0,1-.174,2.307,1.124,1.124,0,0,0,0,1.192c2.222,4.675,4.115,9.489,6.017,14.3a1.491,1.491,0,0,0,.86.979,15.51,15.51,0,0,1,9.366,10.694c3,10.935,5.815,21.922,8.842,32.85a6.6,6.6,0,0,1-4.844,8.372q-9.122,2.441-18.239,4.9c-.322.088-.74-.13-.972.27Zm21.116-18.578c-.055-.28-.068-.379-.094-.474q-3.25-12.123-6.489-24.249c-.152-.573-.357-.53-.82-.406q-11.211,3.023-22.435,6c-.481.129-.62.246-.472.793q3.26,12.07,6.453,24.157c.158.6.371.657.944.494,2.247-.647,4.515-1.219,6.774-1.826q7.732-2.073,15.46-4.153C321.767,203.832,322.178,203.891,322.161,203.574ZM314.138,174.5a9.2,9.2,0,0,0-1.464-2.266c-1.4-1.6-2.9-3.153-5.08-3.585a2.659,2.659,0,0,1-2.189-1.849c-.842-2.216-1.739-4.41-2.589-6.622a.9.9,0,0,0-.983-.717c-2.675.04-5.35.027-8.026.009-.514,0-.659.09-.569.66.371,2.345.7,4.7.982,7.057.08.674.28.829.953.776a1.892,1.892,0,0,1,2,2.591,2.486,2.486,0,0,1-1.9,1.4c-.738.224-1.612.181-2.13.894a12.325,12.325,0,0,0-2.243,7.879C298.7,178.635,306.4,176.573,314.138,174.5ZM302.72,218.159a7.987,7.987,0,0,0,.842-.148c6.084-1.617,12.172-3.219,18.245-4.877,1.926-.527,2.507-1.69,1.992-3.6a6.891,6.891,0,0,1-.29-1.046c-.082-.8-.391-.911-1.169-.7-6.8,1.855-13.624,3.658-20.438,5.476-2.494.665-2.494.667-1.674,3.176A2.361,2.361,0,0,0,302.72,218.159Zm-6.035-62.65h3.07c1.09,0,1.09,0,.612-1.03q-1.123-2.416-2.25-4.83a1.809,1.809,0,0,1,.075-2.135,1.577,1.577,0,0,0,.279-1.864,5.589,5.589,0,0,1-.33-1.236c-.058-.846-.482-.8-1.117-.619-1.739.5-3.494.943-5.24,1.419-.727.2-1.767.21-2.086.69-.372.562.273,1.457.42,2.219a1.285,1.285,0,0,0,1.019,1.218,1.735,1.735,0,0,1,1.2,1.752c.1,1.283.251,2.563.326,3.845.028.489.212.593.657.581C294.441,155.49,295.564,155.509,296.685,155.509Z" transform="translate(-236.78 -120.578)"/><path class="d" d="M266.648,222.153a12.523,12.523,0,0,0-3.153-.974c-5.182-1.415-10.379-2.78-15.563-4.184-3.194-.866-5.2-3.232-5.275-6.136a7.249,7.249,0,0,1,.31-2.047c2.945-11.018,5.839-22.048,8.861-33.046a15.54,15.54,0,0,1,9.446-10.739,1.075,1.075,0,0,0,.66-.66c1.984-4.953,3.91-9.932,6.214-14.75a.884.884,0,0,0-.026-.926,3.011,3.011,0,0,1-.227-2.4q.585-2.2,1.173-4.393a3.161,3.161,0,0,1,3.626-2.361c3.517.739,6.978,1.717,10.414,2.759a3.167,3.167,0,0,1,2.053,3.816c-.345,1.509-.776,3-1.179,4.494a2.483,2.483,0,0,1-.9,1.5,2.39,2.39,0,0,0-1.027,2.056c-.432,4.935-1.077,9.846-1.866,14.738a1.492,1.492,0,0,0,.229,1.292,15.458,15.458,0,0,1,2.783,13.934c-2.876,11.035-5.88,22.037-8.826,33.053a6.082,6.082,0,0,1-4.957,4.784c-.072.015-.125.119-.188.183Zm-11.2-43.835c-.378,0-.3.384-.365.635Q251.847,190.978,248.6,203c-.161.6,0,.772.569.924q11.13,2.946,22.242,5.967c.7.192.826-.058.968-.59q3.18-11.937,6.392-23.868c.185-.681.066-.86-.616-1.04-7.1-1.872-14.2-3.789-21.292-5.694Zm24.28,2.4a11.8,11.8,0,0,0-.681-4.95c-.661-1.978-1.558-3.642-3.98-3.96a1.869,1.869,0,0,1-1.678-2.277c.158-1.044,1.017-1.647,2.35-1.557.474.032.6-.074.663-.546.308-2.421.637-4.842,1.018-7.253.1-.605-.053-.712-.616-.707-2.642.026-5.285.038-7.928-.007-.631-.011-.845.26-1.041.771-.85,2.212-1.74,4.408-2.592,6.621a2.363,2.363,0,0,1-2.135,1.77,3.85,3.85,0,0,0-1.654.622,13.2,13.2,0,0,0-4.953,5.25Zm-12.153,37.416c1.595.08,2.489-.524,2.856-1.68.169-.533.233-1.108.453-1.617.321-.746.076-1.005-.664-1.2-6.915-1.827-13.821-3.689-20.731-5.539-2.1-.563-2.079-.555-2.677,1.608a2.412,2.412,0,0,0,.362,2.411,3.811,3.811,0,0,0,2.046,1.12c4.107,1.1,8.212,2.212,12.319,3.311C263.674,217.119,265.811,217.671,267.578,218.135Zm6.307-62.624c1.121,0,2.245-.027,3.366.011.529.018.738-.109.767-.681.063-1.284.215-2.564.323-3.845a1.619,1.619,0,0,1,1.1-1.611c.888-.2,1.008-.777,1.156-1.456a7.248,7.248,0,0,1,.395-1.424c.254-.57.02-.73-.483-.86-1.753-.452-3.5-.932-5.244-1.406-2.74-.743-2.821-.687-3.271,2.174a.68.68,0,0,0,.183.7,2.065,2.065,0,0,1,.337,2.623c-.731,1.546-1.438,3.1-2.155,4.656-.516,1.116-.518,1.116.657,1.117Z" transform="translate(-242.656 -120.58)"/><path class="e" d="M275.952,135.243a1.9,1.9,0,0,1-1.7-1c-.878-1.468-1.762-2.934-2.59-4.43a2,2,0,0,1,.665-2.841,1.962,1.962,0,0,1,2.718.82c.9,1.451,1.786,2.922,2.592,4.429A1.958,1.958,0,0,1,275.952,135.243Z" transform="translate(-238.715 -122.335)"/><path class="e" d="M290.357,135.244a1.883,1.883,0,0,1-1.832-2.575A28.8,28.8,0,0,1,291.6,127.4a1.825,1.825,0,0,1,2.41-.424,1.883,1.883,0,0,1,.839,2.391,44.373,44.373,0,0,1-3.025,5.2A1.633,1.633,0,0,1,290.357,135.244Z" transform="translate(-236.375 -122.335)"/><path class="f" d="M284.987,127.526c0,.823.026,1.649,0,2.472a2.03,2.03,0,0,1-2.014,2.121,2.007,2.007,0,0,1-1.938-2.094q-.055-2.52,0-5.043a1.979,1.979,0,1,1,3.95-.027C285.014,125.811,284.987,126.669,284.987,127.526Z" transform="translate(-237.388 -122.863)"/><path class="g" d="M321.392,198.878c.017.317-.395.258-.678.334q-7.729,2.08-15.46,4.153c-2.259.606-4.527,1.178-6.774,1.826-.573.164-.786.106-.944-.494q-3.2-12.086-6.453-24.157c-.148-.547-.009-.664.472-.793q11.223-2.977,22.435-6c.463-.124.668-.167.82.406q3.218,12.132,6.489,24.249C321.324,198.5,321.337,198.6,321.392,198.878Zm-7.765-9.292a7.47,7.47,0,0,0-7.375-7.6,7.491,7.491,0,1,0,7.375,7.6Z" transform="translate(-236.011 -115.882)"/><path class="g" d="M313.478,172.086c-7.74,2.075-15.435,4.137-23.238,6.226a12.325,12.325,0,0,1,2.243-7.879c.519-.713,1.392-.67,2.13-.894a2.486,2.486,0,0,0,1.9-1.4,1.892,1.892,0,0,0-2-2.591c-.673.053-.874-.1-.953-.776-.279-2.359-.611-4.712-.982-7.057-.09-.57.055-.663.569-.66,2.676.018,5.351.031,8.026-.009a.9.9,0,0,1,.983.717c.85,2.212,1.747,4.406,2.589,6.622a2.659,2.659,0,0,0,2.189,1.849c2.181.432,3.677,1.982,5.08,3.585A9.2,9.2,0,0,1,313.478,172.086Zm-13.129-8.107A1.925,1.925,0,0,0,298.4,166a1.967,1.967,0,0,0,1.978,1.921,2.061,2.061,0,0,0,1.97-2.06A1.941,1.941,0,0,0,300.349,163.979Z" transform="translate(-236.12 -118.166)"/><path class="h" d="M300.991,209.921A2.361,2.361,0,0,1,298.5,208.2c-.82-2.509-.82-2.51,1.674-3.176,6.814-1.819,13.634-3.621,20.438-5.476.778-.212,1.087-.1,1.169.7a6.887,6.887,0,0,0,.29,1.046c.515,1.914-.066,3.078-1.992,3.6-6.072,1.658-12.161,3.26-18.245,4.877A7.988,7.988,0,0,1,300.991,209.921Z" transform="translate(-235.051 -112.34)"/><path class="g" d="M296.183,155c-1.121,0-2.244-.019-3.366.009-.446.011-.629-.092-.657-.581-.075-1.283-.229-2.563-.326-3.845a1.735,1.735,0,0,0-1.2-1.752,1.285,1.285,0,0,1-1.019-1.218c-.147-.762-.792-1.657-.42-2.219.318-.48,1.359-.492,2.086-.69,1.746-.477,3.5-.92,5.24-1.419.635-.182,1.059-.227,1.117.619a5.589,5.589,0,0,0,.33,1.236,1.577,1.577,0,0,1-.279,1.864,1.809,1.809,0,0,0-.075,2.135q1.133,2.411,2.25,4.83c.478,1.028.478,1.029-.612,1.03Z" transform="translate(-236.278 -120.072)"/><path class="g" d="M254.74,173.627l1.415.382c7.1,1.905,14.188,3.822,21.292,5.694.682.18.8.358.616,1.04q-3.23,11.925-6.392,23.868c-.142.532-.266.783-.968.59q-11.107-3.037-22.242-5.967c-.572-.151-.73-.328-.569-.924q3.26-12.019,6.482-24.049C254.443,174.011,254.363,173.624,254.74,173.627Zm.823,16a7.449,7.449,0,1,0,7.337-7.638A7.48,7.48,0,0,0,255.564,189.627Z" transform="translate(-241.944 -115.888)"/><path class="g" d="M278.058,178.3l-23.226-6.224a13.2,13.2,0,0,1,4.953-5.25,3.85,3.85,0,0,1,1.654-.622,2.363,2.363,0,0,0,2.135-1.77c.852-2.212,1.742-4.408,2.592-6.621.2-.511.409-.783,1.041-.771,2.642.044,5.285.033,7.928.007.563,0,.712.1.616.707-.381,2.411-.71,4.832-1.018,7.253-.06.472-.189.578-.663.546-1.333-.09-2.192.513-2.35,1.557a1.869,1.869,0,0,0,1.678,2.277c2.421.318,3.319,1.982,3.98,3.96A11.8,11.8,0,0,1,278.058,178.3Zm-8.121-12.3a1.976,1.976,0,0,0-3.949-.147,2.061,2.061,0,0,0,1.964,2.064A1.984,1.984,0,0,0,269.938,166.007Z" transform="translate(-240.983 -118.166)"/><path class="h" d="M267.1,209.884c-1.767-.464-3.9-1.016-6.037-1.587-4.107-1.1-8.212-2.211-12.319-3.311a3.811,3.811,0,0,1-2.046-1.12,2.412,2.412,0,0,1-.362-2.411c.6-2.163.574-2.171,2.677-1.608,6.91,1.851,13.816,3.712,20.731,5.539.74.2.985.455.664,1.2-.219.51-.283,1.084-.453,1.617C269.584,209.36,268.69,209.964,267.1,209.884Z" transform="translate(-242.173 -112.329)"/><path class="g" d="M270.579,154.984h-2.872c-1.175,0-1.174,0-.657-1.117.718-1.553,1.424-3.111,2.155-4.656a2.065,2.065,0,0,0-.337-2.623.68.68,0,0,1-.183-.7c.45-2.861.531-2.916,3.271-2.174,1.747.474,3.492.954,5.244,1.406.5.13.737.29.483.86a7.247,7.247,0,0,0-.395,1.424c-.148.679-.267,1.26-1.156,1.456a1.619,1.619,0,0,0-1.1,1.611c-.108,1.282-.26,2.561-.323,3.845-.028.572-.238.7-.767.681C272.824,154.957,271.7,154.984,270.579,154.984Z" transform="translate(-239.35 -120.053)"/><path class="d" d="M312.7,188.582a7.451,7.451,0,1,1-7.375-7.6A7.489,7.489,0,0,1,312.7,188.582Zm-3.948-.049a3.5,3.5,0,1,0-7-.127,3.616,3.616,0,0,0,3.5,3.577A3.51,3.51,0,0,0,308.749,188.533Z" transform="translate(-235.081 -114.879)"/><path class="i" d="M299.363,163.142a1.941,1.941,0,0,1,2,1.886,2.061,2.061,0,0,1-1.97,2.06,1.967,1.967,0,0,1-1.978-1.921A1.925,1.925,0,0,1,299.363,163.142Z" transform="translate(-235.133 -117.329)"/><path class="d" d="M254.631,188.617a7.461,7.461,0,0,1,7.337-7.638,7.49,7.49,0,1,1-7.337,7.638Zm10.944-.179a3.5,3.5,0,1,0-7,.061,3.5,3.5,0,0,0,3.462,3.482A3.63,3.63,0,0,0,265.574,188.438Z" transform="translate(-241.011 -114.879)"/><path class="e" d="M268.59,165.17a1.984,1.984,0,0,1-1.985,1.918,2.061,2.061,0,0,1-1.964-2.064,1.976,1.976,0,0,1,3.949.147Z" transform="translate(-239.636 -117.328)"/><path class="h" d="M308.271,188.052a3.51,3.51,0,0,1-3.5,3.45,3.616,3.616,0,0,1-3.5-3.577,3.5,3.5,0,1,1,7,.127Z" transform="translate(-234.603 -114.398)"/><path class="h" d="M265.1,187.958a3.63,3.63,0,0,1-3.537,3.543,3.5,3.5,0,0,1-3.462-3.482,3.5,3.5,0,1,1,7-.061Z" transform="translate(-240.534 -114.398)"/></g></g></svg>