<svg xmlns="http://www.w3.org/2000/svg" xmlns:xlink="http://www.w3.org/1999/xlink" width="1120" height="920" viewBox="0 0 1120 920"><defs><style>.a,.e{fill:#fff;}.a{stroke:#707070;}.b{clip-path:url(#a);}.c{fill:#90b8db;}.d{opacity:0.08;isolation:isolate;}</style><clipPath id="a"><rect class="a" width="1120" height="920"/></clipPath></defs><g class="b"><path class="c" d="M-458.172,1127.532c45.009,140.779,198.683,366.771,304.335,200.393,105.626-166.379,309.737-82.741,478.831-4.724,169.094,77.991,342.205-34.258,408.115-194.8,55.161-134.428,42.43-318.5-89.066-511.813C418.757,285.351,11.782,273.351-232.968,452.842-535.457,674.68-503.181,986.752-458.172,1127.532Z" transform="matrix(0.998, -0.07, 0.07, 0.998, 169.292, -492.262)"/><g transform="translate(0)"><g class="d" transform="translate(80.394 245.351) rotate(-17)"><path class="e" d="M434.332,203.795c0,126.625-92.52,203.795-206.99,203.795H162.4V568.32H0V0H227.272C341.742,0,434.332,77.1,434.332,203.795Zm-162.4,0A43.462,43.462,0,0,0,231.37,157.6a40.333,40.333,0,0,0-4.1-.069H162.327v92.52h64.945A43.476,43.476,0,0,0,272,207.824,26.018,26.018,0,0,0,271.935,203.795Z"/><path class="e" d="M69.35,162.4V0H255.988V162.4L227.579,357.231H97.69Zm0,324.724A93.354,93.354,0,1,1,162.7,580.475h0A92.86,92.86,0,0,1,69.35,488.094Z" transform="translate(412.353)"/></g></g></g></svg>