<svg xmlns="http://www.w3.org/2000/svg" width="214.853" height="214.853" viewBox="0 0 214.853 214.853"><defs><style>.a{fill:#5b4f47;}.b,.c{fill:none;stroke:#5b4f47;stroke-miterlimit:10;}.b{stroke-width:3.866px;}.c{stroke-width:1.933px;}</style></defs><g transform="translate(2.734 2.734)"><g transform="translate(82.722 78.719)"><path class="a" d="M454.328,2049.51c.126-.178.465.062.338.239l-7.837,11.345a.488.488,0,1,0,.793.553l8.631-10.786c.126-.183.467.057.339.237l-7.554,11.542a.5.5,0,1,0,.819.576l8.271-11.042c.126-.178.467.062.34.24l-7.19,11.794a.487.487,0,1,0,.789.554l7.983-11.238c.128-.183.471.059.344.237,0,0-5.788,10.3-6.768,12.079a13.217,13.217,0,0,1-4.675,5.475,6.215,6.215,0,0,1-4.1.809c-4.522,6.614-16.779,24.689-19.975,29.628a1.32,1.32,0,0,1-1.875.352l-1.349-.947a1.322,1.322,0,0,1-.311-1.877c3.556-4.69,16.358-22.384,21.034-28.891a6.179,6.179,0,0,1-.641-4.128c.45-2.485,1.918-4.408,3.549-6.267C446.626,2058.466,454.328,2049.51,454.328,2049.51Z" transform="translate(-415.533 -2049.447)"/><path class="a" d="M415.139,2050.527c-.72-1-2.55-1.007-2.43,1.3.187,3.4,3.018,11.391,6.387,16.634,2.677,4.171,6.243,7.311,9.474,6.3,5.363,7.677,16.453,23.2,18.907,26.892a1.249,1.249,0,0,0,1.778.314l1.268-.912a1.251,1.251,0,0,0,.268-1.787c-2.722-3.5-14.188-18.785-19.781-26.3C428.9,2070.133,415.688,2051.291,415.139,2050.527Z" transform="translate(-412.704 -2049.596)"/></g><g transform="translate(50.451 123.731)"><path class="a" d="M366.337,2119.78l.712-.262.441,1.195-2.865,1.056-.568-1.539q-.335-.908.656-1.273l3.879-1.43q1.007-.372,1.342.537l.2.54a.952.952,0,0,1-.655,1.375l-.638.236-.289-.785.523-.194q.426-.156.3-.492l-.073-.2q-.127-.345-.552-.187l-3.6,1.328c-.283.1-.383.272-.3.5l.2.532,1.441-.531Z" transform="translate(-363.973 -2117.418)"/><path class="a" d="M367.9,2128.962a.918.918,0,0,1,.493-1.383l3.682-1.863a.918.918,0,0,1,1.41.411l.363.716a.919.919,0,0,1-.5,1.38l-3.681,1.863a.919.919,0,0,1-1.407-.422Zm.768-.163.193.381c.1.2.259.24.477.13l3.58-1.812a.328.328,0,0,0,.158-.5l-.177-.35a.324.324,0,0,0-.493-.161l-3.581,1.812A.328.328,0,0,0,368.666,2128.8Z" transform="translate(-365.249 -2120.164)"/><path class="a" d="M372.918,2137.508a.917.917,0,0,1,.328-1.431l3.438-2.281a.919.919,0,0,1,1.449.243l.444.669a.919.919,0,0,1-.34,1.429l-3.439,2.281a.919.919,0,0,1-1.446-.255Zm.743-.252.236.356a.309.309,0,0,0,.489.074l3.344-2.218a.329.329,0,0,0,.1-.515l-.217-.327a.324.324,0,0,0-.508-.1l-3.344,2.218A.327.327,0,0,0,373.661,2137.256Z" transform="translate(-366.922 -2122.867)"/><path class="a" d="M378.131,2144.517l4.786-4.04.94,1.114a1.052,1.052,0,0,1-.16,1.676l-3.173,2.679a.847.847,0,0,1-1.34-.182Zm1.12.15.405.48q.214.253.427.073l3.067-2.589q.347-.292.1-.579l-.377-.447Z" transform="translate(-368.755 -2125.207)"/><path class="a" d="M393.563,2154.452l-.48.588-.851-.7-1.8,2.2-.648-.53,3.967-4.848,1.607,1.315-.481.587-.958-.785-1.2,1.472Z" transform="translate(-372.691 -2128.818)"/><path class="a" d="M397.76,2161.862a.918.918,0,0,1-.266-1.444l2.253-3.458a.92.92,0,0,1,1.426-.351l.673.438a.919.919,0,0,1,.254,1.447l-2.254,3.457a.919.919,0,0,1-1.429.339Zm.583-.527.358.234q.277.181.477-.126l2.191-3.362a.327.327,0,0,0-.114-.511l-.329-.215a.323.323,0,0,0-.507.106l-2.191,3.362A.327.327,0,0,0,398.342,2161.335Z" transform="translate(-375.216 -2130.586)"/><path class="a" d="M406.5,2166.817a.918.918,0,0,1-.432-1.4l1.836-3.7a.918.918,0,0,1,1.375-.515l.719.357a.919.919,0,0,1,.421,1.407l-1.836,3.7a.919.919,0,0,1-1.38.5Zm.517-.59.383.19q.3.149.46-.181l1.786-3.594a.327.327,0,0,0-.173-.495l-.352-.175a.324.324,0,0,0-.491.165l-1.786,3.594A.328.328,0,0,0,407.02,2166.227Z" transform="translate(-378.138 -2132.16)"/><path class="a" d="M414.76,2170.3l2.119-5.894,1.371.493a1.053,1.053,0,0,1,.7,1.532l-1.405,3.908q-.307.853-1.251.514Zm1.044-.431.591.213q.312.112.407-.15l1.358-3.776q.154-.427-.2-.554l-.55-.2Z" transform="translate(-381.128 -2133.29)"/><path class="a" d="M433.271,2171.735q.652.294.573.812l-.238,1.552a.834.834,0,0,1-1.082.779l-1.664-.256.95-6.191,1.414.217a1,1,0,0,1,.932,1.29l-.182,1.19a.642.642,0,0,1-.7.564ZM431.8,2174l.621.095c.219.034.341-.039.369-.216l.21-1.372c.044-.293-.1-.465-.424-.515l-.457-.07Zm.434-2.829.388.06a.413.413,0,0,0,.543-.375l.148-.966c.046-.3-.055-.467-.3-.505l-.491-.075Z" transform="translate(-386.566 -2134.649)"/><path class="a" d="M441.458,2175.8l-.836-.032.2-5.187q.042-1.073,1.044-1.034l.628.024q1,.038.962,1.111l-.2,5.187-.837-.032.089-2.292-.959-.037Zm1.077-3.014.08-2.084a.323.323,0,0,0-.352-.379l-.227-.009a.323.323,0,0,0-.38.352l-.08,2.083Z" transform="translate(-389.864 -2135.025)"/><path class="a" d="M449.84,2169.494l1.634-.135q.957-.078,1.045.99l.128,1.539q.068.817-.41,1.076l.8,2.551-.791.066-.757-2.476-.5.042.209,2.521-.834.069Zm1.084,2.94.548-.046q.373-.031.336-.483l-.112-1.347c-.025-.3-.162-.442-.411-.421l-.548.046Z" transform="translate(-392.977 -2134.961)"/><path class="a" d="M466.992,2173.041l-.809.218-1.349-5.012a.918.918,0,0,1,.689-1.3l.607-.164a.919.919,0,0,1,1.248.775l1.35,5.013-.809.217-.6-2.215-.926.25Zm.133-3.2-.542-2.013a.324.324,0,0,0-.45-.258l-.219.058a.324.324,0,0,0-.259.449l.542,2.014Z" transform="translate(-398.021 -2134.076)"/><path class="a" d="M475.668,2166.563l-1.117-2.814.779-.309,2.309,5.823-.779.309-.46-1.16-1.887-2.321,1.511,3.812-.778.309-2.31-5.822.779-.309Z" transform="translate(-400.779 -2132.964)"/><path class="a" d="M484.022,2166.415l-2.962-5.519,1.284-.689a1.053,1.053,0,0,1,1.607.5l1.963,3.659q.429.8-.455,1.273Zm.379-1.065.554-.3c.195-.1.248-.239.16-.4l-1.9-3.536q-.214-.4-.545-.222l-.515.276Z" transform="translate(-403.523 -2131.807)"/><path class="a" d="M498.793,2154.9l.254.312a.915.915,0,0,1-.107,1.458l-.42.342a.914.914,0,0,1-1.45-.193l-2.609-3.208a.914.914,0,0,1,.107-1.458l.42-.341a.915.915,0,0,1,1.45.193l.446.548-.65.528-.407-.5a.327.327,0,0,0-.522-.048l-.129.1a.309.309,0,0,0-.026.493l2.532,3.114a.31.31,0,0,0,.489.076l.162-.133a.309.309,0,0,0,.026-.493l-.215-.264Z" transform="translate(-407.944 -2128.942)"/><path class="a" d="M505.443,2150.653a.918.918,0,0,1-1.468-.022l-2.948-2.888a.919.919,0,0,1-.064-1.467l.562-.573a.918.918,0,0,1,1.468.034l2.948,2.887a.919.919,0,0,1,.052,1.468Zm-.4-.675.3-.305a.309.309,0,0,0-.03-.493l-2.866-2.809a.328.328,0,0,0-.525.012l-.275.28a.323.323,0,0,0,.005.518l2.866,2.809A.328.328,0,0,0,505.042,2149.979Z" transform="translate(-410.132 -2126.854)"/><path class="a" d="M509.56,2140.361l.6.47-.68.863,2.234,1.76-.518.657-4.92-3.875,1.284-1.631.6.47-.766.973,1.494,1.177Z" transform="translate(-412.039 -2124.575)"/><path class="a" d="M514.2,2133.669l.64.408-.59.927,2.4,1.528-.45.706-5.283-3.364,1.115-1.751.64.407-.665,1.045,1.6,1.021Z" transform="translate(-413.607 -2122.385)"/><path class="a" d="M520.5,2129.9l-5.6-2.814.933-1.855.678.342-.557,1.106,1.7.855.494-.982.678.341-.494.982,1.862.936.557-1.106.678.342Z" transform="translate(-414.955 -2120.057)"/><path class="a" d="M524.063,2122.136l-5.852-2.232.74-1.94.709.27-.442,1.157,1.777.677.392-1.027.709.27-.392,1.027,1.948.743.442-1.157.709.27Z" transform="translate(-416.072 -2117.603)"/></g><g transform="translate(49.571 42.74)"><path class="a" d="M373.378,2046.888c-.056.152-.117.3-.184.448s-.136.3-.209.454l2.992,1.654-1.511,2.733-11.822-6.535,1.511-2.733a6.083,6.083,0,0,1,1.426-1.7,6.022,6.022,0,0,1,1.816-1.034,5.017,5.017,0,0,1,1.97-.283,4.413,4.413,0,0,1,1.905.558,4.49,4.49,0,0,1,1.546,1.382,4.87,4.87,0,0,1,.787,1.913l5.68-.281-1.779,3.219Zm-3.142-.618a3.237,3.237,0,0,0,.307-.918,2.851,2.851,0,0,0,.021-.9,1.982,1.982,0,0,0-.267-.76,1.455,1.455,0,0,0-.544-.522,1.4,1.4,0,0,0-.725-.179,2.017,2.017,0,0,0-.777.183,2.865,2.865,0,0,0-.748.494,3.28,3.28,0,0,0-.614.748Z" transform="translate(-362.644 -2010.237)"/><path class="a" d="M381.036,2023.4l-3.678,4.2,1.542,1.352,2.984-3.405,2.349,2.058L381.249,2031l1.612,1.412,3.679-4.2,2.348,2.058-5.737,6.545-10.186-8.927,5.723-6.558Z" transform="translate(-366.13 -2003.974)"/><path class="a" d="M398.014,2024.3a4.815,4.815,0,0,1-1.128.638,4.348,4.348,0,0,1-1.293.3,4.538,4.538,0,0,1-2.248-.389,4.637,4.637,0,0,1-1.8-1.449l2.483-1.894a1.361,1.361,0,0,0,.712.539,1.752,1.752,0,0,0,.59.073,1.4,1.4,0,0,0,.719-.246,1.634,1.634,0,0,0,.513-.577,1.244,1.244,0,0,0,.163-.473,1.5,1.5,0,0,0-.005-.4.883.883,0,0,0-.1-.3,1.57,1.57,0,0,0-.291-.382.989.989,0,0,0-.271-.189,1.273,1.273,0,0,0-.387-.111,1.594,1.594,0,0,0-.5.024,4.322,4.322,0,0,0-.446.131c-.152.055-.316.109-.49.165q-.457.163-.966.318a5.338,5.338,0,0,1-1.1.208,3.9,3.9,0,0,1-1.483-.147,4.038,4.038,0,0,1-2.285-1.732,3.828,3.828,0,0,1-.537-1.391,4.074,4.074,0,0,1,0-1.371,3.962,3.962,0,0,1,1.287-2.305,4.344,4.344,0,0,1,1.21-.76,4.147,4.147,0,0,1,1.33-.351,4.053,4.053,0,0,1,1.308.095,3.757,3.757,0,0,1,1.193.52,3.931,3.931,0,0,1,.971.91l-2.471,1.883a.64.64,0,0,0-.572-.308,1.827,1.827,0,0,0-.509.109,1.211,1.211,0,0,1-.156.084.9.9,0,0,0-.25.191,1.112,1.112,0,0,0-.209.321.726.726,0,0,0-.039.436.83.83,0,0,0,.331.527.884.884,0,0,0,.6.179,4.026,4.026,0,0,0,.618-.134q.323-.094.669-.22.306-.116.63-.224t.676-.19a4.343,4.343,0,0,1,4.491,1.618,4.286,4.286,0,0,1,.886,2.3,4.363,4.363,0,0,1-.526,2.446,4.41,4.41,0,0,1-.58.849A5.015,5.015,0,0,1,398.014,2024.3Z" transform="translate(-371.141 -2000.888)"/><path class="a" d="M407.1,2001.838l1.387,2.8-2.334,1.157,4.662,9.4-2.8,1.387-4.661-9.4-2.318,1.149-1.387-2.8Z" transform="translate(-375.145 -1997.387)"/><path class="a" d="M428.046,2010.322l-.922-1.464-4.139,1.046-.135,1.73-3.206.809,1.158-14.281,2.867-.724,7.567,12.078Zm-4.786-3.708,2.132-.538-1.844-2.926Z" transform="translate(-381.897 -1995.901)"/><path class="a" d="M442.526,2008.781a5.109,5.109,0,0,1-3.627-1.4,5.287,5.287,0,0,1-1.163-1.644,5.178,5.178,0,0,1-.448-1.97l-.138-8.481,3.122-.05.137,8.462a1.952,1.952,0,0,0,.633,1.413,2.032,2.032,0,0,0,1.45.549,1.862,1.862,0,0,0,.773-.179,2.165,2.165,0,0,0,.64-.454,1.912,1.912,0,0,0,.415-.654,2.127,2.127,0,0,0,.134-.8l-.136-8.406,3.123-.051.136,8.388a4.865,4.865,0,0,1-.346,2,5.178,5.178,0,0,1-1.064,1.662,5.263,5.263,0,0,1-1.608,1.144,5.047,5.047,0,0,1-1.979.467Z" transform="translate(-387.811 -1995.117)"/><path class="a" d="M459.584,2006.765q-.242-.018-.481-.055c-.158-.025-.323-.05-.494-.078l-.776,3.33-3.041-.709,3.066-13.155,3.042.708a6.107,6.107,0,0,1,2.027.909,6.015,6.015,0,0,1,1.489,1.465,5.015,5.015,0,0,1,.81,1.818,4.42,4.42,0,0,1-.017,1.985,4.488,4.488,0,0,1-.909,1.864,4.875,4.875,0,0,1-1.626,1.279l1.818,5.389-3.581-.835Zm-.262-3.192a3.224,3.224,0,0,0,.967.045,2.844,2.844,0,0,0,.868-.224,1.976,1.976,0,0,0,.658-.463,1.456,1.456,0,0,0,.354-.667,1.4,1.4,0,0,0-.025-.746,2.016,2.016,0,0,0-.387-.7,2.9,2.9,0,0,0-.679-.585,3.272,3.272,0,0,0-.887-.387Z" transform="translate(-393.77 -1995.448)"/><path class="a" d="M476.919,2017.892l.257-1.71-3.816-1.912-1.232,1.222-2.957-1.482,10.205-10.057,2.644,1.324-2.16,14.088Zm-1.2-5.934,1.966.985.515-3.421Z" transform="translate(-398.626 -1998.102)"/><path class="a" d="M500.28,2017.091l2.365,2.038-8.854,10.275-2.561-2.207,1.8-8.886-5.163,5.991-2.366-2.038,8.83-10.247,2.575,2.22-1.8,8.861Z" transform="translate(-404.144 -2000.825)"/><path class="a" d="M515.093,2033.369l-2.5,1.871-1.56-2.087-8.406,6.286-1.87-2.5,8.406-6.286-1.55-2.071,2.5-1.87Z" transform="translate(-409.296 -2005.789)"/></g><circle class="b" cx="74.029" cy="74.029" r="74.029" transform="translate(0 104.692) rotate(-45)"/><circle class="c" cx="68.748" cy="68.748" r="68.748" transform="translate(7.468 104.692) rotate(-45)"/><g transform="translate(41.011 97.967)"><path class="a" d="M351.367,2084.144c.173,1.02,1.085,1.16,1.714,1.16.6,0,1.507-.174,1.507-.965,0-1.649-4.61-.586-4.61-3.482,0-1.594,1.5-2.343,2.9-2.343,1.616,0,3.1.706,3.1,2.495l-1.649-.238c-.206-.9-1-.932-1.529-.932s-1.171.227-1.171.878c0,.575.369.705,2.31,1.171.575.141,2.3.5,2.3,2.256,0,1.421-1.107,2.484-3.222,2.484-1.736,0-3.3-.846-3.3-2.755Z" transform="translate(-349.718 -2078.514)"/><path class="a" d="M361.068,2078.793h1.7v7.744h-1.7Z" transform="translate(-353.552 -2078.608)"/><path class="a" d="M367.025,2081.178v5.359h-1.486v-7.777h1.952l3.46,4.838v-4.838h1.442v7.777h-1.442Z" transform="translate(-355.062 -2078.597)"/><path class="a" d="M381.191,2086.515a3.926,3.926,0,1,1,3.406-5.846c-.662.347-.716.38-1.454.737a2.255,2.255,0,0,0-1.952-1.117,2.3,2.3,0,0,0,0,4.6,2.26,2.26,0,0,0,2.018-1.2c.737.379.759.423,1.453.738A3.9,3.9,0,0,1,381.191,2086.515Z" transform="translate(-359.023 -2078.564)"/><path class="a" d="M391.361,2085.078h4.371v1.432h-6.02v-7.766h5.651v1.431h-4v1.747H394.9v1.507h-3.536Z" transform="translate(-363.227 -2078.592)"/></g><g transform="translate(145.551 98.038)"><path class="a" d="M510.26,2078.67v7.668h-1.519v-6.129h-1.16v-.976Z" transform="translate(-507.581 -2078.638)"/><path class="a" d="M518.261,2079.989c-.434.944-1.681,3.417-2.809,6.4h-1.8c1.161-2.831,2.4-5.391,2.744-6.226h-3.59v-1.345h5.455Z" transform="translate(-509.346 -2078.687)"/><path class="a" d="M524.547,2086.528a2.352,2.352,0,0,1-2.669-2.343,1.957,1.957,0,0,1,1.171-1.952,1.546,1.546,0,0,1-.932-1.508,2.166,2.166,0,0,1,2.4-2.1c1.595,0,2.44.933,2.44,2.006a1.656,1.656,0,0,1-.889,1.551,1.842,1.842,0,0,1,1.15,1.855A2.466,2.466,0,0,1,524.547,2086.528Zm-.022-3.634a1.073,1.073,0,0,0-1.085,1.193,1.1,1.1,0,0,0,1.117,1.225,1.119,1.119,0,0,0,1.1-1.215A1.106,1.106,0,0,0,524.525,2082.895Zm.976-2.1a.878.878,0,0,0-.889-.954.915.915,0,0,0-1.041.954.948.948,0,0,0,.987.955A.885.885,0,0,0,525.5,2080.79Z" transform="translate(-512.41 -2078.621)"/><path class="a" d="M534.563,2080.573a.79.79,0,0,0-.889-.738c-1,0-1.214,1.128-1.269,2.126l.021.022a1.593,1.593,0,0,1,1.443-.64,2.271,2.271,0,0,1,2.353,2.375,2.536,2.536,0,0,1-2.516,2.809c-2.332,0-2.787-1.952-2.787-3.872,0-1.465.206-4.035,2.863-4.035a2.725,2.725,0,0,1,1.573.5,2.213,2.213,0,0,1,.716,1.454Zm-.966,1.985a1.158,1.158,0,0,0-1.16,1.324c0,.835.466,1.431,1.2,1.431.564,0,1.063-.423,1.063-1.464A1.135,1.135,0,0,0,533.6,2082.558Z" transform="translate(-515.464 -2078.621)"/></g></g></svg>