<svg xmlns="http://www.w3.org/2000/svg" width="194.87" height="119.818" viewBox="0 0 194.87 119.818"><defs><style>.a{fill:#5b4f47;}</style></defs><g transform="translate(81.464)"><path class="a" d="M1151.126,1983.643c.093-.132.342.045.249.176l-5.782,8.373a.36.36,0,1,0,.585.408l6.369-7.959c.093-.136.344.042.25.175l-5.575,8.517a.371.371,0,1,0,.6.425l6.1-8.149c.093-.132.344.046.251.177l-5.306,8.7a.359.359,0,1,0,.583.409l5.891-8.293c.095-.135.347.043.254.175,0,0-4.271,7.6-4.994,8.913a9.751,9.751,0,0,1-3.449,4.04,4.6,4.6,0,0,1-3.026.6c-3.336,4.881-12.382,18.219-14.74,21.865a.975.975,0,0,1-1.384.259l-1-.7a.975.975,0,0,1-.228-1.385c2.624-3.461,12.071-16.518,15.522-21.32a4.56,4.56,0,0,1-.473-3.047,9.735,9.735,0,0,1,2.62-4.624C1145.441,1990.253,1151.126,1983.643,1151.126,1983.643Z" transform="translate(-1122.497 -1983.597)"/><path class="a" d="M1122.206,1984.394c-.532-.738-1.881-.743-1.793.958.138,2.512,2.227,8.406,4.713,12.276,1.977,3.078,4.608,5.4,6.992,4.649,3.958,5.665,12.141,17.122,13.952,19.845a.922.922,0,0,0,1.312.232l.936-.673a.923.923,0,0,0,.2-1.318c-2.009-2.583-10.47-13.862-14.6-19.405C1132.36,1998.862,1122.612,1984.957,1122.206,1984.394Z" transform="translate(-1120.409 -1983.707)"/></g><g transform="translate(24.628 17.541)"><path class="a" d="M1037.141,2018.82c.269,1.583,1.683,1.8,2.659,1.8.926,0,2.34-.27,2.34-1.5,0-2.559-7.154-.909-7.154-5.4,0-2.475,2.323-3.636,4.494-3.636,2.508,0,4.814,1.094,4.814,3.871l-2.558-.37c-.32-1.4-1.549-1.448-2.373-1.448-.842,0-1.818.353-1.818,1.364,0,.892.572,1.094,3.585,1.817.893.219,3.568.775,3.568,3.5,0,2.205-1.717,3.855-5,3.855-2.693,0-5.117-1.313-5.117-4.275Z" transform="translate(-1034.582 -2010.085)"/><path class="a" d="M1052.195,2010.517h2.642v12.018h-2.642Z" transform="translate(-1040.531 -2010.231)"/><path class="a" d="M1061.439,2014.219v8.315h-2.306v-12.068h3.03l5.369,7.507v-7.507h2.238v12.068h-2.238Z" transform="translate(-1042.875 -2010.214)"/><path class="a" d="M1083.423,2022.5a6.093,6.093,0,1,1,5.285-9.073c-1.027.538-1.111.589-2.255,1.144a3.5,3.5,0,0,0-3.03-1.734,3.568,3.568,0,1,0,0,7.137,3.506,3.506,0,0,0,3.13-1.868c1.145.589,1.178.656,2.255,1.145A6.045,6.045,0,0,1,1083.423,2022.5Z" transform="translate(-1049.021 -2010.162)"/><path class="a" d="M1099.2,2020.271h6.782v2.222h-9.341v-12.052h8.769v2.222h-6.21v2.71h5.487v2.34H1099.2Z" transform="translate(-1055.546 -2010.205)"/></g><g transform="translate(118.511 17.65)"><path class="a" d="M1180.511,2010.326v11.9h-2.357v-9.51h-1.8V2011.2Z" transform="translate(-1176.353 -2010.276)"/><path class="a" d="M1192.927,2012.373c-.673,1.464-2.609,5.3-4.359,9.931h-2.795c1.8-4.393,3.72-8.365,4.259-9.661h-5.571v-2.087h8.466Z" transform="translate(-1179.092 -2010.353)"/><path class="a" d="M1202.681,2022.52c-3.1,0-4.14-2-4.14-3.635a3.037,3.037,0,0,1,1.818-3.03,2.4,2.4,0,0,1-1.448-2.34c0-2.02,1.632-3.265,3.72-3.265,2.475,0,3.788,1.448,3.788,3.114a2.572,2.572,0,0,1-1.381,2.407,2.857,2.857,0,0,1,1.784,2.878A3.827,3.827,0,0,1,1202.681,2022.52Zm-.033-5.639a1.664,1.664,0,0,0-1.683,1.852,1.7,1.7,0,0,0,1.734,1.9,1.737,1.737,0,0,0,1.7-1.885A1.716,1.716,0,0,0,1202.648,2016.882Zm1.514-3.265a1.362,1.362,0,0,0-1.38-1.481,1.42,1.42,0,0,0-1.616,1.481,1.471,1.471,0,0,0,1.532,1.481A1.373,1.373,0,0,0,1204.163,2013.616Z" transform="translate(-1183.848 -2010.25)"/><path class="a" d="M1218.224,2013.28a1.225,1.225,0,0,0-1.38-1.144c-1.548,0-1.885,1.75-1.969,3.3l.034.033a2.468,2.468,0,0,1,2.238-.993,3.525,3.525,0,0,1,3.653,3.686c0,2.626-1.6,4.359-3.906,4.359-3.619,0-4.326-3.03-4.326-6.009,0-2.272.32-6.261,4.444-6.261a4.224,4.224,0,0,1,2.441.774,3.433,3.433,0,0,1,1.111,2.255Zm-1.5,3.08a1.8,1.8,0,0,0-1.8,2.054c0,1.3.724,2.222,1.869,2.222.875,0,1.65-.656,1.65-2.272A1.762,1.762,0,0,0,1216.726,2016.36Z" transform="translate(-1188.586 -2010.25)"/></g><g transform="translate(0 46.059)"><path class="a" d="M1005.612,2078.788c-3.487,4.17-5.763,8.885-4.872,10.814.645,1.344,3.474.937,4.657.616.683-.187.721.111.293.317a9.955,9.955,0,0,1-4.388,1.12,3.828,3.828,0,0,1-3.345-1.842c-1.962-4.088,1.415-10.176,6.784-14.968a38.145,38.145,0,0,1,10.15-6.557c10.3-4.484,16.044.816,16.94,3.27,1.168,3.168-1.458,8.472-6.108,13.517a61.787,61.787,0,0,1-10.139,8.487,60.483,60.483,0,0,0,14.848,2.8c2.212.065,6.469-.007,8.213-.844a4.1,4.1,0,0,0,2.686-3.786c.019-.255.132-.239.213,0a8.671,8.671,0,0,1,.273,3.21,6.811,6.811,0,0,1-.742,2.925,3.525,3.525,0,0,1-1.192.888c-5.461,2.62-19.517-.943-25.281-3.208a56.566,56.566,0,0,0-1.236,10.548c-.019,1.205-.007,3.063.336,2.9.629-.3,3.475-6.908,4.306-9.135.105-.367.332-.406.3-.108-.25,3.145-1.742,9.348-3.057,9.978a5.609,5.609,0,0,1-2.36.359,3.153,3.153,0,0,1-2.841-1.522c-.811-1.616-.036-7.334.905-12.85l-.411-.05c-1.683-.283-1.894-3.875-.481-4.377.214-.068.831.34,1.619.736.3-1.584,1-4.523,1.4-6.4,1.512-6.6,3.046-10.22,2.223-11.935a.8.8,0,0,0-.559-.506c-.014-.029,0-.071.087-.112.744-.357,4.232.608,4.726,1.637.164.343-.283,2.563-1.292,6.106-.874,3.163-1.81,6.566-2.56,9.987a86.376,86.376,0,0,0,7.362-7.823c4.076-4.629,6.475-9.965,4.98-13.082-.919-1.916-3.837-3.013-9.75-.529A34.209,34.209,0,0,0,1005.612,2078.788Z" transform="translate(-997.392 -2057.674)"/><path class="a" d="M1060.161,2076.705c1.871-.487,4.639.956,5.046,2.521.4,1.534-5.894,8.576-11.5,10.068a8.915,8.915,0,0,0-.691,4.144c.089.468.474.565.965.437a5.256,5.256,0,0,0,1.96-1.034,59.276,59.276,0,0,0,10.958-11.4c.1-.124.592.009.5.165-3.039,5.573-9.279,13.322-12.348,14.12-1.473.384-5.188-1.3-5.61-2.8a7.438,7.438,0,0,1,.475-4.219,26.47,26.47,0,0,1,5.106-8.208C1056.811,2078.56,1058.6,2077.112,1060.161,2076.705Zm-6.019,11.623c2.327-1.129,4.708-3.812,6.419-5.928,1.657-2.069,2.3-4.367,2.05-4.465C1060.156,2078.574,1056.308,2083.933,1054.142,2088.328Z" transform="translate(-1014.925 -2061.074)"/><path class="a" d="M1079.253,2080.809a52.617,52.617,0,0,1,10.3-4.243c.245-.072.239.283.092.371a78.387,78.387,0,0,0-8.489,4.3c1.542.392,3,1.248,3.146,2.156.122.751.067,1.4-1.153,2.789a18.406,18.406,0,0,1-8.867,4.942c-2.034.331-4.341-1.608-4.238-2.749.153-1.631,4.087-4.9,8.182-6.984-1.885-.336-3.979-.767-4.214-2.206-.422-2.6,5.383-7.01,8.951-7.59,1.878-.305,3.848,1.142,4.031,2.268.24,1.471-2.624,3.222-3.532,3.369-.188.031-.391-.033-.312-.142.471-.655,2.436-3,2.34-3.593-.021-.125-.089-.146-.338-.106a13.384,13.384,0,0,0-5.22,2.872c-2.065,1.717-3.063,3.486-2.622,3.832A6.341,6.341,0,0,0,1079.253,2080.809Zm1.746,1.451c-.046-.282-.124-.365-.718-.462-1.019.647-2.033,1.326-3.121,2.146-3.467,2.586-5.547,5.206-5.486,5.581.682.242,5.649-3.2,7.092-4.4C1079.278,2084.724,1081.151,2083.2,1081,2082.26Z" transform="translate(-1021.931 -2059.367)"/><path class="a" d="M1096.569,2079.5c.009.095.046.155.172.143.663-.062,5.6-4.883,9.417-9.345.2-.242.474-.044.336.191-.609.98-1.964,2.857-3.845,5.229s-5.313,6.226-6.26,6.314a4.143,4.143,0,0,1-1.876-.654c-.914-.583-1.644-1.248-1.669-1.851a1.494,1.494,0,0,1,.079-.516c.476-1.732,2.836-6.155,5.2-10.165l4.452-7.61a9.265,9.265,0,0,0-3.4,1.749c-.341.447.63.961,1.193,1.195.132.052.046.155-.048.164a3.6,3.6,0,0,1-2.767-.985c-.64-1.405.893-3.076,1.381-3.312a19.587,19.587,0,0,1,5.147-1.5c.569-1.072,1.023-2.006,1.341-2.7.574-1.359.762-2.427.167-2.659a2.267,2.267,0,0,1,1.588.3,4.327,4.327,0,0,1,2.222,2.659.455.455,0,0,1-.046.2l-.936,1.584c4.041-.375,10.886-.056,12.437.532.1.023.009.1-.023.1-2.035.03-5.6.361-9.127.816-.692.1-2.549.333-4.552.709l-4.889,8.384C1102.1,2068.733,1096.446,2078.175,1096.569,2079.5Z" transform="translate(-1029.634 -2053.15)"/><path class="a" d="M1124.967,2073.988a4.166,4.166,0,0,1,1.261,2.015c0,.063-.031.1-.062.159l-.782.9c-2.72,3.173-4.336,5.952-4.36,6.523,0,.1,0,.158.16.156.7-.008,5.971-4.481,10.107-8.59.219-.225.571.025.416.249-1.465,2.11-8.822,10.033-10.812,10.629a.431.431,0,0,1-.158.034,3.669,3.669,0,0,1-2.1-.862c-.8-.656-1.574-1.63-1.518-2.3a1.122,1.122,0,0,1,.06-.318,34.869,34.869,0,0,1,3.677-5.31c-1.033,1.123-2.818,2.984-4.042,4.045-3.2,2.766-5.808,4.828-6.982,4.842-.919.011-3.638-1.827-3.658-3.508-.024-2.029,2.972-5.967,6.55-9.023,3.044-2.606,6.508-4.678,8.79-4.705,2.981-.036,5.377,1.424,5.4,3.485C1126.92,2072.886,1125.787,2073.6,1124.967,2073.988Zm-2.072-.831a2.281,2.281,0,0,1,1.463.331,3.451,3.451,0,0,0,.486-1.75c.054-.762-.3-1.3-.968-1.289-2.061.025-5.894,2.99-7.962,4.981-3.542,3.405-6.509,7.183-6.5,8.261,0,.095.034.222.256.219,1.205-.015,13.126-8.057,13.35-10.533A.278.278,0,0,0,1122.9,2073.157Z" transform="translate(-1034.135 -2058.478)"/><path class="a" d="M1157.678,2075.678c-3.138,3.172-7.214,8.166-7.31,8.826-.009.094.017.161.143.173.663.063,6.284-3.764,10.871-7.434.242-.2.6.058.421.263-.782.849-2.463,2.44-4.754,4.419s-6.382,5.124-7.329,5.033c-1.2-.115-3.147-2.4-3.032-3.6.1-1.01,2.8-3.937,4.583-5.964-4.038,3.6-9.061,7.829-10.983,8.6a.423.423,0,0,1-.161.017c-1.262-.121-3.545-2.569-3.4-4.083.111-1.168,4.33-5.639,8.094-9.706a7.3,7.3,0,0,0,1.361-1.909.549.549,0,0,0-.438-.743,1.655,1.655,0,0,1,1.5.59c1.6,1.618,1.748,2.715,1.674,3.154a.451.451,0,0,1-.081.183s-2.483,2.311-3.824,3.68c-2.755,2.827-4.791,5.467-4.852,6.1-.011.126.033.322.223.34,1.073.1,12.079-7.733,14.553-10.3a4.038,4.038,0,0,0,1.334-2.294.509.509,0,0,0-.236-.532,2.375,2.375,0,0,1,1.5.653,4.29,4.29,0,0,1,1.695,2.933.451.451,0,0,1-.081.183S1158.491,2074.832,1157.678,2075.678Z" transform="translate(-1044.455 -2058.688)"/><path class="a" d="M1168.3,2086.494c-.8.976-1.127,1.655-1.063,1.829.182.229-.123.3-.453.171s-2.367-2.459-1.875-3.333a10.657,10.657,0,0,1,1.6-1.951l2.081-2.085c1.637-1.622,4.417-4.314,5.424-5.347,1.012-1.064,1.677-2.164,1.17-2.552a2.008,2.008,0,0,1,1.453.668c1.309,1.254,1.534,2.427,1.419,2.857-.072.374-1.748,1.859-3.744,3.669.947-.721,1.95-1.4,3.015-2.066,2.081-1.245,6.362-3.681,7.884-3.709.678,0,1.418,1.856,1.036,3.332a4,4,0,0,1-1.013,1.9,1.52,1.52,0,0,0-.1-.988,1.971,1.971,0,0,0-1.635-.9,11.275,11.275,0,0,0-6.661,1.717A30.446,30.446,0,0,0,1168.3,2086.494Z" transform="translate(-1053.949 -2059.93)"/><path class="a" d="M1205.409,2086.438a4.156,4.156,0,0,1,.589,2.3c-.019.06-.058.082-.107.133l-1.017.617c-3.556,2.2-5.939,4.352-6.136,4.888-.028.091-.046.152.106.2.667.2,7.049-2.454,12.238-5.112.277-.147.536.2.32.363-2.037,1.566-11.452,6.877-13.529,6.839a.418.418,0,0,1-.16-.016,3.663,3.663,0,0,1-1.742-1.46,3.591,3.591,0,0,1-.748-2.649,1.112,1.112,0,0,1,.153-.285,34.891,34.891,0,0,1,5.116-3.939c-1.325.755-3.591,1.986-5.079,2.625-3.89,1.662-7,2.834-8.121,2.49-.879-.269-2.91-2.845-2.419-4.453.593-1.94,4.644-4.78,8.982-6.6,3.692-1.557,7.621-2.478,9.8-1.81,2.85.871,4.689,2.991,4.087,4.963C1207.6,2085.981,1206.308,2086.314,1205.409,2086.438Zm-1.72-1.421a2.278,2.278,0,0,1,1.293.76,3.457,3.457,0,0,0,1-1.519c.283-.71.107-1.327-.53-1.521-1.971-.6-6.524,1.056-9.1,2.324-4.409,2.167-8.383,4.865-8.7,5.9-.028.091-.034.221.178.286,1.152.352,14.952-3.685,15.918-5.976A.274.274,0,0,0,1203.688,2085.017Z" transform="translate(-1060.694 -2062.335)"/><path class="a" d="M1230.542,2099.922c-2.648,1.449-4.886,2.847-5.2,3.436a.136.136,0,0,0,.076.211c.63.3,7.116-1.406,12.748-3.306.3-.106.5.273.264.405-1.01.505-3.369,1.565-5.929,2.53-2.757,1.012-7.684,2.682-8.6,2.249-1.348-.636-2.317-3.409-1.717-4.458a1.13,1.13,0,0,1,.193-.26,40.846,40.846,0,0,1,6.463-4.03c2.228-1.227,5.653-2.836,5.693-2.922a.062.062,0,0,0-.031-.084c-.2-.095-3.4.218-8.467,1.891-3.985,1.309-11.035,3.835-11.2,4.845,0,.071,0,.142.06.169.217.208-.193.26-.481.054-.606-.427-1.43-3.061-.933-3.667,1.146-1.387,7.306-4.4,11.209-6.8,1.245-.78,2.161-1.679,1.767-2.181a2.331,2.331,0,0,1,1.3,1.177,3.591,3.591,0,0,1,.548,2.924c-.271.574-5.183,2.881-8.994,5.009,1.979-.924,4.4-1.814,6.538-2.558,1.76-.607,8.5-3,9.761-2.4a3.416,3.416,0,0,1,1.3,1.631c.729,1.5.609,2.5.418,2.827a.457.457,0,0,1-.139.145C1235,2097.752,1233.526,2098.281,1230.542,2099.922Z" transform="translate(-1070.332 -2064.921)"/><path class="a" d="M1241.563,2109.112a.136.136,0,0,0,.049.219c.561.359,7.416-.417,13.173-1.593.306-.067.4.256.147.357-1.083.4-3.3,1.05-6.246,1.767s-8.017,1.651-8.819,1.138a4.152,4.152,0,0,1-1.079-1.667,3.115,3.115,0,0,1-.181-2.486,1.5,1.5,0,0,1,.38-.36c1.439-1.075,6.018-3.116,10.349-4.828l8.188-3.272a9.266,9.266,0,0,0-3.761-.71c-.543.142-.093,1.145.209,1.676.072.122-.059.15-.139.1a3.6,3.6,0,0,1-1.579-2.476c.358-1.5,2.593-1.881,3.124-1.768a19.538,19.538,0,0,1,4.982,1.979c1.108-.5,2.04-.955,2.719-1.311,1.289-.72,2.092-1.448,1.765-2a2.265,2.265,0,0,1,1.07,1.211,4.327,4.327,0,0,1,.121,3.463.453.453,0,0,1-.156.127l-1.711.675c3.42,2.186,8.626,6.642,9.49,8.059.063.078-.051.08-.078.063-1.624-1.226-4.644-3.155-7.7-4.961-.606-.349-2.216-1.3-4.029-2.235l-9.008,3.614C1252.54,2104.007,1242.281,2107.989,1241.563,2109.112Z" transform="translate(-1078.805 -2066.908)"/></g><g transform="translate(49.066 89.665)"><path class="a" d="M1080.638,2126.281a4.877,4.877,0,1,1-4.279-7.225,4.946,4.946,0,0,1,4.266,2.483c-.832.423-.9.462-1.822.925a2.78,2.78,0,0,0-2.444-1.387,2.853,2.853,0,1,0,0,5.706,2.681,2.681,0,0,0,2.5-1.427h-.211c-.423,0-1.387.013-1.915.013a1.545,1.545,0,0,1-.37-.013v-1.744c1.334,0,3.2.013,4.821.013A5.993,5.993,0,0,1,1080.638,2126.281Z" transform="translate(-1071.485 -2119.017)"/><path class="a" d="M1091.614,2128.757a4.88,4.88,0,1,1,4.887-4.873A4.87,4.87,0,0,1,1091.614,2128.757Zm-2.879-4.873a2.866,2.866,0,1,0,2.879-2.892A2.9,2.9,0,0,0,1088.736,2123.884Z" transform="translate(-1076.638 -2118.997)"/><path class="a" d="M1107.13,2128.757a4.88,4.88,0,1,1,4.887-4.873A4.869,4.869,0,0,1,1107.13,2128.757Zm-2.879-4.873a2.866,2.866,0,1,0,2.879-2.892A2.9,2.9,0,0,0,1104.251,2123.884Z" transform="translate(-1081.879 -2118.997)"/><path class="a" d="M1118.789,2119.316h4.068c2.444,0,4.279,1.545,4.279,4.662,0,2.733-1.4,4.768-4.279,4.768h-4.068Zm2.074,7.687h1.849c1.2,0,2.351-.74,2.351-2.826,0-1.9-.673-3.117-2.721-3.117h-1.479Z" transform="translate(-1087.463 -2119.105)"/><path class="a" d="M1141.338,2126.969v1.757h-2.007v-9.47h6.881V2121h-4.874v2.126h4.306v1.836h-4.306Z" transform="translate(-1094.402 -2119.084)"/><path class="a" d="M1155.751,2128.757a4.88,4.88,0,1,1,4.886-4.873A4.87,4.87,0,0,1,1155.751,2128.757Zm-2.879-4.873a2.866,2.866,0,1,0,2.879-2.892A2.9,2.9,0,0,0,1152.872,2123.884Z" transform="translate(-1098.302 -2118.997)"/><path class="a" d="M1171.267,2128.757a4.88,4.88,0,1,1,4.886-4.873A4.87,4.87,0,0,1,1171.267,2128.757Zm-2.879-4.873a2.866,2.866,0,1,0,2.879-2.892A2.9,2.9,0,0,0,1168.388,2123.884Z" transform="translate(-1103.543 -2118.997)"/><path class="a" d="M1182.926,2119.316h4.068c2.444,0,4.279,1.545,4.279,4.662,0,2.733-1.4,4.768-4.279,4.768h-4.068ZM1185,2127h1.849c1.2,0,2.352-.74,2.352-2.826,0-1.9-.674-3.117-2.721-3.117H1185Z" transform="translate(-1109.128 -2119.105)"/></g><g transform="translate(47.644 105.885)"><path class="a" d="M1073.4,2155.569c-.129.327-.209.635-.139.754l.03.05c0,.089-.893-.238-.893-.783-.069,0-.138-.01-.2-.01-.942-.05-2.618-.774-2.837-1.716-.377-1.656,2.877-3.3,6.576-3.967.307-.387.615-.764.873-1.072-.119-.088-.248-.238-.248-.317,0-.1.219-.119.655-.158,1.22-1.428,2.43-2.767,2.479-3.362.01-.159-.02-.238-.089-.278-.01-.01.03-.03.06-.02a.972.972,0,0,1,.456.258c.446.387.615.714.585.883a10.085,10.085,0,0,1-1.2,1.6c-.277.337-.526.615-.773.893,1.626-.308,3.689-1.558,3.987-2.539.308-1.012-.823-1.5-1.7-1.587a9.859,9.859,0,0,0-5.048.991c-.823.4-2.023,1.19-2.023,1.865,0,.238.248.447.873.6.2.05.159.129.04.119a2.265,2.265,0,0,1-1.19-.327,1.1,1.1,0,0,1-.556-.9c.03-1.032,1.279-1.983,3.025-2.539a9.824,9.824,0,0,1,5.217-.277,2.9,2.9,0,0,1,2.261,2.747c-.267,1.082-1.964,1.736-3.52,2.083a3.713,3.713,0,0,1,2.45,1.25,11.659,11.659,0,0,1,1.636.4c.109.04.129.119-.04.08a9.8,9.8,0,0,0-1.488-.248,1.3,1.3,0,0,1,.119.427c.06,1.4-1.676,2.757-4.205,3.818A17.849,17.849,0,0,1,1073.4,2155.569Zm-.685-.893a26.779,26.779,0,0,1,2.569-3.957c-.277.089-.565.168-.853.268-2.946.972-4.493,2.449-4.255,3.254.1.327.5.416.833.456A7.571,7.571,0,0,0,1072.72,2154.677Zm4.265-4.383c-.218.268-.456.556-.714.883a26.767,26.767,0,0,0-2.291,3.3,24.385,24.385,0,0,0,4.225-1.369c2.281-.942,3.649-2.4,3.7-3.114A19.835,19.835,0,0,0,1076.985,2150.293Zm1.26-1.438c-.228.248-.466.506-.724.813a18.211,18.211,0,0,1,4.334.06c-.248-.6-1.458-.961-2.568-.961A8.19,8.19,0,0,0,1078.244,2148.855Z" transform="translate(-1069.338 -2143.491)"/><path class="a" d="M1095.468,2151.316a1.305,1.305,0,0,1,.387.635c0,.02-.01.03-.02.05l-.248.277a7.139,7.139,0,0,0-1.389,2.023c0,.03,0,.05.05.05a18.669,18.669,0,0,0,3.193-2.647c.07-.07.179.01.129.079-.466.655-2.8,3.1-3.422,3.283a.134.134,0,0,1-.05.01,1.143,1.143,0,0,1-.654-.278c-.248-.208-.486-.516-.466-.724a.355.355,0,0,1,.02-.1,10.944,10.944,0,0,1,1.17-1.646c-.327.347-.893.922-1.279,1.25a6.332,6.332,0,0,1-2.2,1.488c-.287,0-1.13-.585-1.13-1.111,0-.634.952-1.854,2.083-2.8a5.425,5.425,0,0,1,2.767-1.438c.932,0,1.676.466,1.676,1.111C1096.083,2150.979,1095.726,2151.2,1095.468,2151.316Zm-.645-.268a.713.713,0,0,1,.456.109,1.081,1.081,0,0,0,.159-.546c.02-.238-.089-.406-.3-.406a5.586,5.586,0,0,0-2.509,1.528,7.868,7.868,0,0,0-2.063,2.558c0,.03.01.07.079.07.377,0,4.136-2.469,4.215-3.243A.087.087,0,0,0,1094.823,2151.048Z" transform="translate(-1076.168 -2145.595)"/><path class="a" d="M1100.243,2154.24c-.188.348-.248.576-.218.625.07.06-.02.1-.129.08s-.873-.615-.774-.913a3.351,3.351,0,0,1,.377-.695l.516-.764c.407-.595,1.1-1.587,1.349-1.964s.387-.763.208-.853a.627.627,0,0,1,.486.119c.476.307.615.654.6.793a7.952,7.952,0,0,1-.932,1.349c.248-.278.516-.546.8-.813a9.123,9.123,0,0,1,2.2-1.606c.208-.04.545.485.515.961a1.258,1.258,0,0,1-.2.645.478.478,0,0,0-.089-.3.619.619,0,0,0-.556-.178,3.53,3.53,0,0,0-1.944.923A9.527,9.527,0,0,0,1100.243,2154.24Z" transform="translate(-1079.396 -2145.554)"/><path class="a" d="M1115.327,2151.316a1.3,1.3,0,0,1,.387.635c0,.02-.01.03-.02.05l-.248.277a7.149,7.149,0,0,0-1.389,2.023c0,.03,0,.05.05.05a18.669,18.669,0,0,0,3.193-2.647c.07-.07.179.01.129.079-.466.655-2.8,3.1-3.422,3.283a.134.134,0,0,1-.05.01,1.142,1.142,0,0,1-.654-.278c-.248-.208-.486-.516-.466-.724a.351.351,0,0,1,.02-.1,10.927,10.927,0,0,1,1.17-1.646c-.327.347-.893.922-1.279,1.25a6.321,6.321,0,0,1-2.2,1.488c-.287,0-1.13-.585-1.13-1.111,0-.634.952-1.854,2.083-2.8a5.425,5.425,0,0,1,2.767-1.438c.932,0,1.676.466,1.676,1.111C1115.942,2150.979,1115.585,2151.2,1115.327,2151.316Zm-.645-.268a.713.713,0,0,1,.456.109,1.079,1.079,0,0,0,.159-.546c.02-.238-.089-.406-.3-.406a5.585,5.585,0,0,0-2.509,1.528,7.867,7.867,0,0,0-2.063,2.558c0,.03.01.07.079.07.377,0,4.136-2.469,4.215-3.243A.086.086,0,0,0,1114.682,2151.048Z" transform="translate(-1082.876 -2145.595)"/><path class="a" d="M1124.2,2152.64a6.568,6.568,0,0,0-1.012,1.666c0,.03.01.05.05.05a18.91,18.91,0,0,0,3.163-2.638c.069-.07.179.01.129.079-.218.278-.744.893-1.339,1.508-.644.654-1.814,1.785-2.132,1.785-.466,0-1.11-.655-1.081-1.031a.355.355,0,0,1,.02-.1,12.784,12.784,0,0,1,1.289-2c.466-.644,1.22-1.557,1.22-1.587a.019.019,0,0,0-.02-.02,9.539,9.539,0,0,0-2.142,1.666c-.952.9-2.608,2.559-2.519,2.866.01.02.02.04.04.04.089.03-.02.1-.129.08-.228-.04-.813-.675-.754-.913a30.793,30.793,0,0,1,2.261-3.422c.248-.387.387-.763.208-.853a.728.728,0,0,1,.526.159,1.121,1.121,0,0,1,.545.754,27.945,27.945,0,0,1-1.874,2.618c.436-.526,1-1.1,1.508-1.6.416-.407,2-1.984,2.44-1.984a1.066,1.066,0,0,1,.585.288c.407.327.506.625.5.744a.141.141,0,0,1-.02.06C1125.172,2151.43,1124.825,2151.777,1124.2,2152.64Z" transform="translate(-1086.106 -2145.61)"/><path class="a" d="M1132.638,2152.574c0,.03.01.05.05.05a19.028,19.028,0,0,0,3.163-2.638c.069-.07.188,0,.139.069-.219.288-.695.833-1.349,1.518a8.469,8.469,0,0,1-2.132,1.785,1.4,1.4,0,0,1-.575-.238c-.3-.208-.5-.456-.485-.644a.484.484,0,0,1,.039-.159,9.208,9.208,0,0,1,.8-1.408l-.506.476a8.6,8.6,0,0,1-2.658,1.964c-.277,0-1.1-.6-1.14-1.071a1.516,1.516,0,0,1,.218-.734c.675-1.279,2.857-3.322,4.235-3.511a1.074,1.074,0,0,1,.119-.01c.932,0,1.27.367,1.319.625.863-1.21,1.814-2.509,2.172-3.184.218-.407.307-.734.129-.823a.713.713,0,0,1,.466.118,1.514,1.514,0,0,1,.665.913.143.143,0,0,1-.02.06l-2.559,3.57A21.706,21.706,0,0,0,1132.638,2152.574Zm-3.63-.02a.063.063,0,0,0,.07.07,10.87,10.87,0,0,0,3.779-2.717,4.991,4.991,0,0,0,.695-1.19.229.229,0,0,0-.238-.2c-1.081,0-3.144,2.232-3.789,3.114C1129.107,2152.208,1129,2152.446,1129.008,2152.554Z" transform="translate(-1089.148 -2143.878)"/><path class="a" d="M1151.821,2148.017c1.19-1.071,2.459-2.618,2.459-3.451,0-.287-.3-.417-.565-.437-1.656-.119-4.314,1.131-6.278,3.015-2.1,2.063-3.56,4.473-3.3,6.169.109.754.754,1.21,1.726,1.21,2.113,0,5.792-2.152,9.2-5.355.148-.139.138.06.079.119-1.894,2.044-5.92,6.05-8.29,6.05-1.339,0-3.779-.773-3.938-2.737-.119-1.587,1.071-3.73,2.836-5.465,2.023-1.974,4.849-3.571,6.9-3.571,1.855,0,2.411,1.14,2.46,1.626.079.714-1.279,2.2-3.234,3C1151.771,2148.255,1151.632,2148.186,1151.821,2148.017Z" transform="translate(-1094.188 -2143.516)"/><path class="a" d="M1161.854,2150.324a2.325,2.325,0,0,1,1.339-.605,1.523,1.523,0,0,1,1.527,1.319,9.667,9.667,0,0,0,1.547-.02c.119-.02.248.07-.059.169a6.653,6.653,0,0,1-1.538.188c-.069,1.072-2.36,3.69-4.076,3.69-.992,0-1.874-.476-1.874-1.319C1158.72,2152.546,1160.564,2150.691,1161.854,2150.324Zm-1.934,4.294c.873,0,2.985-1.865,3.709-3.263a3.3,3.3,0,0,1-1.121-.278,5.023,5.023,0,0,0-2.836,3.213C1159.672,2154.48,1159.682,2154.619,1159.92,2154.619Zm3.521-4.572a.657.657,0,0,0-.545.466c-.04.248.337.387.912.466a1.082,1.082,0,0,0,.089-.447C1163.9,2150.175,1163.758,2149.987,1163.44,2150.047Z" transform="translate(-1099.529 -2145.595)"/><path class="a" d="M1167.5,2149.14c-.159-.05-.277-.129-.277-.239a1.77,1.77,0,0,1,.506-.763,4.455,4.455,0,0,0,.634.278,32.472,32.472,0,0,0,1.934-2.926c.219-.406.308-.734.129-.823a.612.612,0,0,1,.466.109,1.282,1.282,0,0,1,.635.913.141.141,0,0,1-.019.06l-1.974,2.856a5.278,5.278,0,0,0,.566.03,6.7,6.7,0,0,0,1.428-.139c.06-.02.069.06.02.089a6.539,6.539,0,0,1-2.43.605l-.674.932a6.27,6.27,0,0,1,.267,1.736c.04,3.659-2.41,5.961-3.183,5.961-.605,0-1.468-.6-1.477-1.18-.011-1.111,1.17-3.342,2.36-5.356.317-.535.823-1.308,1.279-1.934A.962.962,0,0,0,1167.5,2149.14Zm.773,1.22c-1.626,2.479-3.362,6.159-3.362,6.823,0,.139.079.129.119.129a5.248,5.248,0,0,0,2.053-2.083A7.059,7.059,0,0,0,1168.276,2150.36Z" transform="translate(-1101.33 -2143.885)"/><path class="a" d="M1172.775,2149.14c-.159-.05-.278-.129-.278-.239a1.777,1.777,0,0,1,.506-.763,4.462,4.462,0,0,0,.635.278,32.478,32.478,0,0,0,1.934-2.926c.219-.406.307-.734.129-.823a.612.612,0,0,1,.466.109,1.282,1.282,0,0,1,.634.913.14.14,0,0,1-.02.06l-1.973,2.856a5.268,5.268,0,0,0,.566.03,6.7,6.7,0,0,0,1.428-.139c.06-.02.069.06.02.089a6.539,6.539,0,0,1-2.43.605l-.674.932a6.265,6.265,0,0,1,.268,1.736c.04,3.659-2.41,5.961-3.183,5.961-.605,0-1.468-.6-1.478-1.18-.01-1.111,1.17-3.342,2.361-5.356.317-.535.823-1.308,1.279-1.934A.948.948,0,0,0,1172.775,2149.14Zm.773,1.22c-1.626,2.479-3.362,6.159-3.362,6.823,0,.139.079.129.119.129a5.248,5.248,0,0,0,2.053-2.083A7.059,7.059,0,0,0,1173.548,2150.36Z" transform="translate(-1103.111 -2143.885)"/><path class="a" d="M1181.978,2149.749a1.475,1.475,0,0,1,1.328,1.161c0,.5-2.459,2.132-4.274,2.142a2.783,2.783,0,0,0-.536,1.2c-.01.148.1.208.258.208a1.65,1.65,0,0,0,.675-.159,18.533,18.533,0,0,0,4.215-2.588c.04-.03.178.05.138.089-1.358,1.448-3.858,3.3-4.849,3.3-.476,0-1.468-.8-1.478-1.289a2.329,2.329,0,0,1,.476-1.24,8.271,8.271,0,0,1,2.192-2.083A3.873,3.873,0,0,1,1181.978,2149.749Zm-2.738,3.045a7.041,7.041,0,0,0,2.41-1.289c.664-.5,1.041-1.14.972-1.19C1181.829,2150.315,1180.242,2151.634,1179.24,2152.794Z" transform="translate(-1105.858 -2145.605)"/><path class="a" d="M1189.451,2149.749a1.475,1.475,0,0,1,1.329,1.161c0,.5-2.459,2.132-4.275,2.142a2.791,2.791,0,0,0-.536,1.2c-.01.148.1.208.258.208a1.647,1.647,0,0,0,.674-.159,18.522,18.522,0,0,0,4.215-2.588c.04-.03.179.05.139.089-1.359,1.448-3.858,3.3-4.85,3.3-.476,0-1.468-.8-1.478-1.289a2.32,2.32,0,0,1,.476-1.24,8.257,8.257,0,0,1,2.191-2.083A3.875,3.875,0,0,1,1189.451,2149.749Zm-2.737,3.045a7.036,7.036,0,0,0,2.41-1.289c.664-.5,1.041-1.14.972-1.19C1189.3,2150.315,1187.715,2151.634,1186.714,2152.794Z" transform="translate(-1108.382 -2145.605)"/></g></svg>