<svg xmlns="http://www.w3.org/2000/svg" width="182.063" height="158.972" viewBox="0 0 182.063 158.972"><defs><style>.a{fill:#5b4f47;}.b,.c{fill:none;stroke:#5b4f47;stroke-miterlimit:10;}.b{stroke-width:3.75px;}.c{stroke-width:4.777px;}</style></defs><g transform="translate(23.237 -1963.205)"><g transform="translate(35.158 2080.976)"><path class="a" d="M68.1,2167.082v-1.8h3.013v7.225H67.234q-2.292,0-2.291-2.5v-9.784q0-2.539,2.291-2.539H68.6a2.253,2.253,0,0,1,2.518,2.58v1.611H69.134v-1.321q0-1.074-.846-1.073h-.5q-.867,0-.867,1.073v9.083q0,1.074.867,1.073h1.342v-3.633Z" transform="translate(-64.943 -2157.69)"/><path class="a" d="M76.695,2157.69h3.881q2.271,0,2.271,2.539v3.653q0,1.941-1.177,2.457l1.383,6.172H81.174l-1.3-5.987h-1.2v5.987H76.695Zm1.981,7.142h1.3q.887,0,.888-1.073v-3.2q0-1.074-.888-1.073h-1.3Z" transform="translate(-68.913 -2157.69)"/><path class="a" d="M88.477,2172.511V2157.69h1.982v14.821Z" transform="translate(-72.892 -2157.69)"/><path class="a" d="M98.981,2172.511H94.275V2157.69h1.981v13.025h2.725Z" transform="translate(-74.851 -2157.69)"/><path class="a" d="M107.8,2172.511H103.1V2157.69h1.982v13.025H107.8Z" transform="translate(-77.83 -2157.69)"/><path class="a" d="M115.61,2161.674v-1.3a.776.776,0,0,0-.867-.887h-.31q-.846,0-.846.887v2.457a.725.725,0,0,0,.166.557,4.081,4.081,0,0,0,.536.372l1.878,1.012a8.544,8.544,0,0,1,.877.547,1.4,1.4,0,0,1,.4.475,2.621,2.621,0,0,1,.144,1.063v3.158q0,2.5-2.394,2.5h-1.218q-2.374,0-2.373-2.725v-.743h1.981v.805a.775.775,0,0,0,.887.867h.351q.785,0,.785-.867v-2.518a.728.728,0,0,0-.165-.557,4.212,4.212,0,0,0-.537-.372l-1.878-1.052a5.873,5.873,0,0,1-.9-.557,1.267,1.267,0,0,1-.4-.588,2.953,2.953,0,0,1-.124-.94v-3.034q0-2.539,2.373-2.539h1.239q2.373,0,2.373,2.539v1.445Z" transform="translate(-80.705 -2157.69)"/></g><g transform="translate(-21.632 1963.205)"><path class="a" d="M-8.038,2014.533q2.819-.643,3.826,1.217l3.022,5.581q1.8,3.319-1.583,5.149l-5.985,3.24-12.056-22.264,5.086-2.754q3.969-2.149,6.152,1.882l2.317,4.279q1.042,1.923-.864,3.515Zm-4.711.706,1.4-.755a1.67,1.67,0,0,0,.832-2.536l-1.881-3.473q-.873-1.611-2.207-.89l-1.767.958Zm5.508,10.171,2.232-1.209q1.178-.638.658-1.6l-2.67-4.931q-.857-1.581-2.624-.624l-1.643.889Z" transform="translate(20.814 -1987.991)"/><path class="a" d="M21.161,2016.221l-3.2,1.11-6.88-19.822q-1.422-4.1,2.408-5.428l2.4-.832q3.831-1.329,5.253,2.768l6.88,19.822-3.2,1.11-3.042-8.762-3.664,1.272Zm-.383-12.932-2.763-7.962a1.308,1.308,0,0,0-1.885-.913l-.866.3a1.31,1.31,0,0,0-.914,1.885l2.764,7.962Z" transform="translate(10.17 -1983.59)"/><path class="a" d="M41.174,1984.322l6.518-1.214q3.813-.71,4.608,3.554l1.142,6.136q.607,3.259-1.208,4.493l4.253,9.933-3.155.588-4.056-9.647-2.011.374,1.872,10.054-3.328.62Zm5.561,11.375,2.184-.407q1.491-.278,1.156-2.08l-1-5.373q-.336-1.8-1.826-1.526l-2.185.406Z" transform="translate(-0.124 -1980.916)"/><path class="a" d="M81.982,1992.066q2.815.66,2.9,2.773l.265,6.341q.157,3.771-3.683,3.93l-6.8.283-1.056-25.3,5.778-.241q4.51-.188,4.7,4.392l.2,4.861q.091,2.186-2.319,2.779Zm-4.542-1.434,1.585-.066q1.937-.081,1.861-1.913l-.164-3.946q-.076-1.831-1.592-1.769l-2.008.083Zm.482,11.556,2.537-.106q1.338-.057,1.293-1.148l-.234-5.6q-.075-1.8-2.083-1.713l-1.867.078Z" transform="translate(-11.081 -1979.849)"/><path class="a" d="M102.843,2005.319l2.242-25.219,8.36.743-.272,3.055-4.988-.444-.681,7.658,4.426.393-.272,3.056-4.426-.394-.746,8.4,4.988.444-.272,3.056Z" transform="translate(-20.955 -1979.934)"/><path class="a" d="M137.817,2005.172l-.357,1.583q-.946,4.2-4.9,3.305l-2.133-.481q-3.956-.892-3.01-5.088l3.675-16.306q.946-4.2,4.9-3.305l2.133.481q3.955.891,3.01,5.089l-.628,2.787-3.3-.744.574-2.546a1.325,1.325,0,0,0-1.154-1.777l-.654-.148q-1.307-.3-1.632,1.15l-3.567,15.824q-.326,1.444.982,1.739l.825.186q1.307.295,1.633-1.15l.3-1.342Z" transform="translate(-29.193 -1981.495)"/><path class="a" d="M172.031,1996.034l-7.536,19.089q-1.761,4.461-5.566,2.959l-2.657-1.049q-3.772-1.489-2-5.982l7.523-19.057,3.149,1.243-7.562,19.155q-.609,1.542.769,2.085l1.279.505q1.279.5,1.888-1.036l7.562-19.156Z" transform="translate(-38.136 -1983.951)"/><path class="a" d="M177.931,2027.924l12.91-21.78,7.22,4.279-1.564,2.639-4.307-2.553-3.92,6.612,3.822,2.266-1.565,2.64-3.822-2.265-4.3,7.249,4.308,2.553-1.565,2.639Z" transform="translate(-46.318 -1988.731)"/></g><g transform="translate(20.777 1992.965)"><path class="a" d="M92.161,2052.26A3.374,3.374,0,1,0,98.9,2052c-.119-1.057-.37-2.1-2.456-3.867-.652-.551-1.444-2.439-.032-4.91s-.546-6.017-.546-6.017,3.806,2.742,5.475,5.875c.556,1.043-.452,2.363.864,3.9s1.926,1.359,3.193,2.308c2.185,1.635,1.974,3.942,1.342,6.388-2.877,11.116-8.176,20.124-30.849,20.243s-27.715-9.379-29.551-13.751,1.013-7.108.828-12.959c-.255-8.029-3.942-9.176-3.942-9.176s4.036.22,5.576,1.3,1.593,3.483,2.087,4.193a2.1,2.1,0,0,0,2.811.8,2.079,2.079,0,0,0,.631-3.134c-.786-1.032-5.441-6.043-3.659-11.243s9.015-7.16,9.015-7.16c-.945,2.564-6.41,11.632-1.166,13.264a3.283,3.283,0,0,0,4.407-2.509,8.638,8.638,0,0,0-.505-4.291,8.936,8.936,0,0,1,3.26,3.678,8.472,8.472,0,0,1,.072,5.107c-.866,2.34-5.529,6.963-6.92,10.3a1.842,1.842,0,1,0,3.4,1.35,4.457,4.457,0,0,0-.441-3.469s2.24.944,2.246,3.081a9.292,9.292,0,0,1-1.826,4.531,3.38,3.38,0,0,0,.832,4.8,3.416,3.416,0,0,0,4.721-.993c2.2-2.945,1.511-5.654-.36-10-1.848-4.293-.132-7.772,1.7-11.575,2-4.17-4.547-10.8-4.547-10.8s11.127,6.213,8.638,12.993c-1.448,3.942,2.636,5.6,2.238,9.225a7.718,7.718,0,0,1-.871,2.657,1.827,1.827,0,0,0,.551,2.528s1.283.963,2.659-.676a5.618,5.618,0,0,0,1.065-3.381c.185-4.153-1.282-4.635-1.668-7.862-.558-4.636.37-6.4.37-6.4s1.064,7.88,4.161,6.792c3.482-1.346-.533-6.056-.7-7.553a5.843,5.843,0,0,1,3.893-6.253s-.712.313-1.524,2.046a7.172,7.172,0,0,0-.4,2.952,2.271,2.271,0,0,0,1.167,1.855,2.244,2.244,0,0,0,2.653-.426,2.3,2.3,0,0,0,.609-1.525,5.564,5.564,0,0,1,.224-1.637,5.1,5.1,0,0,1-1.905,6.533c-1.416,1.022.29,3.277-.2,5.317s-3.241,2.441-3.714,4.321a7.131,7.131,0,0,0,.209,5,3.494,3.494,0,0,0,4.11,1.7A3.275,3.275,0,0,0,88.3,2051.3a9.752,9.752,0,0,1-.47-6.562c.867-3.34,5.44-5.41,5.44-5.41s-3.418,4.092-2.5,5.681,3.538.481,2.763,3.02C92.145,2051.3,92.189,2050.966,92.161,2052.26Z" transform="translate(-43.228 -2024.788)"/><path class="a" d="M77.013,2075.826c-9.422,0-16.711-1.7-21.665-5.068a17.25,17.25,0,0,1-6.507-8.05c-.919-2.187-.51-3.845.055-6.141a22.3,22.3,0,0,0,.853-6.449,15.035,15.035,0,0,0-1.95-7.694,5.986,5.986,0,0,1,1.956.7,4.4,4.4,0,0,1,1.268,2.475,4.831,4.831,0,0,0,.56,1.459,3.273,3.273,0,0,0,2.664,1.51,3.167,3.167,0,0,0,1.48-.383l.037-.02.035-.022a3.261,3.261,0,0,0,1.526-2.167,3.132,3.132,0,0,0-.625-2.47c-.074-.1-.179-.227-.309-.385-1.146-1.408-4.635-5.692-3.2-9.894.991-2.9,3.97-4.7,6.076-5.656-1.426,3.067-3.324,7.406-2.082,10.217a3.935,3.935,0,0,0,2.568,2.2l.044.012a5.826,5.826,0,0,0,1.477.2,4.213,4.213,0,0,0,4.206-3.5,6.568,6.568,0,0,0,.128-1.565,6.175,6.175,0,0,1,.664,1.15,7.491,7.491,0,0,1,.05,4.333,22.693,22.693,0,0,1-2.857,4.176,30.511,30.511,0,0,0-4.047,6.087A2.9,2.9,0,0,0,61,2054.855l.054.024.057.018a3.1,3.1,0,0,0,.907.139,2.769,2.769,0,0,0,2.022-.872,9.825,9.825,0,0,1-1.117,1.987l-.02.027-.019.029a4.413,4.413,0,0,0,1.122,6.221,4.863,4.863,0,0,0,2.522.737,4.4,4.4,0,0,0,3.61-1.971c2.647-3.551,1.515-6.951-.24-11.028-1.642-3.814-.129-6.958,1.622-10.6l.058-.119c.921-1.916.42-4.141-.545-6.154,2.075,2.125,3.727,4.827,2.73,7.543-.965,2.627.1,4.428,1.042,6.017a5.475,5.475,0,0,1,1.138,3.453,6.717,6.717,0,0,1-.754,2.28,2.855,2.855,0,0,0,.893,3.882,2.724,2.724,0,0,0,1.508.453,3.255,3.255,0,0,0,2.516-1.327,6.462,6.462,0,0,0,1.307-4,10.974,10.974,0,0,0-.906-5.256,10.1,10.1,0,0,1-.769-2.775q-.04-.327-.068-.633c.7,1.293,1.666,2.292,3,2.292a2.77,2.77,0,0,0,.919-.162l.03-.01a3.063,3.063,0,0,0,1.879-1.765,3.306,3.306,0,0,0,.194-1.373c.046.367.123.729.195,1.069a5.228,5.228,0,0,1,.17,2.173c-.16.672-.791,1.132-1.521,1.665a4.854,4.854,0,0,0-2.191,2.644c-.341,1.355-.754,3.908.316,5.769a4.546,4.546,0,0,0,3.944,2.365,5.047,5.047,0,0,0,1.339-.187,4.114,4.114,0,0,0,2.538-1.989,4.593,4.593,0,0,0,.354-3.485c-.066-.216-.139-.434-.214-.656a8.063,8.063,0,0,1-.244-5.342,4.769,4.769,0,0,1,.92-1.75,2.837,2.837,0,0,0,.115,2.278,3.479,3.479,0,0,0,2.218,1.5,4.008,4.008,0,0,1,.547.193,1.622,1.622,0,0,1-.081.457c-.212.5-.389.916-.538,1.264-.8,1.861-.86,2.013-.885,3.194l0,.1a4.56,4.56,0,0,0,1.308,3.154,4.174,4.174,0,0,0,3.046,1.278h0a4.88,4.88,0,0,0,.5-.027,4.29,4.29,0,0,0,2.971-1.571,4.542,4.542,0,0,0,.979-3.185c-.142-1.258-.464-2.552-2.815-4.542-.207-.175-1-1.5.2-3.605a5.568,5.568,0,0,0,.6-3.391,14.379,14.379,0,0,1,2.513,3.222,1.928,1.928,0,0,1,.046.828,4.149,4.149,0,0,0,.946,3.258,6.623,6.623,0,0,0,2.3,1.822,6.937,6.937,0,0,1,1.058.641c1.625,1.216,1.572,2.93.96,5.3-1.216,4.7-3.075,10-7.65,13.7-4.729,3.827-11.991,5.714-22.2,5.767Zm8.645-34.251a12.051,12.051,0,0,0-1.416-3.688,8.644,8.644,0,0,1-.668-1.473,5.841,5.841,0,0,1-.037-.613,3.242,3.242,0,0,0,1.667,2.248,3.287,3.287,0,0,0,1.519.384,3.127,3.127,0,0,0,.981-.159,5.681,5.681,0,0,1-1.049.959A2.468,2.468,0,0,0,85.658,2041.575Z" transform="translate(-44.772 -2025.726)"/></g><g transform="translate(-17.847 2025.482)"><path class="a" d="M142.842,2140.081l-3.963-1.544s-14.872-5.916-19.293-7.519a5.875,5.875,0,0,0-4.11-.338l.226.087-1.154,2.962-.144.371-1.155,2.962-.226-.089a5.884,5.884,0,0,0,3.255,2.532c4.34,1.81,19.293,7.518,19.293,7.518l3.963,1.544a3.891,3.891,0,0,0,2.783-2.518c.12-.36.211-.627.284-.834,0,.046.1-.142.1-.142l-.046-.017c.019-.051.035-.1.05-.138l.057-.135.045.018s.051-.209.021-.174c.087-.2.2-.459.356-.805A3.893,3.893,0,0,0,142.842,2140.081Z" transform="translate(-28.179 -2092.996)"/><path class="a" d="M69.557,2116.294l-.073-1.807-.264-.1.25-.25-.015-.354.263.1L71,2112.6a2.1,2.1,0,0,1,1.2-1.03c-3.079-1.18-36.739-14.086-41.949-16.35a29.032,29.032,0,0,1-4.943-2.581c-3.349-2.374-1.346-6.829-2.429-9.121s-4.217-3.162-4.217-3.162-14.834-4.708-21.671-6.052a15.918,15.918,0,0,0-3.489-.417c-2.584-.029-3.059,1.395-3.059,1.395l-2.717,6.777h0l-.07.187-.074.185h0L-15,2089.264s-.614,1.369,1.308,3.1a15.966,15.966,0,0,0,2.852,2.054c5.943,3.636,20.051,10.208,20.051,10.208s2.9,1.48,5.245.526,3.889-5.591,7.961-5.072a29.035,29.035,0,0,1,5.386,1.444c5.368,1.859,38.885,15.133,41.95,16.347A2.1,2.1,0,0,1,69.557,2116.294Zm-57.091-16.017c-.3.878-.952,1.453-1.448,1.285L-10.5,2090.71c-.5-.169-.653-1.017-.35-1.9s.952-1.454,1.448-1.285l21.518,10.852C12.613,2098.55,12.77,2099.4,12.466,2100.277Zm3.583-7.2c-.32.82-.906,1.357-1.309,1.2l-23.333-9.093c-.4-.157-.472-.949-.152-1.769s.905-1.356,1.309-1.2l23.333,9.094C16.3,2091.464,16.369,2092.256,16.05,2093.076Zm2.191-7.615c-.372.852-1.06,1.371-1.54,1.159l-23.187-6.57c-.479-.212-.567-1.074-.2-1.927s1.061-1.37,1.54-1.158l23.187,6.569C18.524,2083.746,18.612,2084.608,18.241,2085.46Z" transform="translate(15.098 -2073.891)"/></g><g transform="translate(10.164 2025.482)"><path class="a" d="M56.318,2134.1l-.144-.371-1.154-2.962.226-.087a5.878,5.878,0,0,0-4.11.338c-4.421,1.6-19.293,7.519-19.293,7.519l-3.963,1.544a3.893,3.893,0,0,0-.345,3.738c.155.346.269.6.355.805-.03-.034.021.174.021.174l.045-.018.057.136.05.138-.046.017s.1.188.1.142c.072.207.164.474.284.834a3.891,3.891,0,0,0,2.783,2.518l3.963-1.544s14.954-5.708,19.293-7.518a5.887,5.887,0,0,0,3.255-2.532l-.226.089Z" transform="translate(-27.202 -2092.996)"/><path class="a" d="M156.755,2089.264l-2.585-6.829h0l-.074-.185-.071-.187h0l-2.718-6.777s-.474-1.423-3.059-1.395a15.926,15.926,0,0,0-3.489.417c-6.836,1.344-21.67,6.052-21.67,6.052s-3.134.87-4.217,3.162.92,6.747-2.429,9.121a29.058,29.058,0,0,1-4.943,2.581c-5.21,2.264-38.87,15.169-41.949,16.35a2.1,2.1,0,0,1,1.2,1.03l1.277,1.281.262-.1-.014.354.25.25-.264.1-.074,1.807a2.1,2.1,0,0,1-.189,1.573c3.065-1.214,36.582-14.488,41.95-16.347a29.035,29.035,0,0,1,5.386-1.444c4.072-.519,5.612,4.117,7.961,5.072s5.245-.526,5.245-.526,14.108-6.571,20.051-10.208a15.992,15.992,0,0,0,2.852-2.054C157.369,2090.633,156.755,2089.264,156.755,2089.264Zm-33.245-3.8c-.371-.852-.283-1.715.2-1.927l23.187-6.569c.479-.212,1.168.307,1.539,1.158s.283,1.715-.2,1.927l-23.187,6.57C124.57,2086.831,123.881,2086.312,123.51,2085.46Zm3.5,8.815c-.4.158-.989-.379-1.309-1.2s-.251-1.612.152-1.769l23.333-9.094c.4-.157.99.379,1.309,1.2s.252,1.612-.152,1.769Zm25.239-3.565-21.518,10.852c-.5.168-1.144-.407-1.448-1.285s-.147-1.727.349-1.895l21.518-10.852c.5-.169,1.144.407,1.447,1.285S152.746,2090.541,152.25,2090.71Z" transform="translate(-41.506 -2073.891)"/></g><g transform="translate(137.857 2005.608)"><path class="b" d="M220.026,2056.036s19.508,26.174,0,58.813" transform="translate(-220.026 -2047.986)"/><path class="c" d="M231.326,2043.88s24.849,33.339,0,74.913" transform="translate(-223.843 -2043.88)"/></g><g transform="translate(-23.237 2084.763)"><path class="a" d="M-23.237,2174.774l9.2-11.365,1.519,1.23-9.2,11.365Z" transform="translate(23.237 -2163.409)"/><path class="a" d="M-7.772,2176.477l3.922-5.878,1.626,1.085-8.116,12.162-1.626-1.084,1.616-2.422,1.952-6.7-5.312,7.962-1.626-1.085,8.116-12.162,1.626,1.085Z" transform="translate(20.568 -2165.078)"/><path class="a" d="M7.7,2178.776l-6.09,11.314-1.721-.927,6.09-11.314-1.65-.888.84-1.559,5.021,2.7-.84,1.56Z" transform="translate(15.425 -2167.46)"/><path class="a" d="M10.21,2194.609l5.905-13.376,4.434,1.957-.716,1.622-2.645-1.168L15.4,2187.7l2.347,1.037-.716,1.62-2.347-1.036-1.965,4.452,2.645,1.167-.715,1.621Z" transform="translate(11.939 -2169.429)"/><path class="a" d="M27.559,2185.858l3.613,1.266q2.114.74,1.287,3.1l-1.191,3.4q-.633,1.808-1.9,1.9l-.724,6.2-1.749-.613.74-6-1.115-.39-1.951,5.574-1.845-.646Zm-.483,7.3,1.211.424q.825.29,1.176-.71l1.043-2.979q.35-1-.476-1.289l-1.211-.425Z" transform="translate(7.711 -2170.992)"/><path class="a" d="M43.517,2198.149l1.8-6.834,1.891.5-3.716,14.14-1.89-.5.74-2.817L42,2195.666l-2.432,9.256-1.891-.5,3.716-14.141,1.891.5Z" transform="translate(2.661 -2172.487)"/><path class="a" d="M54.9,2208.6l-1.922-.353,2.189-11.916q.452-2.465,2.756-2.041l1.442.265q2.3.423,1.851,2.887l-2.189,11.917-1.922-.354.968-5.267-2.2-.4Zm3.491-6.6.879-4.787a.755.755,0,0,0-.686-1l-.521-.1a.755.755,0,0,0-1,.687l-.879,4.787Z" transform="translate(-2.508 -2173.819)"/><path class="a" d="M73.606,2198.15l-1.486,12.763-1.942-.226,1.487-12.763-1.861-.216.2-1.76,5.663.66-.2,1.76Z" transform="translate(-8.19 -2174.4)"/><path class="a" d="M81.508,2211.855l.971-14.588,1.951.13-.972,14.588Z" transform="translate(-12.144 -2174.845)"/><path class="a" d="M93.238,2212.418q-2.362-.026-2.334-2.51l.107-9.631q.028-2.5,2.369-2.479l1.873.021q2.341.026,2.314,2.53l-.107,9.632q-.028,2.484-2.39,2.458Zm.488-1.766,1,.011q.774.008.783-.846l.1-9.367a.766.766,0,0,0-.866-.865l-.917-.01a.756.756,0,0,0-.865.846l-.1,9.367A.765.765,0,0,0,93.726,2210.652Z" transform="translate(-15.317 -2175.025)"/><path class="a" d="M110.549,2204.387l-.4-7.055,1.952-.111.833,14.6-1.952.111-.166-2.907-2.473-6.529.545,9.555-1.951.113-.833-14.6,1.951-.111Z" transform="translate(-20.451 -2174.83)"/><path class="a" d="M124.132,2210.77l-1.94.244-1.511-12.022q-.312-2.485,2.011-2.777l1.455-.183q2.323-.293,2.636,2.193l1.511,12.021-1.94.244-.668-5.314-2.222.28Zm1.334-7.351-.607-4.829a.755.755,0,0,0-.955-.742l-.526.066a.756.756,0,0,0-.742.956l.607,4.828Z" transform="translate(-25.364 -2174.418)"/><path class="a" d="M141.8,2208.069l-4.561.867-2.728-14.364,1.921-.364,2.4,12.623,2.64-.5Z" transform="translate(-30.046 -2173.812)"/><path class="a" d="M159.045,2194.6l.5,1.7-2.461.726,1.879,6.367-1.875.553-4.138-14.023,4.648-1.372.5,1.7-2.773.817,1.256,4.258Z" transform="translate(-36.276 -2171.903)"/><path class="a" d="M171.736,2199.21q-2.211.833-3.086-1.492l-3.4-9.013q-.883-2.344,1.309-3.17l1.754-.659q2.19-.827,3.074,1.519l3.395,9.013q.876,2.325-1.335,3.158Zm-.187-1.823.934-.352q.723-.273.422-1.073l-3.3-8.767a.765.765,0,0,0-1.12-.491l-.858.323a.755.755,0,0,0-.5,1.1l3.3,8.767A.765.765,0,0,0,171.549,2197.388Z" transform="translate(-40.346 -2170.587)"/><path class="a" d="M186.518,2192.947q-2.13,1.022-3.2-1.219l-4.167-8.684q-1.083-2.258,1.028-3.271l1.689-.811q2.112-1.012,3.2,1.246l4.165,8.684q1.075,2.241-1.055,3.261Zm-.344-1.8.9-.432q.7-.335.328-1.106l-4.051-8.445a.765.765,0,0,0-1.16-.393l-.826.4a.756.756,0,0,0-.4,1.141l4.051,8.445A.766.766,0,0,0,186.175,2191.147Z" transform="translate(-45 -2168.557)"/><path class="a" d="M198.448,2186.644l-7.535-12.529,2.914-1.753q2.356-1.417,3.8.991l5,8.305q1.092,1.816-.915,3.022Zm.762-2.525,1.257-.756q.663-.4.327-.957l-4.828-8.028q-.546-.907-1.3-.456l-1.169.7Z" transform="translate(-49.099 -2166.256)"/></g></g></svg>