<svg xmlns="http://www.w3.org/2000/svg" width="142.782" height="155.547" viewBox="0 0 142.782 155.547"><defs><style>.a{fill:#5b4f47;}</style></defs><g transform="translate(29.317 31.942)"><path class="a" d="M800.981,2040.452c-1.583-1.185-2.345-.962-3.988-2.881s-.384-3.567-1.079-4.871c-2.083-3.912-6.837-7.337-6.837-7.337s2.445,4.429.681,7.515-.773,5.444.04,6.132c2.605,2.2,2.918,3.51,3.066,4.829a4.214,4.214,0,1,1-8.416.321c.036-1.616-.02-1.193,1.707-5.286.969-3.171-2.308-1.788-3.45-3.772s3.126-7.094,3.126-7.094-5.711,2.585-6.793,6.755-.015,6.23.587,8.194a4.089,4.089,0,0,1-2.718,5.21,4.364,4.364,0,0,1-5.133-2.117c-.871-1.516-.852-3.9-.261-6.243s4.03-2.849,4.639-5.4-1.524-5.364.246-6.64a6.365,6.365,0,0,0,2.379-8.159,6.928,6.928,0,0,0-.28,2.044,2.868,2.868,0,0,1-.761,1.9,2.8,2.8,0,0,1-3.314.532,2.836,2.836,0,0,1-1.456-2.316,8.958,8.958,0,0,1,.5-3.687c1.014-2.165,1.9-2.555,1.9-2.555a7.3,7.3,0,0,0-4.861,7.81c.208,1.869,5.222,7.751.873,9.431-3.867,1.36-5.2-8.482-5.2-8.482s-1.159,2.2-.463,7.988c.483,4.029,2.314,4.632,2.083,9.818a7.011,7.011,0,0,1-1.33,4.222c-1.718,2.047-3.32.844-3.32.844a2.282,2.282,0,0,1-.689-3.157,9.63,9.63,0,0,0,1.088-3.318c.5-4.531-4.6-6.6-2.795-11.521,3.108-8.467-10.787-16.227-10.787-16.227s8.181,8.278,5.677,13.486c-2.285,4.749-4.428,9.094-2.12,14.455,2.337,5.428,3.191,8.812.45,12.489a4.266,4.266,0,0,1-5.9,1.24,4.221,4.221,0,0,1-1.039-5.993,11.608,11.608,0,0,0,2.281-5.658c-.007-2.669-2.805-3.848-2.805-3.848a5.567,5.567,0,0,1,.551,4.332,2.3,2.3,0,1,1-4.243-1.686c1.737-4.169,7.561-9.943,8.642-12.865a10.585,10.585,0,0,0-.09-6.378,11.155,11.155,0,0,0-4.072-4.593,10.774,10.774,0,0,1,.631,5.359c-.452,2.12-2.282,3.981-5.5,3.134-6.549-2.037.276-13.362,1.456-16.563,0,0-9.035,2.45-11.259,8.942s3.589,12.75,4.57,14.04a2.6,2.6,0,0,1-.787,3.914,2.627,2.627,0,0,1-3.511-1c-.617-.887-.682-3.893-2.606-5.236s-6.964-1.618-6.964-1.618,4.6,1.432,4.923,11.459c.232,7.308-3.326,10.722-1.034,16.183s8.59,17.323,36.9,17.173,34.931-11.4,38.525-25.28C803.446,2045.375,803.709,2042.494,800.981,2040.452Zm-28.35-15.413a10.8,10.8,0,0,1-.835-1.839,7.569,7.569,0,0,1-.046-.766,4.05,4.05,0,0,0,2.082,2.808,4.109,4.109,0,0,0,1.9.478,3.9,3.9,0,0,0,1.226-.2,7.071,7.071,0,0,1-1.311,1.2,3.084,3.084,0,0,0-1.245,2.926A15.03,15.03,0,0,0,772.631,2025.039Zm28.773,23.068c-1.518,5.865-3.841,12.485-9.553,17.107-5.906,4.779-14.975,7.135-27.726,7.2l-.522,0c-11.767,0-20.87-2.129-27.056-6.329a21.539,21.539,0,0,1-8.126-10.054c-1.147-2.731-.637-4.8.069-7.668a27.832,27.832,0,0,0,1.064-8.054c-.15-4.726-1.238-7.724-2.435-9.608a7.49,7.49,0,0,1,2.443.868c.909.634,1.283,2,1.584,3.091a6.031,6.031,0,0,0,.7,1.822,4.088,4.088,0,0,0,3.327,1.886,3.947,3.947,0,0,0,1.849-.479l.046-.024.044-.028a4.075,4.075,0,0,0,1.907-2.706,3.913,3.913,0,0,0-.781-3.085c-.092-.121-.223-.282-.385-.481-1.432-1.758-5.788-7.109-3.991-12.356,1.239-3.615,4.959-5.875,7.588-7.064-1.781,3.83-4.151,9.249-2.6,12.759a4.91,4.91,0,0,0,3.206,2.743l.056.016a7.285,7.285,0,0,0,1.845.252,5.261,5.261,0,0,0,5.252-4.367,8.246,8.246,0,0,0,.16-1.954,7.647,7.647,0,0,1,.829,1.436,9.358,9.358,0,0,1,.063,5.411,28.315,28.315,0,0,1-3.569,5.215c-2,2.575-4.069,5.236-5.054,7.6a3.614,3.614,0,0,0,1.97,4.967l.068.03.071.022a3.866,3.866,0,0,0,1.133.174,3.458,3.458,0,0,0,2.526-1.089,12.281,12.281,0,0,1-1.395,2.481l-.025.034-.023.035a5.513,5.513,0,0,0,1.4,7.77,6.076,6.076,0,0,0,3.15.92,5.5,5.5,0,0,0,4.508-2.462c3.306-4.435,1.892-8.681-.3-13.772-2.051-4.764-.162-8.689,2.026-13.234l.072-.148c1.15-2.393.525-5.172-.68-7.686,2.591,2.654,4.654,6.028,3.409,9.419-1.2,3.281.127,5.53,1.3,7.514.857,1.448,1.6,2.7,1.421,4.312a8.4,8.4,0,0,1-.942,2.847,3.567,3.567,0,0,0,1.115,4.848,3.409,3.409,0,0,0,1.883.565,4.067,4.067,0,0,0,3.142-1.657,8.073,8.073,0,0,0,1.631-5,13.7,13.7,0,0,0-1.131-6.564,12.582,12.582,0,0,1-.96-3.466q-.049-.408-.085-.791c.871,1.614,2.081,2.861,3.742,2.861a3.464,3.464,0,0,0,1.147-.2l.037-.014a3.819,3.819,0,0,0,2.346-2.2,4.124,4.124,0,0,0,.243-1.714c.056.459.153.911.243,1.335a6.542,6.542,0,0,1,.213,2.713c-.2.84-.988,1.414-1.9,2.079a6.063,6.063,0,0,0-2.735,3.3c-.426,1.693-.942,4.881.394,7.2a5.678,5.678,0,0,0,4.926,2.953,6.283,6.283,0,0,0,1.672-.234,5.134,5.134,0,0,0,3.169-2.484,5.73,5.73,0,0,0,.442-4.351c-.083-.27-.173-.541-.267-.819a10.071,10.071,0,0,1-.3-6.671,5.965,5.965,0,0,1,1.15-2.185,3.546,3.546,0,0,0,.144,2.845,4.341,4.341,0,0,0,2.771,1.875,4.861,4.861,0,0,1,.683.242,2.035,2.035,0,0,1-.1.57c-.264.626-.485,1.144-.672,1.579-.993,2.324-1.075,2.514-1.106,3.988l0,.129a5.689,5.689,0,0,0,1.633,3.939,5.206,5.206,0,0,0,3.8,1.6h0a6.077,6.077,0,0,0,.624-.033,5.351,5.351,0,0,0,3.71-1.962,5.673,5.673,0,0,0,1.224-3.977c-.177-1.571-.579-3.187-3.516-5.673-.258-.218-1.252-1.879.248-4.5a6.955,6.955,0,0,0,.752-4.235,17.948,17.948,0,0,1,3.138,4.024,2.413,2.413,0,0,1,.058,1.034,5.181,5.181,0,0,0,1.181,4.069,8.274,8.274,0,0,0,2.875,2.275,8.707,8.707,0,0,1,1.321.8C802.235,2043.006,802.169,2045.147,801.4,2048.107Z" transform="translate(-723.339 -2009.853)"/><path class="a" d="M724.2,2079.743c4.8,14.582,20.909,25.3,40.044,25.3s35.245-10.721,40.044-25.3Z" transform="translate(-723.63 -2033.46)"/></g><path class="a" d="M889.71,2018.428c0-1.467-1.759-2.745-3.238-.435-2.187,3.406-5,13.064-5.387,20.453-.311,5.876.946,11.375,4.759,12.645-.154,11.119-.431,27.7-.626,32.958a1.49,1.49,0,0,0,1.5,1.536h1.852a1.492,1.492,0,0,0,1.5-1.536c-.2-5.265-.453-21.873-.628-32.992C889.373,2046.859,889.71,2019.54,889.71,2018.428Z" transform="translate(-747.29 -1980.232)"/><path class="a" d="M689.164,2016.911c0-.248-.468-.248-.468,0l-.1,15.51a.547.547,0,1,1-1.083,0l-.992-15.51c0-.248-.465-.248-.465,0l-.493,15.51a.567.567,0,1,1-1.128,0l-.491-15.51c0-.248-.469-.248-.469,0l-.989,15.51a.547.547,0,1,1-1.083,0l-.1-15.51c0-.248-.47-.248-.47,0,0,0-1.312,13.22-1.561,15.495-.3,2.765-.413,5.483.776,8.06a6.969,6.969,0,0,0,3.253,3.395c-.105,9.012-.477,33.573-.726,40.188a1.489,1.489,0,0,0,1.5,1.536h1.855a1.491,1.491,0,0,0,1.5-1.536c-.251-6.615-.625-31.176-.729-40.188a6.986,6.986,0,0,0,3.257-3.395c1.19-2.577,1.076-5.3.775-8.06C690.479,2030.131,689.164,2016.911,689.164,2016.911Z" transform="translate(-679.068 -1980.232)"/><g transform="translate(12.73)"><path class="a" d="M708.591,1986.99q2.358-.423,3.12,1.156l2.285,4.739q1.359,2.817-1.511,4.2l-5.081,2.449-9.113-18.9,4.318-2.081q3.369-1.624,5.02,1.8l1.751,3.633a2.147,2.147,0,0,1-.852,2.877Zm-3.928.4,1.185-.571a1.383,1.383,0,0,0,.787-2.067l-1.421-2.948q-.66-1.369-1.792-.823l-1.5.724Zm4.163,8.635,1.9-.913q1-.483.607-1.3l-2.018-4.186q-.648-1.343-2.148-.619l-1.4.672Z" transform="translate(-698.29 -1967.161)"/><path class="a" d="M732.674,1989.51l-2.691.795-4.924-16.678q-1.017-3.448,2.206-4.4l2.018-.6q3.222-.952,4.241,2.5l4.924,16.678-2.691.795-2.177-7.373-3.083.911Zm.187-10.721-1.977-6.7a1.085,1.085,0,0,0-1.525-.83l-.729.215a1.086,1.086,0,0,0-.83,1.525l1.978,6.7Z" transform="translate(-707.25 -1963.917)"/><path class="a" d="M750.553,1963.894l5.443-.752q3.185-.438,3.676,3.122l.707,5.124q.375,2.722-1.175,3.673l3.134,8.388-2.635.364-2.982-8.144-1.679.231,1.158,8.4-2.779.383Zm4.161,9.633,1.824-.252q1.245-.172,1.038-1.677l-.619-4.487q-.209-1.506-1.453-1.334l-1.824.252Z" transform="translate(-715.943 -1962.117)"/><path class="a" d="M784,1971.853q2.3.656,2.3,2.408l-.028,5.261q-.017,3.127-3.2,3.11l-5.64-.03.112-20.984,4.792.025q3.741.021,3.721,3.82l-.022,4.033a2.146,2.146,0,0,1-2.028,2.21Zm-3.7-1.365,1.315.007q1.607.009,1.615-1.511l.018-3.273q.008-1.519-1.249-1.526l-1.665-.009Zm-.051,9.586,2.1.011q1.111.006,1.116-.9l.024-4.646q.008-1.491-1.658-1.5l-1.549-.009Z" transform="translate(-725.02 -1961.618)"/><path class="a" d="M800.313,1983.577l2.839-20.791,6.892.941-.344,2.519-4.112-.562-.862,6.313,3.649.5-.344,2.519-3.649-.5-.945,6.921,4.112.562-.344,2.519Z" transform="translate(-732.751 -1962.013)"/><path class="a" d="M829.349,1984.92l-.357,1.3q-.947,3.438-4.187,2.545l-1.747-.481q-3.24-.892-2.293-4.33l3.677-13.356q.947-3.437,4.187-2.545l1.747.481q3.24.892,2.294,4.33l-.629,2.282-2.7-.745.574-2.084a1.1,1.1,0,0,0-.886-1.517l-.535-.148q-1.071-.3-1.4.889l-3.569,12.962q-.326,1.183.745,1.478l.676.186q1.071.295,1.4-.888l.3-1.1Z" transform="translate(-739.587 -1963.728)"/><path class="a" d="M858.023,1978.7l-6.983,15.51q-1.632,3.625-4.723,2.232l-2.159-.972q-3.064-1.38-1.421-5.031l6.971-15.483,2.558,1.152-7.007,15.563q-.563,1.254.556,1.757l1.039.468q1.04.468,1.6-.784l7.007-15.563Z" transform="translate(-746.888 -1966.124)"/><path class="a" d="M861.663,2005.429,873.2,1987.9l5.81,3.824-1.4,2.124-3.466-2.281-3.5,5.322,3.075,2.024-1.4,2.124-3.076-2.024-3.84,5.834,3.467,2.282-1.4,2.124Z" transform="translate(-753.474 -1970.496)"/></g><g transform="translate(12.344 101.73)"><path class="a" d="M704.411,2127.842l1.316-2.175,3.65,2.209-5.3,8.751-4.7-2.846q-2.774-1.681-.944-4.706l7.174-11.851q1.86-3.074,4.636-1.4l1.65,1q3.05,1.845,1.158,4.972l-1.181,1.95-2.4-1.453.969-1.6q.787-1.3-.238-1.921l-.6-.363q-1.05-.636-1.837.664l-6.659,11q-.788,1.3.263,1.936L703,2133l2.663-4.4Z" transform="translate(-697.709 -2115.237)"/><path class="a" d="M720.789,2144.106q-3.156-1.24-1.851-4.558L724,2126.682q1.314-3.346,4.443-2.117l2.5.984q3.127,1.229,1.813,4.574L727.7,2142.99q-1.305,3.319-4.459,2.078Zm1.556-2.12,1.333.524q1.033.406,1.483-.736l4.917-12.512a1.1,1.1,0,0,0-.72-1.6l-1.224-.481a1.085,1.085,0,0,0-1.591.693l-4.918,12.513A1.1,1.1,0,0,0,722.345,2141.986Z" transform="translate(-704.751 -2118.277)"/><path class="a" d="M744.386,2151.376q-3.3-.758-2.509-4.233l3.089-13.474q.8-3.5,4.079-2.753l2.621.6q3.275.751,2.472,4.255l-3.089,13.474q-.8,3.477-4.1,2.718Zm1.223-2.328,1.4.32q1.083.247,1.358-.948l3-13.1a1.1,1.1,0,0,0-.951-1.477l-1.281-.294a1.086,1.086,0,0,0-1.471.922l-3,13.1A1.1,1.1,0,0,0,745.609,2149.049Z" transform="translate(-712.576 -2120.489)"/><path class="a" d="M765.216,2154.9l1.943-20.894,4.859.452q3.93.365,3.556,4.381l-1.288,13.852q-.282,3.027-3.628,2.715Zm3.029-2.272,2.1.2q1.106.1,1.192-.828l1.245-13.386q.141-1.513-1.11-1.63l-1.95-.182Z" transform="translate(-720.511 -2121.577)"/><path class="a" d="M806.1,2143.135l.218,2.533-3.669.316.817,9.492-2.8.24-1.8-20.907,6.93-.6.218,2.533-4.135.355.546,6.347Z" transform="translate(-731.879 -2121.647)"/><path class="a" d="M822.793,2152.649q-3.319.694-4.048-2.8l-2.83-13.531q-.736-3.518,2.554-4.206l2.632-.55q3.29-.688,4.026,2.83l2.83,13.531q.729,3.489-2.589,4.184Zm.138-2.626,1.4-.293q1.087-.228.836-1.429l-2.752-13.159a1.1,1.1,0,0,0-1.481-.944l-1.287.269a1.085,1.085,0,0,0-.95,1.453l2.752,13.159A1.1,1.1,0,0,0,822.931,2150.023Z" transform="translate(-737.591 -2120.715)"/><path class="a" d="M845.579,2146.223q-3.183,1.171-4.414-2.175l-4.775-12.973q-1.243-3.374,1.912-4.534l2.523-.929q3.154-1.161,4.4,2.212L850,2140.8q1.232,3.346-1.95,4.517Zm-.248-2.618,1.344-.495q1.042-.384.619-1.535l-4.645-12.617a1.1,1.1,0,0,0-1.6-.718l-1.234.455a1.085,1.085,0,0,0-.728,1.575l4.644,12.617A1.1,1.1,0,0,0,845.331,2143.6Z" transform="translate(-744.434 -2118.641)"/><path class="a" d="M864.036,2138.026l-10.445-18.2,4.233-2.429q3.422-1.964,5.43,1.534L870.178,2131q1.514,2.636-1.4,4.309Zm1.167-3.6,1.826-1.047q.962-.552.5-1.364l-6.692-11.66q-.756-1.318-1.846-.693l-1.7.975Z" transform="translate(-750.363 -2115.728)"/></g><g transform="translate(19.05 132.015)"><path class="a" d="M713.994,2167.923q1.024.931.57,1.835l-1.364,2.715a1.611,1.611,0,0,1-2.454.787l-2.91-1.462,5.44-10.828,2.473,1.243a1.924,1.924,0,0,1,.945,2.93l-1.046,2.081a1.24,1.24,0,0,1-1.616.623Zm-4.052,3.291,1.086.545q.572.289.808-.179l1.2-2.4q.386-.769-.473-1.2l-.8-.4Zm2.485-4.946.679.341a.8.8,0,0,0,1.224-.367l.848-1.689q.394-.784-.254-1.11l-.859-.432Z" transform="translate(-707.835 -2160.97)"/><path class="a" d="M721.174,2178.106l-1.506-.6,3.707-9.333a1.778,1.778,0,0,1,2.57-1.213l1.129.448a1.778,1.778,0,0,1,1.038,2.646l-3.707,9.332-1.506-.6,1.638-4.125-1.725-.686Zm3.906-4.8,1.489-3.748a.627.627,0,0,0-.4-.921l-.408-.162a.626.626,0,0,0-.921.4l-1.489,3.748Z" transform="translate(-711.832 -2162.929)"/><path class="a" d="M735.667,2170.18l3.034.93q1.774.544,1.166,2.529l-.876,2.856q-.466,1.517-1.509,1.638l-.4,5.156-1.468-.45.419-4.99-.936-.288-1.435,4.679-1.55-.475Zm-.163,6.057,1.016.312q.693.212.952-.626l.767-2.5q.257-.839-.436-1.052l-1.016-.311Z" transform="translate(-716.036 -2164.081)"/><path class="a" d="M752.972,2187.19l-1.593-.295,1.824-9.874q.377-2.041,2.286-1.689l1.195.221q1.908.353,1.532,2.394l-1.825,9.874-1.593-.294.807-4.365-1.825-.337Zm2.9-5.471.733-3.966a.626.626,0,0,0-.568-.826l-.431-.08a.628.628,0,0,0-.826.568l-.733,3.967Z" transform="translate(-722.543 -2165.804)"/><path class="a" d="M768.417,2183.031l.654-5.82,1.611.181-1.355,12.041-1.61-.181.27-2.4-1.111-5.678-.886,7.882-1.61-.181,1.354-12.041,1.61.181Z" transform="translate(-726.935 -2166.329)"/><path class="a" d="M777.431,2190.118l.525-12.107,2.815.123a2.036,2.036,0,0,1,2.175,2.425l-.348,8.026q-.075,1.754-2.015,1.669Zm1.683-1.4,1.214.052q.641.028.664-.512l.336-7.756q.039-.877-.687-.908l-1.129-.049Z" transform="translate(-731.343 -2166.726)"/><path class="a" d="M801.882,2187.138l.045.775q.119,2.056-1.818,2.168l-1.044.062q-1.938.112-2.058-1.942l-.466-7.987q-.12-2.055,1.817-2.169l1.045-.061q1.937-.114,2.057,1.942l.08,1.365-1.617.095-.073-1.247a.635.635,0,0,0-.766-.666l-.32.019q-.641.038-.6.746l.452,7.749q.041.708.681.671l.4-.024q.64-.037.6-.745l-.038-.657Z" transform="translate(-737.796 -2166.716)"/><path class="a" d="M811.211,2189.007q-1.943.247-2.2-1.795L808,2179.294q-.262-2.059,1.662-2.3l1.54-.2q1.925-.246,2.188,1.813l1.011,7.918a1.777,1.777,0,0,1-1.681,2.291Zm.2-1.506.82-.1q.637-.081.547-.785l-.983-7.7a.634.634,0,0,0-.81-.61l-.753.1a.626.626,0,0,0-.613.793l.983,7.7A.634.634,0,0,0,811.41,2187.5Z" transform="translate(-741.657 -2166.306)"/><path class="a" d="M824.59,2179.652l.283,1.441-2.087.409,1.059,5.4-1.59.312-2.332-11.891,3.942-.773.283,1.441-2.352.461.709,3.61Z" transform="translate(-745.696 -2165.557)"/><path class="a" d="M834.458,2177.211l.371,1.421-2.057.538,1.39,5.323-1.568.409-3.062-11.723,3.886-1.016.371,1.42-2.318.606.93,3.559Z" transform="translate(-748.942 -2164.75)"/><path class="a" d="M842.785,2181.943l-3.819-11.5,3.812-1.266.463,1.394-2.275.755,1.16,3.492,2.018-.67.462,1.393-2.018.67,1.271,3.828,2.274-.756.463,1.394Z" transform="translate(-752.128 -2163.742)"/><path class="a" d="M852.893,2178.269l-4.606-11.208,3.715-1.527.558,1.358-2.216.911,1.4,3.4,1.967-.809.558,1.359-1.967.808,1.533,3.73,2.217-.911.558,1.358Z" transform="translate(-755.277 -2162.512)"/></g></svg>